<?xml version="1.0" encoding="utf-8"?>
<!-- Generator: Adobe Illustrator 25.0.1, SVG Export Plug-In . SVG Version: 6.00 Build 0)  -->
<svg version="1.1" id="Layer_1" xmlns="http://www.w3.org/2000/svg" xmlns:xlink="http://www.w3.org/1999/xlink" x="0px" y="0px"
	 viewBox="0 0 678.5 57.8" style="enable-background:new 0 0 678.5 57.8;" xml:space="preserve">
<style type="text/css">
	.st0{fill:#FF290B;}
</style>
<path class="st0" d="M92.8,47.5h3.5c2.9,0.1,5.9-0.3,8.7-1.1c2.3-0.8,4.4-2,6.2-3.6c3.8-3.5,5.9-8.4,5.8-13.6
	c0.2-5.2-1.9-10.2-5.8-13.8c-3.4-3.2-8.3-4.7-15-4.7h-3.5L92.8,47.5z M85,54.8V3.5h10.7c5.2,0,9.3,0.4,12.2,1.5
	c3.3,1,6.3,2.8,8.8,5.2c5.3,4.7,8,11.1,8,19s-2.8,14.2-8.3,19c-2.5,2.4-5.5,4.1-8.7,5.3c-3.9,1-8,1.5-12.1,1.4L85,54.8z"/>
<path class="st0" d="M168.6,26.9h2.4c7.3,0,11-2.7,11-8.4c0-5.2-3.6-7.9-10.7-7.9h-2.7L168.6,26.9z M178.2,32.9l15.9,21.9h-9.5
	l-14.6-21h-1.4v21h-7.8V3.5h9.1c6.8,0,11.6,1.1,14.7,3.7c3.3,2.8,5.1,6.9,5,11.2c0.1,3.4-1,6.8-3.2,9.4
	C184.3,30.5,181.4,32.2,178.2,32.9"/>
<polygon class="st0" points="230.5,3.5 230.5,54.8 258.8,54.8 258.8,47.5 238.2,47.5 238.2,30.4 258.2,30.4 258.2,23 238.2,23 
	238.2,10.7 258.8,10.7 258.8,3.5 "/>
<polygon class="st0" points="297.7,0 297.7,54.8 305.5,54.8 305.5,18.8 342.8,57.8 342.8,3.5 335.1,3.5 335.1,39.1 "/>
<polygon class="st0" points="461,3.5 461,54.8 483.9,54.8 483.9,47.5 468.8,47.5 468.8,3.5 "/>
<rect x="522.3" y="3.5" class="st0" width="7.8" height="51.3"/>
<polygon class="st0" points="568.7,0 568.7,54.8 576.6,54.8 576.6,18.8 613.9,57.8 613.9,3.5 606.1,3.5 606.1,39.1 "/>
<polygon class="st0" points="650.2,3.5 650.2,54.8 678.5,54.8 678.5,47.5 658,47.5 658,30.4 677.9,30.4 677.9,23 658,23 658,10.7 
	678.5,10.7 678.5,3.5 "/>
<polygon class="st0" points="0,54.8 8.4,54.8 25.3,17.6 41.4,54.8 49.9,54.8 25.4,0.2 "/>
<polygon class="st0" points="375.4,54.8 383.8,54.8 400.7,17.6 416.8,54.8 425.3,54.8 400.8,0.2 "/>
</svg>
