<?xml version="1.0" encoding="utf-8"?>
<!-- Generator: Adobe Illustrator 26.3.1, SVG Export Plug-In . SVG Version: 6.00 Build 0)  -->
<svg version="1.1" id="Layer_1" xmlns="http://www.w3.org/2000/svg" xmlns:xlink="http://www.w3.org/1999/xlink" x="0px" y="0px"
	 viewBox="0 0 166 135.1" style="enable-background:new 0 0 166 135.1;" xml:space="preserve">
<style type="text/css">
	.st0{fill:#8A000B;}
	.st1{fill:#FF290B;}
	.st2{fill:#231F20;}
</style>
<g>
	<polygon class="st0" points="84.5,4.9 40.1,104.5 57,104.5 84.5,43 	"/>
	<polygon class="st1" points="84.5,4.9 84.5,43 112.1,104.5 129,104.5 	"/>
</g>
<g>
	<path class="st2" d="M43.9,125.4v-7.9h1.7c0.8,0,1.4,0.1,1.9,0.2c0.5,0.2,1,0.4,1.4,0.8c0.8,0.7,1.2,1.7,1.2,2.9
		c0,1.2-0.4,2.2-1.3,2.9c-0.4,0.4-0.9,0.6-1.3,0.8c-0.4,0.1-1.1,0.2-1.9,0.2H43.9z M45,124.2h0.5c0.5,0,1-0.1,1.3-0.2
		c0.4-0.1,0.7-0.3,1-0.6c0.6-0.6,0.9-1.3,0.9-2.1c0-0.9-0.3-1.6-0.9-2.1c-0.5-0.5-1.3-0.7-2.3-0.7H45V124.2z"/>
	<path class="st2" d="M58.2,122l2.4,3.4h-1.5l-2.2-3.2h-0.2v3.2h-1.2v-7.9h1.4c1,0,1.8,0.2,2.3,0.6c0.5,0.4,0.8,1,0.8,1.7
		c0,0.6-0.2,1-0.5,1.5C59.2,121.6,58.7,121.9,58.2,122 M56.7,121.1h0.4c1.1,0,1.7-0.4,1.7-1.3c0-0.8-0.5-1.2-1.7-1.2h-0.4V121.1z"/>
	<polygon class="st2" points="66.3,117.5 66.3,125.4 70.6,125.4 70.6,124.2 67.5,124.2 67.5,121.6 70.5,121.6 70.5,120.5 
		67.5,120.5 67.5,118.6 70.6,118.6 70.6,117.5 	"/>
	<polygon class="st2" points="76.6,125.4 77.8,125.4 77.8,119.8 83.6,125.8 83.6,117.5 82.4,117.5 82.4,123 76.6,116.9 	"/>
	<polygon class="st2" points="101.8,117.5 101.8,125.4 105.3,125.4 105.3,124.2 103,124.2 103,117.5 	"/>
	<rect x="111.2" y="117.5" class="st2" width="1.2" height="7.9"/>
	<polygon class="st2" points="118.4,125.4 119.6,125.4 119.6,119.8 125.3,125.8 125.3,117.5 124.1,117.5 124.1,123 118.4,116.9 	"/>
	<polygon class="st2" points="130.9,117.5 130.9,125.4 135.3,125.4 135.3,124.2 132.1,124.2 132.1,121.6 135.2,121.6 135.2,120.5 
		132.1,120.5 132.1,118.6 135.3,118.6 135.3,117.5 	"/>
	<polygon class="st2" points="30.8,125.4 32,125.4 34.7,119.6 37.1,125.4 38.4,125.4 34.7,117 	"/>
	<polygon class="st2" points="88.6,125.4 89.9,125.4 92.5,119.6 95,125.4 96.3,125.4 92.5,117 	"/>
</g>
</svg>
