<svg
  width="178"
  height="28"
  viewBox="0 0 178 28"
  fill="none"
  xmlns="http://www.w3.org/2000/svg"
>
  <path
    d="m18.93 27.34-1.585-5.394H7.08L5.495 27.34H0L9.254 0h5.798l9.339 27.34h-5.462zM12.186 4.922l-3.81 12.575h7.552L12.187 4.922zM38.87 27.34v-1.872l-.522.573c-.309.315-.654.592-1.028.826a6.743 6.743 0 0 1-1.601.742 7.398 7.398 0 0 1-2.225.303 9.016 9.016 0 0 1-3.068-.556 7.635 7.635 0 0 1-2.764-1.686 8.714 8.714 0 0 1-1.99-3.05 11.663 11.663 0 0 1-.775-4.518 13.28 13.28 0 0 1 .725-4.585 9.845 9.845 0 0 1 1.955-3.371 8.429 8.429 0 0 1 2.815-2.04 7.99 7.99 0 0 1 3.371-.69c.436 0 .87.04 1.298.117.483.07.957.189 1.416.354.474.18.927.411 1.349.691.432.263.814.6 1.13.995V.016h4.6v27.34l-4.685-.017zm-9.135-9.76a9.46 9.46 0 0 0 .236 2.14c.13.704.4 1.374.792 1.972a4.704 4.704 0 0 0 1.433 1.45 3.894 3.894 0 0 0 2.14.556 4.113 4.113 0 0 0 3.203-1.5 6.22 6.22 0 0 0 1.298-4.197c0-.752-.068-1.502-.202-2.242a6.352 6.352 0 0 0-.675-2.023 4.163 4.163 0 0 0-1.348-1.466 3.996 3.996 0 0 0-2.242-.573 4.23 4.23 0 0 0-1.955.455 4.736 4.736 0 0 0-1.466 1.247 5.21 5.21 0 0 0-.91 1.838 8.43 8.43 0 0 0-.304 2.36v-.018zM51.797 7.972v2.748a4.805 4.805 0 0 1 1.4-1.804 6.627 6.627 0 0 1 1.685-.944 6.877 6.877 0 0 1 1.584-.37h1.467v4.837h-1.13a6.74 6.74 0 0 0-1.685.388 5.68 5.68 0 0 0-1.686 1.045 4.484 4.484 0 0 0-1.23 2.056 5.36 5.36 0 0 0-.303 1.568V27.34h-4.602V7.972h4.5zM63.615 18.59c.049.39.133.773.253 1.147.152.61.427 1.185.809 1.685a5.496 5.496 0 0 0 1.686 1.467c.837.45 1.78.665 2.73.623a6.1 6.1 0 0 0 2.124-.337 6.553 6.553 0 0 0 1.5-.775c.359-.26.677-.573.944-.927.236-.303.405-.556.506-.708l3.944 2.276a16.557 16.557 0 0 1-1.416 1.685 9.455 9.455 0 0 1-1.989 1.585c-.834.508-1.729.91-2.663 1.196-1.089.348-2.228.513-3.371.49a10.94 10.94 0 0 1-3.995-.709 9.002 9.002 0 0 1-5.226-5.326 12.17 12.17 0 0 1-.741-4.332c-.035-1.545.24-3.081.809-4.518a8.986 8.986 0 0 1 2.175-3.152 9.253 9.253 0 0 1 3.1-1.87c1.172-.406 2.403-.612 3.642-.608a9.59 9.59 0 0 1 4.601.995 8.629 8.629 0 0 1 2.933 2.613 10.282 10.282 0 0 1 1.534 3.607c.301 1.305.454 2.639.455 3.978l-14.344-.084zm9.22-3.37c0-.22-.1-.574-.202-1.046a3.607 3.607 0 0 0-.624-1.348 4.079 4.079 0 0 0-1.314-1.163 4.248 4.248 0 0 0-2.209-.506 4.635 4.635 0 0 0-2.309.523 4.45 4.45 0 0 0-1.416 1.23 4.247 4.247 0 0 0-.724 1.349c-.135.438-.22.758-.27.96h9.068zM85.291 7.975v2.292c.4-.632.936-1.167 1.568-1.568a9.442 9.442 0 0 1 1.686-.86 8.295 8.295 0 0 1 1.685-.37h1.011a5.85 5.85 0 0 1 4.67 1.804 6.743 6.743 0 0 1 1.584 4.652V27.41h-4.568V16.47c0-.565-.045-1.128-.135-1.686a4.62 4.62 0 0 0-.505-1.45 2.866 2.866 0 0 0-1.029-1.078 3.203 3.203 0 0 0-1.685-.405 5.884 5.884 0 0 0-1.045.135c-.519.13-.995.39-1.382.759a4.5 4.5 0 0 0-1.433 2.259 15.286 15.286 0 0 0-.388 3.893v8.428h-4.72V7.975h4.686zM112.784 27.34l-.118-1.518a9.687 9.687 0 0 1-2.427 1.383c-2 .737-4.19.784-6.22.134a6.912 6.912 0 0 1-2.208-1.28 5.51 5.51 0 0 1-1.871-4.18 6.093 6.093 0 0 1 .556-2.715 5.936 5.936 0 0 1 1.5-1.905c.66-.524 1.4-.939 2.192-1.23a14.303 14.303 0 0 1 2.629-.691 96.354 96.354 0 0 0 3.624-.775c.944-.22 1.686-.456 2.343-.658a4.607 4.607 0 0 0-.118-1.079 2.173 2.173 0 0 0-.455-.927 2.515 2.515 0 0 0-1.011-.657 5.06 5.06 0 0 0-1.686-.253 5.441 5.441 0 0 0-2.09.32 3.15 3.15 0 0 0-1.18.742 2.148 2.148 0 0 0-.539.91c-.06.255-.094.514-.102.776v.168l-4.736-.27c0-.32.101-.825.219-1.517a4.628 4.628 0 0 1 1.011-2.09 6.918 6.918 0 0 1 2.529-1.837 11.34 11.34 0 0 1 4.77-.792c2.181-.181 4.364.332 6.237 1.466a4.81 4.81 0 0 1 1.921 4.029V25.13c.007.24.041.477.101.708.074.234.17.46.287.674.13.284.277.56.438.826h-5.596zm0-9.642a9.475 9.475 0 0 1-1.45.59c-.725.23-1.469.394-2.224.488l-1.568.27c-.469.088-.923.24-1.349.455-.378.17-.712.424-.977.742-.26.35-.391.778-.371 1.213a2.183 2.183 0 0 0 .725 1.686 3.37 3.37 0 0 0 2.461.708 6.922 6.922 0 0 0 1.685-.219 5.371 5.371 0 0 0 1.534-.64 3.692 3.692 0 0 0 1.146-1.08 2.87 2.87 0 0 0 .439-1.584l-.051-2.63zM121.229 27.34V0h4.719v27.34h-4.719zM129.672 4.87V.184h4.602V4.87h-4.602zm0 22.469V7.97h4.602v19.368h-4.602zM142.752 7.975v2.292A5.068 5.068 0 0 1 144.32 8.7a9.429 9.429 0 0 1 1.686-.86 8.285 8.285 0 0 1 1.685-.37h1.012a5.85 5.85 0 0 1 4.669 1.804 6.745 6.745 0 0 1 1.584 4.652V27.41h-4.568V16.47a10.459 10.459 0 0 0-.135-1.686 5.074 5.074 0 0 0-.505-1.45 3.007 3.007 0 0 0-1.029-1.078 3.202 3.202 0 0 0-1.685-.405 5.873 5.873 0 0 0-1.045.135 3.08 3.08 0 0 0-1.382.759 4.393 4.393 0 0 0-1.433 2.259 15.268 15.268 0 0 0-.388 3.893v8.428h-4.72V7.975h4.686zM162.508 18.59c.049.39.134.773.253 1.147.152.61.428 1.185.809 1.685a5.507 5.507 0 0 0 1.686 1.467c.837.45 1.781.665 2.731.623a5.917 5.917 0 0 0 3.607-1.112c.367-.256.692-.569.961-.927.236-.303.404-.556.505-.708l3.944 2.276a16.652 16.652 0 0 1-1.415 1.685 9.474 9.474 0 0 1-1.989 1.585 11.7 11.7 0 0 1-2.664 1.196c-1.089.345-2.228.51-3.371.49a10.91 10.91 0 0 1-3.978-.709 8.998 8.998 0 0 1-5.225-5.326 12.166 12.166 0 0 1-.742-4.332c-.035-1.545.241-3.081.809-4.518a8.762 8.762 0 0 1 2.175-3.152 9.247 9.247 0 0 1 3.101-1.87 11.009 11.009 0 0 1 3.641-.608 9.593 9.593 0 0 1 4.602.995 8.438 8.438 0 0 1 2.916 2.613 10.015 10.015 0 0 1 1.551 3.607c.3 1.305.453 2.639.455 3.978l-14.362-.084zm9.221-3.37c0-.22-.102-.574-.203-1.046a3.607 3.607 0 0 0-.623-1.348 4.089 4.089 0 0 0-1.315-1.163 4.28 4.28 0 0 0-2.208-.506 4.751 4.751 0 0 0-2.326.523 4.569 4.569 0 0 0-1.399 1.23 4.236 4.236 0 0 0-.725 1.349c-.135.438-.219.758-.27.96h9.069z"
    fill="#000000"
  ></path>
</svg>
