<?xml version="1.0" encoding="utf-8"?>
<!-- Generator: Adobe Illustrator 26.0.2, SVG Export Plug-In . SVG Version: 6.00 Build 0)  -->
<svg version="1.1" id="Layer_1" xmlns="http://www.w3.org/2000/svg" xmlns:xlink="http://www.w3.org/1999/xlink" x="0px" y="0px"
	 viewBox="0 0 1000 1000" style="enable-background:new 0 0 1000 1000;" xml:space="preserve">
<style type="text/css">
	.st0{fill:#006341;}
</style>
<g>
	<path class="st0" d="M500.3,62.6c-241.4,0-437.7,196.3-437.7,437.7S258.9,938,500.3,938c24.5,0,49-2.6,73.6-6.5V264.1H473.3
		c-33.6,90.4-120,89.1-120,89.1v91.7h77.5v353.8c-135.7-31-236.3-152.3-236.3-298.3c0-169.2,136.9-306,306-306s306,136.9,306,306
		c0,127.8-77.5,236.3-188.5,282.7v138.2C802.6,869.6,938.2,700.4,938.2,499C938.1,258.9,741.8,62.6,500.3,62.6z"/>
</g>
</svg>
