<?xml version="1.0" encoding="utf-8"?>
<!-- Generator: Adobe Illustrator 27.8.1, SVG Export Plug-In . SVG Version: 6.00 Build 0)  -->
<svg version="1.1" id="Layer_1" xmlns="http://www.w3.org/2000/svg" xmlns:xlink="http://www.w3.org/1999/xlink" x="0px" y="0px"
	 viewBox="0 0 300 300" style="enable-background:new 0 0 300 300;" xml:space="preserve">
<style type="text/css">
	.st0{fill:#FFFFFF;}
</style>
<g>
	<path class="st0" d="M300,94.4v37.3h-19.5v111.7c-0.7,0-1.3,0-1.9,0c-54.2-0.1-108.4-0.2-162.7-0.2c-31.4,0-62.7,0-94.1,0
		c-0.8,0-1.5-0.2-2.3-0.3V131.4H0c0-12.6,0-25.2,0-37.8c3.9-2.4,7.7-4.9,11.5-7.3c7.2-4.6,14.4-9.1,21.6-13.6
		c7.1-4.5,14.2-8.8,21.1-13.3c7.2-4.6,14.4-9.1,21.6-13.6c7.1-4.5,14.2-8.8,21.2-13.3c7-4.4,13.8-8.8,20.8-13.2
		c10.1-6.3,20.1-12.6,30.2-19c1.1-0.7,2.8-0.6,4,0.1c2.1,1.3,4.2,2.7,6.4,4c5.1,3.2,10.1,6.4,15.2,9.6c9.7,6.1,19.6,12.3,29.3,18.4
		c5.1,3.2,10.2,6.4,15.3,9.6c10.1,6.3,20.1,12.6,30.2,19c9.6,6.1,19.4,12.2,29,18.3c6.7,4.2,13.6,8.5,20.5,12.7
		C298.7,93,299.2,93.8,300,94.4L300,94.4z M248.2,205c0-0.3,0-0.5,0-0.7c0-31,0-62,0-93.1c0-0.7-0.3-1-0.9-1.3
		c-8.2-5.1-16.4-10.3-24.6-15.3c-16.5-10.4-33-20.7-49.4-31.1c-7.6-4.8-15.3-9.5-22.8-14.3c-0.7-0.4-1.1-0.4-1.8,0
		c-2.9,1.9-5.8,3.7-8.6,5.5c-6.7,4.2-13.5,8.5-20.4,12.7c-6.4,4-12.8,8.1-19.4,12.1s-13.1,8.2-19.6,12.2
		c-9.2,5.8-18.4,11.6-27.7,17.4c-0.9,0.5-1.2,1.1-1.2,2.1c0,30.8,0,61.6,0,92.2v1.3L248.2,205L248.2,205z"/>
	<path class="st0" d="M131.4,288.6v10.9h-3.3V275c0.3,0,0.8-0.1,1.1-0.1c3.5,0,7.1-0.1,10.6,0c1.9,0.1,4,0.3,5.6,1
		c1.9,0.8,3,2.7,3.2,4.7c0.2,1.9-0.1,3.6-1.3,5.2c-0.7,0.9-3.9,2.3-5.2,2.4c1.4,1.7,3.1,3.3,4.5,5.2c1.4,1.9,2.7,3.8,4.1,6
		c-1.4,0-2.7,0-3.9,0c-0.2,0-0.7-0.4-0.8-0.6c-1.7-2.3-3.2-4.7-4.8-6.9c-1.5-2.2-3.5-3.8-6.7-3.3
		C133.5,288.7,132.5,288.6,131.4,288.6L131.4,288.6z M131.5,285.7c3.4,0,6.6,0.1,10,0c1.7,0,3.2-1.3,3.5-2.6c0.7-2.6-0.6-4.7-3.4-5
		c-3.3-0.3-6.6-0.1-10.1-0.1V285.7L131.5,285.7z"/>
	<path class="st0" d="M223.2,299.4c-2.7,0.8-4-0.3-5.3-2.2c-3.8-5.6-7.7-11-11.8-16.8v19.2h-3.2V275c1,0,1.9-0.1,2.8,0
		c0.3,0,0.7,0.4,0.9,0.6c3.2,4.5,6.5,8.9,9.7,13.4c1.2,1.7,2.3,3.2,3.8,5.1V275h3.1L223.2,299.4L223.2,299.4z"/>
	<path class="st0" d="M33.7,300c-3.4,0.1-6.4-0.8-8.6-3.2c-3-3.2-4.3-6.9-3.7-11.4c0.3-2.6,1.3-4.9,3-6.8c1.3-1.6,3-2.6,5.1-3.1
		c1.5-0.4,3.1-0.7,4.8-0.7c3.4,0.1,6.3,1.2,8.6,3.5c2.1,2.2,3.3,4.9,3.4,7.9c0.1,2.7-0.1,5.3-1.4,7.9c-1.4,2.7-3.8,4.4-6.6,5.4
		C36.8,299.8,35.2,299.8,33.7,300L33.7,300z M25,287.2c0,0.4,0,0.7,0,1.1c0,5.9,4.9,9.9,11.6,8.5c0.3-0.1,0.7-0.1,1-0.3
		c2.1-1.3,4.1-2.9,4.6-5.5c0.1-0.7,0.4-1.5,0.4-2.2c0.2-3.4,0.1-6.7-3-9.2c-4.3-3.5-9.8-3-13.3,1.3C25.1,282.9,24.9,285.1,25,287.2
		L25,287.2z"/>
	<path class="st0" d="M110.6,299.8c-3.5,0.5-6.4-0.9-8.7-3.1c-2.1-2-3-4.7-3.3-7.4c-0.4-2.7-0.1-5.3,1-7.8c1.4-2.9,3.5-5.1,7-6.1
		c2.7-0.8,5.2-0.9,7.9-0.2c4.3,1.1,7.1,3.7,8.3,7.8c1.1,3.5,0.9,6.9-0.6,10.3c-1,2.2-2.4,4-4.8,5.2
		C115.3,299.5,113.1,300.1,110.6,299.8L110.6,299.8z M102,287c0,0.9-0.1,1.6,0,2.2c0.3,2.3,1.1,4.2,3,5.9c2,1.9,4.3,2.1,7,2.1
		c2.5,0,4.3-1.3,5.8-3c1.4-1.6,1.9-3.5,2-5.6c0.1-2.1,0.1-4.1-0.8-6c-1.3-3-3.9-4.5-7.1-5.1c-3.1-0.6-7.6,1.8-8.6,4.1
		C102.3,283.4,101.7,285.3,102,287L102,287z"/>
	<path class="st0" d="M78.7,289.6v9.8h-3.4v-24.8c5,0.2,9.8,0.3,14.7,0.8c3.1,0.3,5.8,4.7,5,7.6c-0.3,1-0.7,2.1-1.1,3
		c-1.3,2.9-4.3,3.2-7.1,3.4C84.1,289.8,81.4,289.6,78.7,289.6L78.7,289.6z M78.7,277.7v8.9c2.5,0,5,0,7.4,0c1.3,0,2.5-0.3,3.7-1
		c2.1-1.1,1.7-3,1.4-4.7c-0.1-1.2-1-2.4-2.5-2.5C85.4,278.1,82.1,277.9,78.7,277.7L78.7,277.7z"/>
	<path class="st0" d="M54.2,299.5h-3.4v-24.6H52c3.1,0,6.3-0.1,9.4,0c2.4,0.1,4.9,0.3,6.9,2c1.3,1.1,2.3,2.5,2.4,4.2
		c0.2,2.7-0.6,5-2.7,6.7c-0.6,0.4-1.2,0.6-2,0.8c-1.5,0.3-3.1,0.7-4.6,0.8c-2.3,0.1-4.6,0-7.2,0V299.5L54.2,299.5z M54.2,286.6
		c2.5,0,5-0.1,7.3,0c1.3,0,2.5-0.2,3.8-0.8c1.4-0.7,2-1.9,1.9-3.3c-0.1-1.6-0.3-3-2-3.7c-3.5-1.6-7.3-0.5-11-0.8V286.6L54.2,286.6z"
		/>
	<path class="st0" d="M176.5,275h3.4v1.3c0,5,0,9.8,0,14.8c0,2.5,1,4.4,3.4,5.4c1.2,0.5,2.7,0.5,4.1,0.5c2.4-0.1,4.6-0.8,5.5-3.2
		c0.3-0.8,0.6-1.8,0.6-2.6c0-5,0-9.8,0-14.8V275h3.4c0,0.3,0.1,0.7,0.1,1c0,4.9,0.1,9.7,0,14.6c-0.1,2-0.2,4-1.5,5.8
		c-1.5,2.1-3.9,3.1-6.5,3.2c-2,0.1-4,0-5.9-0.2c-3.1-0.4-5-2.5-5.9-5.6c-1.1-4.1-0.4-8.3-0.6-12.4
		C176.4,279.4,176.5,277.2,176.5,275L176.5,275z"/>
	<path class="st0" d="M61.2,268.1c1.3,0.6,2.5,1.2,3.9,1.9c-0.3,0.6-0.6,1.1-1,1.9c-1.1-0.5-2.2-0.8-3.1-1.5c-1.2-1-2.3-0.8-3.7-0.4
		c-5.8,1.8-11.8-0.5-13.5-6.2c-1-3.3-0.8-6.7,0.9-9.9c1.4-2.6,3.8-4.1,6.9-4.8c3.8-0.8,7,0.2,9.7,2.5c2,1.7,3,4,3.2,6.3
		c0.3,3.1,0,6.1-2.1,8.8C62.1,267.2,61.6,267.7,61.2,268.1L61.2,268.1z M59.2,266.6c0.6-1,1.3-1.9,1.7-2.9c0.3-1.8,0.7-3.5,0.6-5.3
		c-0.2-2.8-1.4-5.1-4.4-6.4c-3.3-1.3-7.3-0.2-8.7,1.7c-2.2,3-2.3,6.3-1.5,9.8c0.9,3.8,6.9,6.1,10.1,4.1c-1-0.3-1.9-0.6-2.8-1
		c0.1-0.2,0.2-0.4,0.3-0.7c0.2-1.3,1.1-1.2,2.1-0.8C57.2,265.5,58.1,266,59.2,266.6L59.2,266.6z"/>
	<path class="st0" d="M252,265.8v-16.7h2.8v21c-1,0-1.9,0.1-2.9,0c-0.4-0.1-0.8-0.5-1-0.9c-3.4-4.8-6.7-9.5-10.1-14.3
		c-0.2-0.3-0.4-0.6-0.8-1.1v16.4h-2.9v-21c0.9,0,1.8-0.1,2.5,0c0.3,0,0.7,0.3,0.9,0.6c3.5,5,7.1,10.1,10.6,15
		C251.3,265.1,251.5,265.3,252,265.8L252,265.8z"/>
	<path class="st0" d="M276.9,262.1h-6.5v-2.5h9.5c0,2.5,0,4.9,0,7.4c0,0.2-0.3,0.5-0.6,0.7c-3.3,2.7-7.3,3.3-11.4,2.7
		c-3.7-0.5-6.5-2.5-7.9-6c-1.4-3.6-1.2-7.2,0.8-10.6c1.5-2.8,4.1-4.2,7.3-4.7c3.1-0.4,5.9,0,8.5,1.7c1.7,1,2.3,2.6,2.8,4.4
		c-0.7,0.1-1.3,0.2-2,0.4s-0.9,0.1-1-0.5c-0.8-4-7.3-4.8-10.6-2.7c-4.6,2.9-4.8,10.8-1,14c1.2,1,2.5,1.3,4,1.6
		c2.7,0.2,5.3,0.1,7.6-1.6c0.2-0.2,0.6-0.4,0.6-0.7C277,264.6,276.9,263.3,276.9,262.1L276.9,262.1z"/>
	<path class="st0" d="M170.5,270.5c-4.4,0.5-9.2-3-10.2-6.8c-1-3.7-0.7-7.4,1.5-10.6c1.7-2.4,4.3-3.5,7.3-3.9c3.3-0.5,6,0.6,8.4,2.3
		c1.9,1.2,2.7,3.1,3.2,5.2c0.1,0.5,0.2,0.9,0.2,1.5c0.7,3.7-0.2,7.2-2.9,9.8C176.2,269.7,173.5,270.9,170.5,270.5L170.5,270.5z
		 M171.1,268.2c2.2-0.3,4.9-1,6-3.9c0.4-1,0.6-2.3,0.8-3.4c0.9-3.3-1.2-8.8-6.2-9.4c-3.2-0.4-6.3,0.7-7.7,3.4
		c-1.1,2.2-1.3,4.4-1.1,6.7C163.4,265.5,166.4,268.2,171.1,268.2L171.1,268.2z"/>
	<path class="st0" d="M23.5,249.1h16v2.4H26.3v6.5h12.4v2.5H26.3v7.2h13.6v2.5H23.3v-21H23.5z"/>
	<path class="st0" d="M152.7,260.3h-11.4v9.8h-3.2v-20.9h3.1v8.5h11.4v-8.6h2.9v21h-2.8V260.3L152.7,260.3z"/>
	<path class="st0" d="M223.9,255.2h-2.5c-0.9-1.1-1.4-2.4-2.4-3c-2.3-1.5-6.4-1.3-8.2,0.9c-1.4,1.9-0.1,3.5,2.1,4
		c2.3,0.6,4.6,0.9,6.9,1.6c2.2,0.7,4,2.1,4.4,4.4s-0.2,4.5-2.5,6c-2.5,1.7-5.4,1.3-8.2,1.1c-0.9-0.1-1.9-0.3-2.8-0.6
		c-2.3-0.9-3.3-2.8-3.9-5c-0.1-0.3-0.1-0.7-0.2-1.1c0.7,0,1.4-0.1,2.1,0c0.3,0.1,0.9,0.4,1,0.7c0.4,2.2,2,3.3,4.1,3.5
		c1.7,0.2,3.5,0.1,5.2-0.2c1.5-0.3,2.8-1.5,2.8-3.1c0-1.3-1.8-2.8-3.5-3.2c-2.3-0.6-4.8-1-7-1.8c-3.9-1.3-4.9-5.6-2.2-8.2
		c2.3-2.3,5.4-2.7,8.6-2.2c2.5,0.5,4.9,1.5,5.9,3.9C223.7,253.7,223.7,254.4,223.9,255.2L223.9,255.2z"/>
	<path class="st0" d="M68.5,249.1h3.2v2.4c0,3.7,0,7.4,0,11.1c0,1,0.2,2.1,0.7,3.1c0.6,1.5,2,2.3,3.7,2.3c1.3,0,2.7,0.1,4-0.2
		c2.3-0.5,3-2.1,3.1-4.8c0.2-4.1,0.1-8.3,0.1-12.4v-1.5h3.1c0,0.2,0.1,0.4,0.1,0.6c0,3.8,0.2,7.7-0.1,11.5c-0.1,2.2,0.1,4.4-1.4,6.3
		c-1.4,1.8-3.2,2.7-5.5,2.8c-1.5,0-3,0.1-4.5-0.1c-3.1-0.4-5-2.2-5.6-5c-0.3-1.2-0.6-2.5-0.6-3.7C68.5,257.5,68.5,253.4,68.5,249.1
		L68.5,249.1z"/>
	<path class="st0" d="M109.5,270c-0.1,0.1-0.1,0.1-0.1,0.1c-2.1,0.1-3.5-0.7-4.2-2.6c-0.1-0.4-0.3-0.8-0.6-1.2
		c-0.3-0.8-0.4-2.1-1.1-2.5c-0.8-0.4-2-0.1-3-0.1c-1.8,0-3.4,0-5.2,0c-0.8,0-1.2,0.2-1.4,0.9c-0.4,1.6-1.2,3-1.7,4.5
		c-0.2,0.8-0.7,1.1-1.5,1c-0.7-0.1-1.2,0-2,0c2.9-7,5.6-14.1,8.4-21.1h3.4C103.5,256.1,106.5,263.1,109.5,270L109.5,270z
		 M98.9,251.7c-1.3,3.4-2.5,6.5-3.8,9.7h7.4C101.3,258.2,100.1,255.1,98.9,251.7L98.9,251.7z"/>
	<path class="st0" d="M185.1,249.1h2.9c0,0.4,0.1,0.8,0.1,1.2c0,3,0,6,0,8.9c0,1.8,0.1,3.4,0.2,5.2c0.1,1.5,2.1,3.7,4.2,3.5
		c1.3-0.1,2.8,0.1,4.1-0.2c2.3-0.5,3-2.2,3.1-4.8c0.2-4.1,0.1-8.3,0.1-12.4v-1.5h2.9v1.1c0,4.5,0,8.9,0,13.5c0,2.7-1.3,4.7-3.8,6
		c-0.7,0.4-1.5,0.6-2.3,0.7c-1.8,0.1-3.7,0.1-5.4-0.1c-4.1-0.6-5.5-3.2-5.8-5.9c-0.2-3.2-0.2-6.5-0.3-9.7
		C185.1,252.8,185.1,251.1,185.1,249.1L185.1,249.1z"/>
	<path class="st0" d="M272.3,299.5h-3.4c0-3.1,0-6.1,0-9.1c0-0.7-0.2-1.5-0.7-2.1c-2.9-4.1-5.9-8.3-8.8-12.5
		c-0.2-0.2-0.3-0.5-0.6-0.8c0.2,0,0.2-0.1,0.3-0.1c4-0.1,4-0.1,6.5,4.1c1.5,2.6,3.4,5,5,7.4c2.5-3.6,5.1-7.3,7.6-10.9
		c0.2-0.3,0.7-0.5,1-0.5c1-0.1,2,0,3.3,0c-1,1.5-2,2.7-2.9,4c-2.3,3.1-4.6,6.3-6.9,9.4c-0.3,0.5-0.6,1.1-0.6,1.8
		C272.3,293.3,272.3,296.4,272.3,299.5L272.3,299.5z"/>
	<path class="st0" d="M164.4,299.5h-3.5v-21.6h-8.6V275h20.6v2.9h-8.4V299.5L164.4,299.5z"/>
	<path class="st0" d="M245.9,277.9h-8.5V275H258v2.9h-8.6v21.7h-3.4V277.9L245.9,277.9z"/>
	<path class="st0" d="M125.8,267.7v2.5h-13.9v-20.9h2.9v18.6L125.8,267.7L125.8,267.7z"/>
	<path class="st0" d="M233,299.5h-3.3V275h3.3V299.5L233,299.5z"/>
	<path class="st0" d="M229,249.1h3v21h-3V249.1L229,249.1z"/>
	<path class="st0" d="M201.9,187.6H98.6v-39.9h103.3V187.6z"/>
	<path class="st0" d="M201.9,141.3H98.3v-39.9h103.1C201.5,114.7,201.7,128,201.9,141.3z"/>
</g>
</svg>
