<svg id="ios-style" xmlns="http://www.w3.org/2000/svg" viewBox="0 0 300 300"><defs><style>.cls-1{fill:#d5d6db;}.cls-2{fill:#fff;}.cls-3{fill:#5ac8fa;}</style></defs><path class="cls-1" d="M133.38,166h-4.75l-7.26,7.26a8.72,8.72,0,0,1-4.39,2.37h6.76Z"/><path class="cls-1" d="M180.34,166h-4.75l9.64,9.63H192a8.76,8.76,0,0,1-4.38-2.38Z"/><path class="cls-1" d="M109,173.25a8.62,8.62,0,0,1-2.44-4.81l-4.83,4.83a8.71,8.71,0,0,1-4.37,2.37h16.06A8.81,8.81,0,0,1,109,173.25Z"/><path class="cls-1" d="M239.53,102.34c.05-.78.09-1.56.09-2.35a35.11,35.11,0,0,0-52.24-30.67,53.77,53.77,0,0,0-106.19,12c0,.3,0,.62,0,.93a47.28,47.28,0,0,0,10.27,93.44h2.27A8.75,8.75,0,0,1,87.4,163.9a8.74,8.74,0,0,1,0-13.28,8.73,8.73,0,0,1,8.14-11.92,8.67,8.67,0,0,1,6.17,2.56l4.83,4.82a8.76,8.76,0,0,1,8.64-7.38,8.72,8.72,0,0,1,6.19,2.56l7.25,7.26h4.75l-14.44-14.45H107.83A8.73,8.73,0,0,1,103.08,118a8.73,8.73,0,0,1,7.2-13.68,8.75,8.75,0,0,1,5,1.53,8.74,8.74,0,0,1,16.07,4.75v11.12l14.44,14.44v-4.75l-7.26-7.26a8.76,8.76,0,0,1,0-12.37,8.66,8.66,0,0,1,4.83-2.45l-4.83-4.84a8.74,8.74,0,0,1,9.37-14.31,8.73,8.73,0,0,1,13.28,0,8.52,8.52,0,0,1,3.18-.6,8.74,8.74,0,0,1,6.18,14.92l-4.82,4.83a8.74,8.74,0,0,1,4.82,14.82l-7.26,7.26v4.74l14.44-14.43V110.6a8.74,8.74,0,0,1,16.07-4.75A8.74,8.74,0,0,1,205.9,118a8.74,8.74,0,0,1-4.75,16.07H190l-14.44,14.45h4.75l7.26-7.26a8.73,8.73,0,0,1,14.81,4.84l4.83-4.84a8.74,8.74,0,0,1,14.33,9.36,8.74,8.74,0,0,1,0,13.28,8.74,8.74,0,0,1-6.37,11.74h11.16a37.83,37.83,0,0,0,13.16-73.3Z"/><path class="cls-1" d="M207.23,173.25l-4.82-4.81a8.73,8.73,0,0,1-6.82,7.2h16A8.78,8.78,0,0,1,207.23,173.25Z"/><path class="cls-2" d="M219.6,157.27a3.72,3.72,0,0,0-3.72-3.72h-3.32l3.5-3.49a3.72,3.72,0,0,0,0-5.25,3.81,3.81,0,0,0-5.25,0l-8.73,8.74h-9.15l3.48-3.49a3.71,3.71,0,0,0,0-5.25,3.79,3.79,0,0,0-5.24,0l-8.74,8.74h-19L188,129h13.2a3.71,3.71,0,1,0,0-7.41h-5.77l5.94-5.95a3.73,3.73,0,0,0,0-5.25,3.82,3.82,0,0,0-5.26,0l-5.93,5.94V110.6a3.72,3.72,0,0,0-7.43,0v13.2l-24.5,24.49v-19l8.74-8.74a3.71,3.71,0,0,0,0-5.25,3.8,3.8,0,0,0-5.26,0l-3.48,3.48v-9.13l8.74-8.75a3.73,3.73,0,0,0,0-5.25,3.84,3.84,0,0,0-5.26,0l-3.48,3.48v-3.3a3.72,3.72,0,1,0-7.43,0v3.31l-3.49-3.49a3.79,3.79,0,0,0-5.24,0,3.71,3.71,0,0,0,0,5.24l8.73,8.75v9.14l-3.49-3.49a3.77,3.77,0,0,0-5.24,0,3.71,3.71,0,0,0,0,5.25l8.73,8.74v19l-24.5-24.49V110.6a3.71,3.71,0,1,0-7.42,0v5.78l-5.95-5.95a3.79,3.79,0,0,0-5.24,0,3.71,3.71,0,0,0,0,5.25l5.94,5.95h-5.77a3.71,3.71,0,1,0,0,7.41H121l24.49,24.51h-19l-8.73-8.74a3.81,3.81,0,0,0-5.25,0,3.71,3.71,0,0,0,0,5.25l3.49,3.49h-9.15l-8.74-8.74a3.81,3.81,0,0,0-5.25,0,3.73,3.73,0,0,0,0,5.25l3.48,3.49H93.09a3.72,3.72,0,0,0,0,7.43H96.4l-3.48,3.48a3.73,3.73,0,0,0,0,5.25,3.8,3.8,0,0,0,5.25,0l8.74-8.73h9.14l-3.48,3.48a3.71,3.71,0,0,0,0,5.24,3.85,3.85,0,0,0,5.26,0l8.73-8.73h19L121,185.47h-13.2a3.72,3.72,0,1,0,0,7.43h5.77l-5.94,5.94a3.68,3.68,0,0,0-1.09,2.62,3.73,3.73,0,0,0,1.09,2.64,3.8,3.8,0,0,0,5.24,0l5.95-5.95v5.77a3.71,3.71,0,1,0,7.42,0v-13.2l24.5-24.5v19L142,193.93a3.71,3.71,0,0,0,0,5.24,3.78,3.78,0,0,0,5.24,0l3.49-3.48v9.15L142,213.58a3.71,3.71,0,0,0,0,5.24,3.79,3.79,0,0,0,5.25,0l3.49-3.49v3.32a3.72,3.72,0,1,0,7.43,0v-3.32l3.48,3.48a3.85,3.85,0,0,0,5.26,0,3.71,3.71,0,0,0,0-5.25l-8.74-8.74V195.7l3.48,3.47a3.85,3.85,0,0,0,5.26,0,3.72,3.72,0,0,0,0-5.24l-8.74-8.73v-19l24.5,24.5v13.2a3.72,3.72,0,1,0,7.43,0v-5.76l5.93,5.94a3.84,3.84,0,0,0,5.26,0,3.71,3.71,0,0,0,0-5.25l-5.94-5.94h5.77a3.72,3.72,0,0,0,0-7.43H188L163.45,161h19l8.73,8.73a3.8,3.8,0,0,0,5.25,0,3.71,3.71,0,0,0,0-5.25L192.92,161h9.15l8.73,8.73a3.85,3.85,0,0,0,5.26,0,3.68,3.68,0,0,0,1.08-2.63,3.64,3.64,0,0,0-1.09-2.62L212.57,161h3.31A3.72,3.72,0,0,0,219.6,157.27Z"/><path class="cls-1" d="M56.32,239.33a6.64,6.64,0,0,1-3.79-1.17,6.72,6.72,0,0,1-1.74-9.33L76,192.08a6.71,6.71,0,1,1,11.07,7.58L61.86,236.42A6.68,6.68,0,0,1,56.32,239.33Z"/><path class="cls-1" d="M213,239.33a6.64,6.64,0,0,1-3.79-1.17,6.71,6.71,0,0,1-1.74-9.33l25.22-36.75a6.71,6.71,0,1,1,11.07,7.58l-25.22,36.76A6.68,6.68,0,0,1,213,239.33Z"/><path class="cls-3" d="M81.91,262.42a6.71,6.71,0,0,1-5.49-10.56l22.93-32.74a6.71,6.71,0,1,1,11,7.69L87.42,259.56A6.7,6.7,0,0,1,81.91,262.42Z"/><path class="cls-1" d="M127.52,257.35A6.7,6.7,0,0,1,122,246.79L132,232.62a6.71,6.71,0,1,1,11,7.7L133,254.49A6.71,6.71,0,0,1,127.52,257.35Z"/><path class="cls-3" d="M161.21,267.94a6.72,6.72,0,0,1-5.55-10.48l20.61-30.4a6.71,6.71,0,0,1,11.11,7.53L166.77,265A6.72,6.72,0,0,1,161.21,267.94Z"/><path class="cls-2" d="M55.62,250.49a9.91,9.91,0,1,1-9.91-9.91A9.91,9.91,0,0,1,55.62,250.49Z"/><path class="cls-2" d="M124.17,265.31a7.19,7.19,0,1,1-7.19-7.2A7.19,7.19,0,0,1,124.17,265.31Z"/><path class="cls-2" d="M210.35,248.61a8,8,0,1,1-8-8A8,8,0,0,1,210.35,248.61Z"/></svg>