<svg id="ios-style" xmlns="http://www.w3.org/2000/svg" viewBox="0 0 300 300"><defs><style>.cls-1{fill:#d5d6db;}.cls-2{fill:#fff;}</style></defs><path class="cls-1" d="M70.55,87c0-.34,0-.67,0-1A58.53,58.53,0,0,1,186.13,73,38.23,38.23,0,0,1,243,106.4c0,.87,0,1.72-.1,2.57a41.17,41.17,0,0,1-14.32,79.77H81.73A51.47,51.47,0,0,1,70.55,87Zm0,0"/><path class="cls-1" d="M71.09,233.32a6.9,6.9,0,0,1-5.65-10.87l17.45-24.93a6.91,6.91,0,0,1,11.32,7.93L76.75,230.37A6.9,6.9,0,0,1,71.09,233.32Z"/><path class="cls-1" d="M118.63,226A6.9,6.9,0,0,1,113,215.16l6.38-9.12A6.91,6.91,0,0,1,130.68,214l-6.38,9.11A6.92,6.92,0,0,1,118.63,226Z"/><path class="cls-1" d="M158.71,242.89A6.9,6.9,0,0,1,153.06,232l22.52-32.16a6.91,6.91,0,1,1,11.32,7.92l-22.53,32.16A6.89,6.89,0,0,1,158.71,242.89Z"/><path class="cls-1" d="M204.73,232.43a6.91,6.91,0,0,1-5.65-10.87l9.76-13.94a6.91,6.91,0,0,1,11.32,7.93l-9.76,13.93A6.92,6.92,0,0,1,204.73,232.43Z"/><path class="cls-2" d="M70.58,244.77a10.1,10.1,0,1,1-10.09-10.1A10.09,10.09,0,0,1,70.58,244.77Z"/><path class="cls-2" d="M203.25,244.77a8.61,8.61,0,1,1-8.61-8.62A8.61,8.61,0,0,1,203.25,244.77Z"/><path class="cls-2" d="M133.38,251.24a13.51,13.51,0,1,1,3.32,18.82A13.51,13.51,0,0,1,133.38,251.24Z"/><path class="cls-2" d="M115.07,233.67a6.56,6.56,0,1,1-6.56-6.56A6.56,6.56,0,0,1,115.07,233.67Z"/></svg>