<svg id="ios-style" xmlns="http://www.w3.org/2000/svg" viewBox="0 0 300 300"><defs><style>.cls-1{fill:#5ac8fa;}.cls-2{fill:#d5d6db;}</style></defs><path class="cls-1" d="M170.53,265.55a7.66,7.66,0,0,1-6.31-12l28.82-42a7.67,7.67,0,1,1,12.65,8.67l-28.82,42A7.66,7.66,0,0,1,170.53,265.55Z"/><path class="cls-1" d="M134.75,251.69a7.67,7.67,0,0,1-6.28-12.07l22-31.3a7.67,7.67,0,0,1,12.57,8.8l-22,31.3A7.66,7.66,0,0,1,134.75,251.69Z"/><path class="cls-1" d="M83.35,267.34a7.67,7.67,0,0,1-6.28-12.07l22-31.29a7.67,7.67,0,1,1,12.56,8.79l-22,31.3A7.63,7.63,0,0,1,83.35,267.34Z"/><path class="cls-1" d="M219.55,259.68a7.59,7.59,0,0,1-4.3-1.33,7.67,7.67,0,0,1-2.05-10.65l10.79-16a7.67,7.67,0,0,1,12.7,8.6l-10.79,16A7.66,7.66,0,0,1,219.55,259.68Z"/><path class="cls-1" d="M57.78,242.18a7.67,7.67,0,0,1-6.35-12l13.62-20a7.67,7.67,0,1,1,12.69,8.61l-13.61,20A7.65,7.65,0,0,1,57.78,242.18Z"/><path class="cls-2" d="M68.71,93.57c0-.35,0-.7,0-1A59.88,59.88,0,0,1,187,79.23a39.09,39.09,0,0,1,58.17,34.15c0,.88,0,1.76-.09,2.62a42.13,42.13,0,0,1-14.66,81.62H80.15a52.65,52.65,0,0,1-11.44-104Zm0,0"/></svg>