<svg id="ios-style" xmlns="http://www.w3.org/2000/svg" viewBox="0 0 300 300"><defs><style>.cls-1{fill:#d5d6db;}.cls-2{fill:#fff;}</style></defs><path class="cls-1" d="M70.7,87.15c0-.34,0-.67,0-1a58.41,58.41,0,0,1,115.37-13,38.14,38.14,0,0,1,56.75,33.31c0,.87,0,1.72-.09,2.56a41.1,41.1,0,0,1-14.3,79.63H81.86A51.37,51.37,0,0,1,70.7,87.15Zm0,0"/><path class="cls-1" d="M71.24,233.16a6.8,6.8,0,0,1-3.95-1.25,6.9,6.9,0,0,1-1.7-9.6L83,197.43a6.89,6.89,0,0,1,11.29,7.91L76.89,230.22A6.87,6.87,0,0,1,71.24,233.16Z"/><path class="cls-1" d="M118.69,225.88A6.89,6.89,0,0,1,113.05,215l6.37-9.09a6.89,6.89,0,0,1,11.29,7.91l-6.37,9.09A6.87,6.87,0,0,1,118.69,225.88Z"/><path class="cls-1" d="M158.69,242.71a6.89,6.89,0,0,1-5.64-10.85l22.48-32.1a6.9,6.9,0,0,1,11.3,7.91l-22.48,32.1A6.88,6.88,0,0,1,158.69,242.71Z"/><path class="cls-1" d="M204.63,232.27A6.89,6.89,0,0,1,199,221.42l9.74-13.91A6.89,6.89,0,0,1,220,215.42l-9.74,13.91A6.87,6.87,0,0,1,204.63,232.27Z"/><path class="cls-2" d="M70.73,244.59a10.08,10.08,0,1,1-10.07-10.08A10.07,10.07,0,0,1,70.73,244.59Z"/><path class="cls-2" d="M203.15,244.59a8.6,8.6,0,1,1-8.59-8.6A8.58,8.58,0,0,1,203.15,244.59Z"/><path class="cls-2" d="M133.41,251a13.49,13.49,0,1,1,3.32,18.79A13.5,13.5,0,0,1,133.41,251Z"/><path class="cls-2" d="M115.14,233.51a6.55,6.55,0,1,1-6.55-6.55A6.55,6.55,0,0,1,115.14,233.51Z"/></svg>