<svg id="ios-style" xmlns="http://www.w3.org/2000/svg" viewBox="0 0 300 300"><defs><style>.cls-1{fill:#5ac8fa;}.cls-2{fill:#d5d6db;}</style></defs><path class="cls-1" d="M44.31,255.82a7.47,7.47,0,0,1-6.11-11.75l30.05-42.91a7.47,7.47,0,1,1,12.24,8.57l-30,42.91A7.47,7.47,0,0,1,44.31,255.82Z"/><path class="cls-1" d="M72,272.22a7.47,7.47,0,0,1-6.12-11.76l41.53-59.3a7.47,7.47,0,1,1,12.24,8.57L78.14,269A7.45,7.45,0,0,1,72,272.22Z"/><path class="cls-1" d="M124,255.82a7.46,7.46,0,0,1-6.11-11.75l30-42.91a7.47,7.47,0,1,1,12.24,8.57l-30,42.91A7.49,7.49,0,0,1,124,255.82Z"/><path class="cls-1" d="M205,255.82a7.47,7.47,0,0,1-6.12-11.75l30-42.91a7.47,7.47,0,1,1,12.24,8.57l-30.05,42.91A7.46,7.46,0,0,1,205,255.82Z"/><path class="cls-1" d="M153,272.22a7.47,7.47,0,0,1-6.11-11.76l41.53-59.3a7.47,7.47,0,1,1,12.23,8.57L159.11,269A7.45,7.45,0,0,1,153,272.22Z"/><path class="cls-2" d="M71.12,86.89c0-.34,0-.68,0-1A58.1,58.1,0,0,1,185.86,73a37.93,37.93,0,0,1,56.45,33.13c0,.86,0,1.71-.09,2.55A40.88,40.88,0,0,1,228,187.86H82.22a51.1,51.1,0,0,1-11.1-101Zm0,0"/></svg>