<svg id="ios-style" xmlns="http://www.w3.org/2000/svg" viewBox="0 0 300 300"><defs><style>.cls-1{fill:#fff;}</style></defs><path class="cls-1" d="M240,150a4.81,4.81,0,0,0-4.8-4.8h-5.47l5.46-5.46a4.78,4.78,0,0,0,0-6.76,4.91,4.91,0,0,0-6.78,0L216.17,145.2H202.46l5.45-5.45a4.8,4.8,0,0,0,0-6.77,4.9,4.9,0,0,0-6.77,0L188.92,145.2H161.56l34.73-34.72h18.46a4.79,4.79,0,1,0,0-9.57h-8.87L214.73,92a4.79,4.79,0,0,0,0-6.77,4.9,4.9,0,0,0-6.78,0l-8.86,8.85V85.25a4.8,4.8,0,1,0-9.59,0v18.46l-34.7,34.71V111.08L167,98.85a4.79,4.79,0,0,0,0-6.77,4.89,4.89,0,0,0-6.78,0l-5.44,5.45V83.82L167,71.58a4.79,4.79,0,0,0,0-6.77,4.92,4.92,0,0,0-6.78,0l-5.44,5.44V64.8a4.8,4.8,0,0,0-9.6,0v5.46l-5.46-5.45a4.9,4.9,0,0,0-6.76,0,4.77,4.77,0,0,0,0,6.76L145.2,83.83v13.7l-5.45-5.45a4.88,4.88,0,0,0-6.77,0,4.79,4.79,0,0,0,0,6.77l12.22,12.23v27.34l-34.72-34.71V85.25a4.79,4.79,0,1,0-9.57,0v8.88L92,85.27a4.9,4.9,0,0,0-6.76,0,4.78,4.78,0,0,0,0,6.78l8.85,8.87H85.25a4.79,4.79,0,1,0,0,9.57h18.46l34.71,34.72H111.08L98.85,133a4.9,4.9,0,0,0-6.77,0,4.77,4.77,0,0,0,0,6.77l5.45,5.45H83.82L71.58,133a4.9,4.9,0,0,0-6.77,0,4.79,4.79,0,0,0,0,6.76l5.45,5.46H64.8a4.8,4.8,0,1,0,0,9.6h5.46l-5.44,5.44a4.81,4.81,0,0,0,0,6.78,4.89,4.89,0,0,0,6.77,0L83.82,154.8H97.53l-5.45,5.44a4.78,4.78,0,0,0,0,6.77,4.94,4.94,0,0,0,6.78,0l12.23-12.22h27.34l-34.71,34.7H85.25a4.8,4.8,0,1,0,0,9.59h8.87L85.27,208a4.72,4.72,0,0,0-1.41,3.39,4.78,4.78,0,0,0,1.41,3.4,4.91,4.91,0,0,0,6.76,0l8.88-8.86v8.87a4.79,4.79,0,1,0,9.57,0V196.29l34.72-34.73v27.36L133,201.14a4.79,4.79,0,0,0,0,6.77,4.9,4.9,0,0,0,6.76,0l5.46-5.45v13.72L133,228.4a4.8,4.8,0,0,0,0,6.77,4.88,4.88,0,0,0,6.78,0l5.45-5.46v5.49a4.8,4.8,0,0,0,9.6,0v-5.48l5.43,5.45a4.85,4.85,0,0,0,3.4,1.41A4.8,4.8,0,0,0,167,228.4L154.8,216.18V202.47l5.44,5.44a5,5,0,0,0,6.78,0,4.79,4.79,0,0,0,0-6.77L154.8,188.92V161.56l34.7,34.73v18.46a4.8,4.8,0,1,0,9.59,0v-8.87l8.86,8.86a4.8,4.8,0,0,0,6.78,0,4.79,4.79,0,0,0,0-6.79l-8.85-8.86h8.87a4.8,4.8,0,1,0,0-9.59H196.29l-34.73-34.7h27.36L201.14,167a4.89,4.89,0,0,0,6.77,0,4.8,4.8,0,0,0,0-6.78l-5.44-5.44h13.7L228.4,167a4.94,4.94,0,0,0,6.78,0,4.8,4.8,0,0,0,0-6.78l-5.45-5.44h5.47A4.8,4.8,0,0,0,240,150Z"/></svg>