<svg id="ios-style" xmlns="http://www.w3.org/2000/svg" viewBox="0 0 300 300"><defs><style>.cls-1{fill:#d5d6db;}.cls-2{fill:#fff;}</style></defs><path class="cls-1" d="M128.13,173.57h-5l-7.63,7.62a9.2,9.2,0,0,1-4.62,2.5H118Z"/><path class="cls-1" d="M177.47,173.57h-5l10.12,10.12h7.09a9.13,9.13,0,0,1-4.61-2.51Z"/><path class="cls-1" d="M102.51,181.17a9.11,9.11,0,0,1-2.56-5l-5.08,5.07a9.2,9.2,0,0,1-4.58,2.49h16.86A9.27,9.27,0,0,1,102.51,181.17Z"/><path class="cls-1" d="M239.66,106.68c.05-.82.09-1.64.09-2.47A36.9,36.9,0,0,0,184.87,72,56.49,56.49,0,0,0,73.3,84.54c0,.32,0,.65,0,1A49.68,49.68,0,0,0,84.1,183.69h2.39a9.07,9.07,0,0,1-4.61-2.52,9.19,9.19,0,0,1-2-9.82,9.17,9.17,0,0,1,0-13.95,9.18,9.18,0,0,1,15-9.84l5.08,5.07a9.2,9.2,0,0,1,15.57-5.07l7.63,7.63h5L113,140H101.29a9.18,9.18,0,0,1-5-16.89,9.18,9.18,0,0,1,12.77-12.76,9.17,9.17,0,0,1,16.88,5V127l15.18,15.17v-5l-7.63-7.63a9.2,9.2,0,0,1,0-13,9,9,0,0,1,5.07-2.58l-5.08-5.08a9.19,9.19,0,0,1,9.85-15,9.17,9.17,0,0,1,13.94,0,9.27,9.27,0,0,1,3.35-.63,9.19,9.19,0,0,1,6.5,15.67L162.06,114a9.19,9.19,0,0,1,5.07,15.57l-7.63,7.63v5L174.66,127V115.36a9.18,9.18,0,0,1,16.89-5,9.19,9.19,0,0,1,12.77,12.77,9.18,9.18,0,0,1-5,16.89H187.65l-15.17,15.17h5l7.63-7.62a9.17,9.17,0,0,1,15.56,5.08l5.08-5.09a9.18,9.18,0,0,1,15,9.84,9.17,9.17,0,0,1,0,13.95,9,9,0,0,1,.63,3.35,9.19,9.19,0,0,1-7.31,9h11.72a39.75,39.75,0,0,0,13.83-77Z"/><path class="cls-1" d="M205.72,181.17l-5.06-5a9.18,9.18,0,0,1-7.17,7.57h16.87A9.19,9.19,0,0,1,205.72,181.17Z"/><path class="cls-2" d="M218.72,164.38a3.91,3.91,0,0,0-3.91-3.9h-3.48l3.67-3.67a3.91,3.91,0,0,0,0-5.51,4,4,0,0,0-5.52,0l-9.17,9.18h-9.61l3.66-3.67a3.91,3.91,0,0,0,0-5.51,4,4,0,0,0-5.5,0l-9.18,9.18H159.72l25.75-25.75h13.86a3.9,3.9,0,1,0,0-7.79h-6.06l6.24-6.25a3.9,3.9,0,0,0,0-5.51,4,4,0,0,0-5.52,0l-6.24,6.24v-6.06a3.9,3.9,0,0,0-7.8,0v13.86L154.22,155V135l9.17-9.18a3.9,3.9,0,0,0,0-5.51,4,4,0,0,0-5.52,0L154.22,124v-9.61l9.17-9.18a3.9,3.9,0,0,0,0-5.51,4,4,0,0,0-5.52,0l-3.65,3.65V99.88a3.91,3.91,0,1,0-7.81,0v3.48l-3.67-3.66a4,4,0,0,0-5.51,0,3.92,3.92,0,0,0,0,5.51l9.18,9.18V124l-3.67-3.66a4,4,0,0,0-5.51,0,3.9,3.9,0,0,0,0,5.51l9.18,9.18V155l-25.74-25.74V115.36a3.9,3.9,0,1,0-7.8,0v6.06l-6.25-6.24a4,4,0,0,0-5.5,0,3.86,3.86,0,0,0-1.15,2.75,3.91,3.91,0,0,0,1.14,2.76l6.24,6.25h-6.06a3.9,3.9,0,1,0,0,7.79h13.87l25.73,25.75H121l-9.17-9.18a4,4,0,0,0-5.52,0,3.9,3.9,0,0,0,0,5.51l3.67,3.67h-9.61l-9.19-9.18a4,4,0,0,0-5.51,0,3.9,3.9,0,0,0,0,5.51l3.66,3.67H85.81a3.91,3.91,0,0,0,0,7.81h3.47l-3.65,3.65a3.9,3.9,0,0,0,0,5.51,4,4,0,0,0,5.51,0l9.19-9.17h9.6l-3.66,3.65a3.91,3.91,0,0,0,0,5.51,4,4,0,0,0,5.53,0l9.17-9.17h19.93L115.16,194H101.29a3.91,3.91,0,0,0,0,7.81h6.06l-6.23,6.24a3.84,3.84,0,0,0-1.15,2.75,3.89,3.89,0,0,0,1.15,2.77,4,4,0,0,0,5.5,0l6.25-6.24v6.06a3.9,3.9,0,1,0,7.8,0V199.53l25.74-25.74v19.94l-9.18,9.18a3.91,3.91,0,0,0,0,5.5,4,4,0,0,0,5.51,0l3.67-3.66v9.62l-9.18,9.17a3.91,3.91,0,0,0-1.14,2.76,3.86,3.86,0,0,0,1.14,2.75,4,4,0,0,0,5.51,0l3.67-3.67v3.5a3.91,3.91,0,0,0,7.81,0V225.4l3.64,3.66a4,4,0,0,0,5.53,0,3.91,3.91,0,0,0,0-5.52l-9.17-9.17v-9.61l3.65,3.65a4,4,0,0,0,5.52,0,3.9,3.9,0,0,0,0-5.51l-9.17-9.17V173.79L180,199.53V213.4a3.9,3.9,0,0,0,7.8,0v-6.06l6.24,6.24a4,4,0,0,0,5.52,0,3.91,3.91,0,0,0,0-5.52l-6.24-6.24h6.06a3.91,3.91,0,0,0,0-7.81H185.47l-25.74-25.72h19.93l9.17,9.17a4,4,0,0,0,5.51,0,3.9,3.9,0,0,0,0-5.52l-3.66-3.65h9.61l9.17,9.16a4,4,0,0,0,5.52,0,3.89,3.89,0,0,0,0-5.52l-3.66-3.65h3.48A3.92,3.92,0,0,0,218.72,164.38Z"/><path class="cls-2" d="M82.65,211.41a.79.79,0,0,0-.79-.79h-.7l.74-.74a.78.78,0,0,0,0-1.11.82.82,0,0,0-1.11,0l-1.85,1.85H77l.74-.74a.78.78,0,0,0,0-1.11.82.82,0,0,0-1.11,0l-1.85,1.85h-4L76,205.43h2.79a.78.78,0,1,0,0-1.56H77.52l1.26-1.26a.78.78,0,0,0,0-1.11.8.8,0,0,0-1.11,0l-1.26,1.25v-1.22a.79.79,0,0,0-1.57,0v2.8l-5.18,5.18v-4l1.84-1.85a.8.8,0,0,0,0-1.12.82.82,0,0,0-1.11,0l-.73.74v-1.93l1.84-1.85a.78.78,0,0,0,0-1.11.8.8,0,0,0-1.11,0l-.73.73v-.7a.79.79,0,0,0-1.58,0v.7l-.74-.73a.78.78,0,1,0-1.11,1.11l1.85,1.85v1.93l-.74-.74a.78.78,0,1,0-1.1,1.12l1.84,1.85v4l-5.18-5.19v-2.79a.79.79,0,0,0-.79-.78.78.78,0,0,0-.78.78v1.22l-1.26-1.25a.8.8,0,0,0-1.11,0,.75.75,0,0,0-.23.55.79.79,0,0,0,.23.56l1.26,1.26H59a.78.78,0,0,0,0,1.56h2.8L67,210.62H63l-1.85-1.85a.82.82,0,0,0-1.11,0,.79.79,0,0,0-.23.56.76.76,0,0,0,.23.55l.74.74H58.8L57,208.77a.82.82,0,0,0-1.11,0,.78.78,0,0,0,0,1.11l.74.74h-.71a.79.79,0,0,0,0,1.57h.7l-.73.74a.79.79,0,0,0-.23.56.76.76,0,0,0,.23.55A.8.8,0,0,0,57,214l1.85-1.85h1.93l-.73.74a.79.79,0,0,0-.23.56A.8.8,0,0,0,60,214a.83.83,0,0,0,1.12,0L63,212.19h4l-5.18,5.19H59A.79.79,0,0,0,59,219h1.23L59,220.21a.75.75,0,0,0-.23.55.79.79,0,0,0,.23.56.81.81,0,0,0,1.11,0l1.26-1.26v1.22a.78.78,0,0,0,.78.79.79.79,0,0,0,.79-.79v-2.79l5.18-5.19v4l-1.85,1.85a.8.8,0,0,0,0,1.11.81.81,0,0,0,1.11,0l.74-.74v1.94l-1.84,1.85a.76.76,0,0,0-.24.55.83.83,0,0,0,.23.56.81.81,0,0,0,1.11,0l.74-.74v.7a.79.79,0,1,0,1.58,0v-.7l.73.74a.82.82,0,0,0,1.11,0,.79.79,0,0,0,.23-.56.75.75,0,0,0-.23-.55l-1.84-1.85v-1.94l.73.74a.82.82,0,0,0,1.11,0,.78.78,0,0,0,0-1.11l-1.84-1.85v-4l5.18,5.19v2.79a.79.79,0,1,0,1.57,0v-1.22l1.26,1.26a.82.82,0,0,0,1.11,0,.79.79,0,0,0,.23-.56.76.76,0,0,0-.23-.55L77.52,219h1.22a.79.79,0,1,0,0-1.57H76l-5.18-5.19h4L76.63,214a.8.8,0,0,0,1.11,0,.76.76,0,0,0,.23-.55.79.79,0,0,0-.23-.56l-.74-.74h1.94L80.79,214a.81.81,0,0,0,1.11,0,.76.76,0,0,0,.23-.55.79.79,0,0,0-.23-.56l-.74-.74h.7A.78.78,0,0,0,82.65,211.41Z"/><path class="cls-2" d="M124.28,247.52a.79.79,0,0,0-.78-.79h-.71l.74-.74a.77.77,0,0,0,0-1.1.8.8,0,0,0-1.11,0l-1.85,1.84h-1.93l.73-.74a.77.77,0,0,0,0-1.1.8.8,0,0,0-1.11,0l-1.84,1.84h-4l5.18-5.18h2.8a.79.79,0,0,0,.78-.79.78.78,0,0,0-.78-.78h-1.22l1.25-1.26a.78.78,0,0,0,0-1.11.8.8,0,0,0-1.11,0L118,238.87v-1.23a.78.78,0,0,0-.78-.78.79.79,0,0,0-.79.78v2.8l-5.18,5.18v-4l1.85-1.85a.79.79,0,0,0,.23-.56.76.76,0,0,0-.23-.55.81.81,0,0,0-1.12,0l-.73.74v-1.94l1.85-1.85a.8.8,0,0,0,0-1.11.81.81,0,0,0-1.12,0l-.73.74v-.7a.79.79,0,1,0-1.57,0v.7l-.74-.74a.8.8,0,0,0-1.11,0,.78.78,0,0,0,0,1.11l1.85,1.85v1.94l-.74-.74a.8.8,0,0,0-1.11,0,.76.76,0,0,0-.23.55.79.79,0,0,0,.23.56l1.85,1.85v4l-5.19-5.18v-2.8a.79.79,0,0,0-1.57,0v1.23l-1.26-1.26a.8.8,0,0,0-1.11,0,.76.76,0,0,0-.23.55.79.79,0,0,0,.23.56l1.26,1.26h-1.22a.78.78,0,0,0-.79.78.79.79,0,0,0,.79.79h2.79l5.18,5.18h-4l-1.85-1.84a.8.8,0,0,0-1.11,0,.77.77,0,0,0,0,1.1l.74.74h-1.94l-1.85-1.84a.8.8,0,0,0-1.11,0,.78.78,0,0,0,0,1.1l.74.74h-.7a.79.79,0,0,0,0,1.58h.7l-.74.73a.79.79,0,0,0-.23.56.75.75,0,0,0,.23.55.8.8,0,0,0,1.11,0l1.85-1.84h1.94l-.74.73a.79.79,0,0,0-.23.56.75.75,0,0,0,.23.55.8.8,0,0,0,1.11,0l1.85-1.84h4l-5.18,5.18h-2.79a.79.79,0,1,0,0,1.57h1.22l-1.26,1.26a.78.78,0,0,0,0,1.11.8.8,0,0,0,1.11,0l1.26-1.25v1.22a.79.79,0,0,0,1.57,0v-2.8l5.19-5.18v4l-1.85,1.85a.78.78,0,0,0,0,1.11.8.8,0,0,0,1.11,0l.74-.74v1.94l-1.85,1.85a.78.78,0,0,0,0,1.11.8.8,0,0,0,1.11,0l.74-.74v.71a.79.79,0,0,0,1.57,0v-.71l.73.74a.83.83,0,0,0,1.12,0,.78.78,0,0,0,0-1.11l-1.85-1.85v-1.93l.74.73a.82.82,0,0,0,1.11,0,.8.8,0,0,0,0-1.11l-1.85-1.85v-4l5.18,5.18v2.8a.79.79,0,0,0,.79.78.78.78,0,0,0,.78-.78v-1.22l1.26,1.25a.8.8,0,0,0,1.11,0,.76.76,0,0,0,.23-.55.79.79,0,0,0-.23-.56l-1.25-1.26h1.22a.79.79,0,0,0,0-1.57h-2.8l-5.18-5.18h4l1.84,1.84a.8.8,0,0,0,1.11,0,.75.75,0,0,0,.23-.55.79.79,0,0,0-.23-.56l-.73-.73h1.93l1.85,1.84a.8.8,0,0,0,1.11,0,.75.75,0,0,0,.23-.55.79.79,0,0,0-.23-.56l-.73-.73h.7A.79.79,0,0,0,124.28,247.52Z"/><path class="cls-2" d="M184.59,258.17a.79.79,0,0,0-.79-.79h-.7l.74-.74a.78.78,0,0,0,0-1.11.8.8,0,0,0-1.11,0l-1.85,1.85h-1.94l.74-.74a.78.78,0,0,0,0-1.11.8.8,0,0,0-1.11,0l-1.85,1.85h-4l5.18-5.19h2.8a.78.78,0,0,0,.78-.78.79.79,0,0,0-.78-.79h-1.23l1.26-1.26a.77.77,0,0,0,0-1.1.8.8,0,0,0-1.11,0l-1.26,1.25v-1.22a.79.79,0,1,0-1.57,0v2.79l-5.18,5.19v-4l1.84-1.85a.76.76,0,0,0,.24-.55.8.8,0,0,0-.24-.56.82.82,0,0,0-1.11,0l-.73.74V248.1l1.84-1.85a.79.79,0,0,0,0-1.12.81.81,0,0,0-1.11,0l-.73.73v-.7a.79.79,0,0,0-1.58,0v.7l-.74-.73a.78.78,0,0,0-1.1,1.11L170,248.1V250l-.73-.74a.82.82,0,0,0-1.11,0,.8.8,0,0,0-.24.56.76.76,0,0,0,.24.55l1.84,1.85v4l-5.18-5.19v-2.79a.8.8,0,0,0-.79-.79.79.79,0,0,0-.78.79v1.22L162,248.26a.81.81,0,0,0-1.11,0,.8.8,0,0,0,0,1.12l1.25,1.25h-1.22a.79.79,0,0,0-.78.79.78.78,0,0,0,.78.78h2.8l5.18,5.19h-4l-1.85-1.85a.8.8,0,0,0-1.11,0,.79.79,0,0,0-.23.56.76.76,0,0,0,.23.55l.74.74h-1.94l-1.85-1.85a.8.8,0,0,0-1.11,0,.78.78,0,0,0,0,1.11l.74.74h-.71a.79.79,0,0,0,0,1.57h.71l-.74.74a.77.77,0,0,0-.23.56.78.78,0,0,0,.23.55.8.8,0,0,0,1.11,0l1.85-1.85h1.93l-.73.74a.78.78,0,0,0,0,1.11.82.82,0,0,0,1.11,0L164.9,259h4l-5.18,5.19h-2.8a.78.78,0,0,0-.78.78.79.79,0,0,0,.78.79h1.22L160.9,267a.75.75,0,0,0-.23.55.79.79,0,0,0,.23.56.81.81,0,0,0,1.11,0l1.26-1.26V268a.78.78,0,0,0,.78.79.79.79,0,0,0,.79-.79v-2.79l5.18-5.19v4l-1.84,1.85a.78.78,0,0,0,0,1.11.79.79,0,0,0,1.1,0l.74-.74v1.94l-1.84,1.84a.8.8,0,0,0-.24.56.83.83,0,0,0,.23.56.81.81,0,0,0,1.11,0l.74-.74v.7a.79.79,0,0,0,1.58,0v-.7l.73.74a.82.82,0,0,0,1.11,0,.77.77,0,0,0,0-1.12l-1.84-1.84V266.3l.73.74a.82.82,0,0,0,1.11,0,.78.78,0,0,0,0-1.11l-1.84-1.85v-4l5.18,5.19V268a.79.79,0,1,0,1.57,0v-1.22l1.26,1.26a.82.82,0,0,0,1.11,0,.79.79,0,0,0,.23-.56.75.75,0,0,0-.23-.55l-1.25-1.26h1.22a.79.79,0,0,0,.78-.79.78.78,0,0,0-.78-.78h-2.8L172.71,259h4l1.85,1.85a.8.8,0,0,0,1.11,0,.78.78,0,0,0,.23-.55.77.77,0,0,0-.23-.56L179,259h1.93l1.85,1.85a.82.82,0,0,0,1.11,0,.78.78,0,0,0,.23-.55.77.77,0,0,0-.23-.56l-.74-.74h.7A.78.78,0,0,0,184.59,258.17Z"/><path class="cls-2" d="M248.74,209.73A.78.78,0,0,0,248,209h-.7l.74-.74a.78.78,0,0,0-1.11-1.11L245,209h-1.94l.74-.74a.78.78,0,0,0-1.11-1.11L240.87,209h-4l5.19-5.19h2.79a.79.79,0,1,0,0-1.57h-1.22l1.26-1.26a.78.78,0,0,0,0-1.11.82.82,0,0,0-1.11,0l-1.26,1.26v-1.22a.79.79,0,1,0-1.57,0v2.79l-5.19,5.18v-4l1.85-1.85a.78.78,0,0,0,0-1.11.8.8,0,0,0-1.11,0l-.74.74v-1.94l1.85-1.85a.78.78,0,0,0,0-1.11.82.82,0,0,0-1.11,0l-.74.74v-.7a.79.79,0,1,0-1.57,0v.7l-.74-.74a.82.82,0,0,0-1.11,0,.8.8,0,0,0,0,1.11l1.85,1.85v1.94l-.74-.74a.8.8,0,0,0-1.11,0,.78.78,0,0,0,0,1.11l1.85,1.85v4L229,202.65v-2.79a.79.79,0,0,0-.79-.79.78.78,0,0,0-.78.79v1.22l-1.26-1.26a.81.81,0,0,0-1.11,0,.78.78,0,0,0,0,1.11l1.25,1.26h-1.22a.79.79,0,0,0,0,1.57h2.79l5.19,5.19h-4l-1.85-1.85a.8.8,0,0,0-1.11,0,.77.77,0,0,0-.24.55.8.8,0,0,0,.24.56l.73.74h-1.93L223,207.1a.8.8,0,0,0-1.11,0,.78.78,0,0,0,0,1.11l.73.74H222a.79.79,0,0,0,0,1.57h.7l-.73.74a.75.75,0,0,0-.23.55.79.79,0,0,0,.23.56.81.81,0,0,0,1.11,0l1.85-1.85h1.93l-.73.73a.8.8,0,0,0-.24.56.79.79,0,0,0,1.35.56l1.85-1.85h4l-5.18,5.18h-2.8a.79.79,0,0,0,0,1.58h1.22l-1.25,1.25a.8.8,0,0,0,0,1.12.81.81,0,0,0,1.11,0l1.26-1.25v1.22a.78.78,0,0,0,.78.78.79.79,0,0,0,.79-.78v-2.79l5.18-5.19v4l-1.85,1.84a.78.78,0,1,0,1.11,1.11l.74-.73v1.93l-1.85,1.85a.79.79,0,0,0-.23.56.75.75,0,0,0,.23.55.8.8,0,0,0,1.11,0l.74-.74v.71a.79.79,0,0,0,1.57,0V222l.74.73a.8.8,0,0,0,1.11,0,.75.75,0,0,0,.23-.55.79.79,0,0,0-.23-.56l-1.85-1.85v-1.93l.74.73a.81.81,0,0,0,1.11,0,.78.78,0,0,0,0-1.11l-1.85-1.84v-4l5.19,5.19v2.79a.79.79,0,0,0,1.57,0v-1.22l1.26,1.26a.81.81,0,0,0,1.11,0,.75.75,0,0,0,.23-.55.79.79,0,0,0-.23-.56l-1.26-1.25h1.22a.79.79,0,1,0,0-1.58H242l-5.19-5.18h4l1.85,1.85a.81.81,0,0,0,1.11,0,.79.79,0,0,0,.23-.56.75.75,0,0,0-.23-.55l-.74-.74H245l1.85,1.85a.82.82,0,0,0,1.11,0,.8.8,0,0,0,0-1.12l-.74-.73h.7A.79.79,0,0,0,248.74,209.73Z"/><path class="cls-2" d="M70.41,252.82a.78.78,0,0,0-.79-.78h-.7l.74-.74a.78.78,0,0,0-1.11-1.11L66.7,252H64.76l.74-.74a.78.78,0,0,0-1.11-1.11L62.54,252h-4l5.19-5.19H66.5a.79.79,0,1,0,0-1.57H65.28L66.54,244a.78.78,0,0,0,0-1.11.8.8,0,0,0-1.11,0l-1.26,1.26V243a.79.79,0,1,0-1.57,0v2.79l-5.19,5.18v-4l1.85-1.85a.77.77,0,0,0,.23-.56.78.78,0,0,0-.23-.55.8.8,0,0,0-1.11,0l-.74.74v-1.94l1.85-1.85a.78.78,0,0,0,0-1.11.81.81,0,0,0-1.11,0l-.74.74v-.7a.79.79,0,1,0-1.57,0v.7l-.74-.74a.81.81,0,0,0-1.11,0,.8.8,0,0,0,0,1.11l1.85,1.85v1.94L55.1,244A.8.8,0,0,0,54,244a.78.78,0,0,0-.23.55.77.77,0,0,0,.23.56l1.85,1.85v4l-5.18-5.18V243a.79.79,0,0,0-.79-.79.78.78,0,0,0-.78.79v1.22l-1.26-1.26a.81.81,0,0,0-1.11,0,.79.79,0,0,0-.23.56.76.76,0,0,0,.23.55L48,245.28H46.75a.79.79,0,0,0,0,1.57h2.79L54.73,252h-4l-1.85-1.85a.8.8,0,0,0-1.11,0,.77.77,0,0,0-.24.55.8.8,0,0,0,.24.56l.73.74H46.56l-1.85-1.85a.8.8,0,0,0-1.11,0,.78.78,0,0,0,0,1.11l.73.74h-.7a.79.79,0,0,0,0,1.57h.7l-.73.73a.8.8,0,0,0,0,1.12.81.81,0,0,0,1.11,0l1.85-1.85h1.93l-.73.73a.8.8,0,0,0-.24.56.79.79,0,0,0,1.35.56l1.85-1.85h4l-5.18,5.18h-2.8a.79.79,0,0,0,0,1.57H48l-1.25,1.26a.79.79,0,0,0-.23.56.75.75,0,0,0,.23.55.8.8,0,0,0,1.11,0l1.26-1.25v1.22a.79.79,0,0,0,.78.79.8.8,0,0,0,.79-.79v-2.8l5.18-5.18v4L54,260.59a.78.78,0,0,0,0,1.1.8.8,0,0,0,1.11,0l.74-.73v1.93L54,264.74a.79.79,0,0,0-.23.56.76.76,0,0,0,.23.55.8.8,0,0,0,1.11,0l.74-.74v.71a.79.79,0,0,0,1.57,0v-.71l.74.74a.8.8,0,0,0,1.11,0,.76.76,0,0,0,.23-.55.79.79,0,0,0-.23-.56l-1.85-1.85V261l.74.73a.82.82,0,0,0,1.11,0,.78.78,0,0,0,0-1.11l-1.85-1.85v-4l5.19,5.18v2.8a.79.79,0,1,0,1.57,0v-1.22l1.26,1.25a.8.8,0,0,0,1.11,0,.75.75,0,0,0,.23-.55.79.79,0,0,0-.23-.56l-1.26-1.26H66.5a.79.79,0,1,0,0-1.57H63.71l-5.19-5.18h4l1.85,1.85a.8.8,0,0,0,1.11,0,.8.8,0,0,0,0-1.12l-.74-.73H66.7l1.85,1.85a.82.82,0,0,0,1.11,0,.8.8,0,0,0,0-1.12l-.74-.73h.7A.79.79,0,0,0,70.41,252.82Z"/><path class="cls-2" d="M235,251.15a.78.78,0,0,0-.78-.79h-.71l.74-.74a.78.78,0,0,0,0-1.11.82.82,0,0,0-1.11,0l-1.85,1.85h-1.93l.73-.74a.78.78,0,0,0,0-1.11.82.82,0,0,0-1.11,0l-1.85,1.85h-4l5.19-5.19h2.79a.78.78,0,0,0,.78-.78.79.79,0,0,0-.78-.79H229.9l1.25-1.25a.78.78,0,0,0,0-1.11.8.8,0,0,0-1.11,0l-1.26,1.25v-1.22a.79.79,0,0,0-1.57,0v2.79L222,249.25v-4l1.85-1.84a.8.8,0,0,0,0-1.12.83.83,0,0,0-1.12,0L222,243v-1.93l1.85-1.85a.8.8,0,0,0,0-1.11.81.81,0,0,0-1.12,0l-.73.73v-.7a.79.79,0,0,0-1.57,0v.7l-.74-.73a.8.8,0,0,0-1.11,0,.78.78,0,0,0,0,1.11l1.85,1.85V243l-.74-.74a.82.82,0,0,0-1.11,0,.8.8,0,0,0,0,1.12l1.85,1.84v4l-5.19-5.19v-2.79a.79.79,0,0,0-1.57,0v1.22l-1.26-1.25a.8.8,0,0,0-1.11,0,.75.75,0,0,0-.23.55.79.79,0,0,0,.23.56l1.26,1.25h-1.22a.79.79,0,0,0-.79.79.78.78,0,0,0,.79.78h2.79l5.18,5.19h-4l-1.85-1.85a.82.82,0,0,0-1.11,0,.79.79,0,0,0-.23.56.76.76,0,0,0,.23.55l.74.74h-1.94l-1.85-1.85a.82.82,0,0,0-1.11,0,.8.8,0,0,0,0,1.11l.74.74h-.7a.79.79,0,1,0,0,1.57h.7l-.74.74a.79.79,0,0,0-.23.56.76.76,0,0,0,.23.55.8.8,0,0,0,1.11,0l1.85-1.85h1.94l-.74.74a.79.79,0,0,0-.23.56.76.76,0,0,0,.23.55.82.82,0,0,0,1.11,0l1.85-1.85h4l-5.18,5.19h-2.79a.79.79,0,1,0,0,1.57h1.22L211.33,260a.75.75,0,0,0-.23.55.79.79,0,0,0,.23.56.81.81,0,0,0,1.11,0l1.26-1.26V261a.79.79,0,1,0,1.57,0v-2.79l5.19-5.19v4l-1.85,1.85a.78.78,0,0,0,0,1.11.81.81,0,0,0,1.11,0l.74-.74v1.94l-1.85,1.85a.76.76,0,0,0-.23.55.79.79,0,0,0,.23.56.81.81,0,0,0,1.11,0l.74-.74v.7a.79.79,0,1,0,1.57,0v-.7l.73.74a.83.83,0,0,0,1.12,0,.79.79,0,0,0,.23-.56.76.76,0,0,0-.23-.55L222,261.22v-1.94l.73.74a.83.83,0,0,0,1.12,0,.8.8,0,0,0,0-1.11L222,257.06v-4l5.18,5.19V261a.79.79,0,1,0,1.57,0V259.8l1.26,1.26a.82.82,0,0,0,1.11,0,.79.79,0,0,0,.23-.56.75.75,0,0,0-.23-.55l-1.25-1.26h1.22a.79.79,0,0,0,0-1.57h-2.79l-5.19-5.19h4l1.85,1.85a.8.8,0,0,0,1.11,0,.76.76,0,0,0,.23-.55.79.79,0,0,0-.23-.56l-.73-.74h1.93l1.85,1.85a.82.82,0,0,0,1.11,0,.76.76,0,0,0,.23-.55.79.79,0,0,0-.23-.56l-.74-.74h.71A.78.78,0,0,0,235,251.15Z"/></svg>