<svg id="ios-style" xmlns="http://www.w3.org/2000/svg" viewBox="0 0 300 300"><defs><style>.cls-1{fill:#fff;}.cls-2{fill:#d5d6db;}.cls-3{fill:#5ac8fa;}</style></defs><path class="cls-1" d="M124.58,119.28l-21.09,76.6H131.7l.14,63,62.1-97.95H166l14.24-41.61Z"/><path class="cls-2" d="M245,114.42c.05-.87.09-1.74.09-2.62A39.09,39.09,0,0,0,187,77.65,59.88,59.88,0,0,0,68.7,91c0,.34,0,.69,0,1A52.66,52.66,0,0,0,80.15,196h16l23.08-83.83h70.94l-14.24,41.61h30.89L180,196h50.36A42.13,42.13,0,0,0,245,114.42Z"/><path class="cls-3" d="M170.53,266.32a7.67,7.67,0,0,1-6.31-12l28.82-42A7.67,7.67,0,1,1,205.69,221l-28.82,42A7.67,7.67,0,0,1,170.53,266.32Z"/><path class="cls-3" d="M85.57,268.92a7.66,7.66,0,0,1-6.27-12.07l22-31.3a7.67,7.67,0,0,1,12.56,8.8l-22,31.3A7.66,7.66,0,0,1,85.57,268.92Z"/><path class="cls-3" d="M216,259.19a7.67,7.67,0,0,1-6.34-12l13.62-20A7.67,7.67,0,1,1,236,235.79l-13.61,20A7.67,7.67,0,0,1,216,259.19Z"/><path class="cls-3" d="M59.35,243.16a7.67,7.67,0,0,1-6.35-12l13.62-20a7.67,7.67,0,1,1,12.7,8.61l-13.62,20A7.66,7.66,0,0,1,59.35,243.16Z"/></svg>