<svg id="ios-style" xmlns="http://www.w3.org/2000/svg" viewBox="0 0 300 300"><defs><style>.cls-1{fill:#d5d6db;}.cls-2{fill:#5ac8fa;}</style></defs><path class="cls-1" d="M68.71,90.21c0-.35,0-.69,0-1A59.88,59.88,0,0,1,187,75.87,39.11,39.11,0,0,1,245.13,110c0,.88,0,1.76-.1,2.63a42.12,42.12,0,0,1-14.65,81.61H80.15a52.65,52.65,0,0,1-11.44-104Zm0,0"/><path class="cls-2" d="M67.78,233.4a8.69,8.69,0,0,1-7.11-13.68l7-10a8.69,8.69,0,0,1,14.24,10l-7,10A8.69,8.69,0,0,1,67.78,233.4Z"/><path class="cls-2" d="M114.13,229.54A8.7,8.7,0,0,1,107,215.86l7-10a8.69,8.69,0,1,1,14.24,10l-7,10A8.7,8.7,0,0,1,114.13,229.54Z"/><path class="cls-2" d="M133.45,266.23a8.69,8.69,0,0,1-7.11-13.68l7-10a8.69,8.69,0,1,1,14.24,10l-7,10A8.66,8.66,0,0,1,133.45,266.23Z"/><path class="cls-2" d="M170.47,241.77a8.6,8.6,0,0,1-5-1.58,8.69,8.69,0,0,1-2.14-12.1l7-10a8.69,8.69,0,0,1,14.24,10l-7,10A8.68,8.68,0,0,1,170.47,241.77Z"/><path class="cls-2" d="M206.8,235.33a8.69,8.69,0,0,1-7.11-13.68l7-10a8.69,8.69,0,0,1,14.24,10l-7,10A8.67,8.67,0,0,1,206.8,235.33Z"/><path class="cls-2" d="M220.6,270.7A8.69,8.69,0,0,1,213.49,257l7-10a8.69,8.69,0,0,1,14.24,10l-7,10A8.67,8.67,0,0,1,220.6,270.7Z"/><path class="cls-2" d="M94.18,264.3a8.69,8.69,0,0,1-7.12-13.68l7-10a8.69,8.69,0,0,1,14.24,10l-7,10A8.66,8.66,0,0,1,94.18,264.3Z"/></svg>