<svg id="ios-style" xmlns="http://www.w3.org/2000/svg" viewBox="0 0 300 300"><defs><style>.cls-1{fill:#d5d6db;}.cls-2{fill:#969aa4;}</style></defs><path class="cls-1" d="M68.72,91.41c0-.35,0-.7,0-1A59.88,59.88,0,0,1,187,77.07a39.09,39.09,0,0,1,58.17,34.15c0,.88,0,1.76-.09,2.62a42.13,42.13,0,0,1-14.66,81.62H80.15a52.65,52.65,0,0,1-11.43-104Zm0,0"/><path class="cls-2" d="M221,237.71H71.47a7.57,7.57,0,1,1,0-15.13H221a7.57,7.57,0,0,1,0,15.13Z"/><path class="cls-2" d="M221,269.5H71.47a7.57,7.57,0,1,1,0-15.13H221a7.57,7.57,0,0,1,0,15.13Z"/></svg>