<svg id="ios-style" xmlns="http://www.w3.org/2000/svg" viewBox="0 0 300 300"><defs><style>.cls-1{fill:#d5d6db;}.cls-2{fill:#969aa4;}</style></defs><path class="cls-1" d="M75.89,96.58c0-.32,0-.63,0-1A54.59,54.59,0,0,1,183.7,83.51a35.64,35.64,0,0,1,53,31.13c0,.81,0,1.6-.08,2.4a38.41,38.41,0,0,1-13.37,74.41h-137A48,48,0,0,1,75.89,96.58Zm0,0"/><path class="cls-2" d="M214.7,230H78.4a6.9,6.9,0,1,1,0-13.79H214.7a6.9,6.9,0,1,1,0,13.79Z"/><path class="cls-2" d="M214.7,259H78.4a6.9,6.9,0,1,1,0-13.79H214.7a6.9,6.9,0,1,1,0,13.79Z"/></svg>