<svg id="ios-style" xmlns="http://www.w3.org/2000/svg" viewBox="0 0 300 300"><defs><style>.cls-1{fill:#969aa4;}</style></defs><path class="cls-1" d="M75.35,96.19c0-.32,0-.64,0-1A55,55,0,0,1,183.94,83a35.92,35.92,0,0,1,53.43,31.36c0,.82,0,1.62-.09,2.42a38.68,38.68,0,0,1-13.46,75h-138A48.36,48.36,0,0,1,75.35,96.19Zm0,0"/><path class="cls-1" d="M215.18,230.55H77.88a6.95,6.95,0,1,1,0-13.89h137.3a6.95,6.95,0,0,1,0,13.89Z"/><path class="cls-1" d="M215.18,259.75H77.88a6.95,6.95,0,1,1,0-13.9h137.3a7,7,0,0,1,0,13.9Z"/></svg>