<svg id="ios-style" xmlns="http://www.w3.org/2000/svg" viewBox="0 0 300 300"><defs><style>.cls-1{fill:#969aa4;}</style></defs><path class="cls-1" d="M45.49,136.18a8,8,0,0,1-5.33-13.93c28-25,61.46-17.85,91-11.51,14.18,3.05,27.56,5.91,40.28,5.73,11.1-.17,19.13-4.48,22.59-12.13a18.37,18.37,0,0,0-2.43-19.19c-5-5.84-13.5-7.48-24-4.61a8,8,0,0,1-4.2-15.41c16.56-4.51,31.27-1,40.35,9.66a34.14,34.14,0,0,1,4.83,36.13c-6.07,13.41-19.52,21.25-36.9,21.51-14.54.24-29.45-3-43.87-6.08-28.33-6.08-55.09-11.83-77,7.8A8,8,0,0,1,45.49,136.18Z"/><path class="cls-1" d="M225.2,216.24a37.24,37.24,0,0,1-6.17-.52c-14-2.35-26.89-12.51-32.94-25.9a8,8,0,1,1,14.55-6.57c3.86,8.53,12.31,15.25,21,16.72a18.38,18.38,0,0,0,17.06-5.78c7.13-7.53,9.58-17.64,6.57-27.05-2.83-8.86-9.89-15-19.36-16.87-9.2-1.81-18.88,1.09-29.14,4.15-4.24,1.27-8.63,2.58-13,3.56-15.3,3.37-29.13.56-42.5-2.16-4.21-.86-8.58-1.75-12.88-2.42-29.13-4.49-52-3.53-69.13,15.76a8,8,0,0,1-11.95-10.59c23.18-26.16,53.84-25.53,83.51-20.95,4.69.73,9.24,1.65,13.64,2.55,12.28,2.5,23.88,4.86,35.86,2.22,3.84-.85,7.77-2,11.92-3.27C203.36,135.8,216,132,229,134.6a40.71,40.71,0,0,1,31.5,27.67,43.33,43.33,0,0,1-10.18,42.89A34,34,0,0,1,225.2,216.24Z"/><path class="cls-1" d="M137.41,236.79a37.54,37.54,0,0,1-15.87-3.4c-10.63-5-16.61-14.7-16.4-26.68a8,8,0,0,1,16,.29c-.1,5.71,2.25,9.62,7.2,11.93,7.16,3.35,17.65,2,23.4-2.92,4.07-3.52,5.16-8.21,3.31-14.33-3.88-12.89-16.31-17.76-26.05-19.57C107,178,78.78,186,68.51,199.24a8,8,0,0,1-12.61-9.8c13.93-17.91,48-28.24,76-23,19.93,3.72,33.58,14.61,38.41,30.66,3.64,12.09.66,23.4-8.16,31C155.56,233.78,146.46,236.79,137.41,236.79Z"/></svg>