<svg id="ios-style" xmlns="http://www.w3.org/2000/svg" viewBox="0 0 300 300"><defs><style>.cls-1{fill:#fff;}.cls-2{fill:#5ac8fa;}</style></defs><path class="cls-1" d="M129.19,179.83a2.74,2.74,0,0,1-2.73-2.74v-4l-3.81,3.81a2.72,2.72,0,0,1-3.86,0,2.73,2.73,0,0,1,0-3.86l7.67-7.67v-9.21l-3.81,3.8a2.73,2.73,0,0,1-3.86,0,2.74,2.74,0,0,1,0-3.86l7.67-7.66V130.76L104.4,152.81v11.58a2.73,2.73,0,1,1-5.46,0v-6.1L93,164.2a2.73,2.73,0,0,1-3.86,0,2.74,2.74,0,0,1,0-3.87l5.92-5.91H89a2.74,2.74,0,0,1,0-5.48h11.57l22-22H104.92l-7.67,7.66a2.74,2.74,0,0,1-3.87-3.87l3.81-3.79H88l-7.67,7.66a2.72,2.72,0,0,1-3.87,0,2.74,2.74,0,0,1,0-3.87l3.79-3.79h-4a2.74,2.74,0,0,1,0-5.47h4l-3.79-3.81a2.73,2.73,0,0,1,0-3.86,2.73,2.73,0,0,1,3.86,0L88,121.43h9.21l-3.81-3.81a2.74,2.74,0,0,1-.8-1.93,2.74,2.74,0,0,1,4.67-1.93l7.67,7.67h17.67l-22-22.06H89a2.73,2.73,0,1,1,0-5.46h6.1L89.15,88a2.73,2.73,0,0,1,0-3.86,2.73,2.73,0,0,1,3.86,0L98.94,90v-6.1a2.73,2.73,0,1,1,5.46,0V95.51l22.06,22V99.89l-7.67-7.67a2.73,2.73,0,1,1,3.86-3.87l3.81,3.81V83l-7.67-7.67a2.74,2.74,0,0,1,0-3.86,2.73,2.73,0,0,1,3.86,0l3.81,3.79v-4a2.74,2.74,0,0,1,5.47,0v4l3.79-3.79a2.73,2.73,0,1,1,3.87,3.86L131.93,83v9.2l3.79-3.8a2.72,2.72,0,0,1,1.94-.8,2.75,2.75,0,0,1,2.74,2.73,2.72,2.72,0,0,1-.81,1.94l-7.66,7.67v17.66l22.36-22.36v7.73l-18.5,18.51h18.5v5.47h-18.5l18.5,18.49v7.74l-22.36-22.37v17.68l7.66,7.66a2.73,2.73,0,0,1-1.93,4.66,2.76,2.76,0,0,1-1.94-.8l-3.79-3.79v9.2l7.66,7.67a2.69,2.69,0,0,1,.81,1.93,2.73,2.73,0,0,1-.81,1.94,2.73,2.73,0,0,1-3.87,0l-3.79-3.8v4A2.74,2.74,0,0,1,129.19,179.83Z"/><path class="cls-1" d="M129.19,69.11a2.12,2.12,0,0,1,2.12,2.12V76.7l4.85-4.85a2.12,2.12,0,0,1,3,3l-7.85,7.86v11l4.85-4.86a2.12,2.12,0,0,1,3,0,2.12,2.12,0,0,1,0,3l-7.85,7.85V119l22.36-22.36v6L134.3,122h19.37v4.24H134.3l19.37,19.36v6l-22.36-22.37v19.42l7.85,7.85a2.11,2.11,0,0,1-1.5,3.6,2.09,2.09,0,0,1-1.5-.62l-4.85-4.84v10.95l7.85,7.84a2.14,2.14,0,0,1,0,3,2.12,2.12,0,0,1-3,0l-4.85-4.86v5.48a2.12,2.12,0,0,1-4.24,0v-5.48l-4.86,4.86a2,2,0,0,1-1.48.62,2.07,2.07,0,0,1-1.5-.62,2.12,2.12,0,0,1,0-3l7.84-7.84V154.68l-4.86,4.84a2,2,0,0,1-1.48.62,2.07,2.07,0,0,1-1.5-.62,2.09,2.09,0,0,1,0-3l7.84-7.85V129.27l-23.29,23.29v11.83a2.12,2.12,0,0,1-4.23,0V156.8l-7,7a2.13,2.13,0,0,1-1.5.62,2.12,2.12,0,0,1-1.49-3.62l7-7H89a2.12,2.12,0,0,1,0-4.24H100.8l23.28-23.28H104.66l-7.84,7.85a2.16,2.16,0,0,1-1.5.62,2.12,2.12,0,0,1-1.5-3.62l4.86-4.85h-11l-7.86,7.85a2.11,2.11,0,0,1-1.49.62,2.12,2.12,0,0,1-1.5-3.62l4.85-4.85H76.26a2.12,2.12,0,1,1,0-4.24h5.47l-4.85-4.86a2.11,2.11,0,0,1,1.5-3.6,2.06,2.06,0,0,1,1.49.62L87.73,122h11l-4.86-4.86a2.09,2.09,0,0,1,0-3,2.07,2.07,0,0,1,1.5-.62,2.1,2.1,0,0,1,1.5.62l7.84,7.84h19.42L100.8,98.75H89a2.11,2.11,0,1,1,0-4.22h7.59l-7-7a2.11,2.11,0,0,1,0-3,2.06,2.06,0,0,1,1.49-.62,2.1,2.1,0,0,1,1.5.62l7,7V83.94a2.12,2.12,0,1,1,4.23,0V95.76L127.07,119V99.63l-7.84-7.85a2.11,2.11,0,0,1,0-3,2.1,2.1,0,0,1,3,0l4.86,4.86v-11l-7.84-7.86a2.11,2.11,0,1,1,3-3l4.86,4.85V71.23a2.12,2.12,0,0,1,2.12-2.12m0-1.23a3.35,3.35,0,0,0-3.35,3.35v2.49L123.09,71a3.35,3.35,0,0,0-4.74,4.73l7.49,7.5v7.46l-2.75-2.76a3.33,3.33,0,0,0-2.37-1,3.35,3.35,0,0,0-3.35,3.35,3.33,3.33,0,0,0,1,2.37l7.49,7.49v15.92L105,95.25V83.94a3.35,3.35,0,1,0-6.7,0v4.61l-4.87-4.87a3.34,3.34,0,0,0-2.37-1,3.29,3.29,0,0,0-2.36,1,3.26,3.26,0,0,0-1,2.36,3.33,3.33,0,0,0,1,2.37l4.86,4.87H89a3.35,3.35,0,1,0,0,6.7h11.31l20.82,20.82H105.17l-7.48-7.49a3.36,3.36,0,0,0-2.37-1A3.34,3.34,0,0,0,93,118.06l2.75,2.75H88.24l-7.49-7.49A3.35,3.35,0,1,0,76,118.06l2.75,2.75h-2.5a3.36,3.36,0,0,0,0,6.71h2.49L76,130.26A3.35,3.35,0,0,0,80.75,135l7.49-7.48h7.45L93,130.26A3.33,3.33,0,0,0,93,135a3.34,3.34,0,0,0,4.74,0l7.48-7.47h15.92l-20.81,20.8H89A3.36,3.36,0,1,0,89,155h4.61l-4.86,4.87a3.29,3.29,0,0,0-1,2.36,3.35,3.35,0,0,0,5.72,2.38l4.87-4.86v4.61a3.35,3.35,0,1,0,6.7,0V153.07l20.82-20.82v15.93l-7.49,7.49a3.35,3.35,0,0,0,4.74,4.73l2.75-2.75v7.46l-7.49,7.49a3.36,3.36,0,0,0,2.38,5.73,3.29,3.29,0,0,0,2.36-1l2.75-2.75v2.5a3.36,3.36,0,0,0,6.71,0V174.6l2.74,2.74a3.33,3.33,0,0,0,4.74,0,3.29,3.29,0,0,0,1-2.37,3.33,3.33,0,0,0-1-2.37l-7.48-7.49v-7.45l2.74,2.74a3.36,3.36,0,0,0,4.74,0,3.34,3.34,0,0,0,0-4.73l-7.48-7.49V132.25l20.25,20.26,2.11,2.11v-9.49l-.36-.36-17.27-17.25h17.63v-6.71H137.28l17.27-17.27.36-.36V93.7l-2.11,2.11-20.25,20.25V100.14L140,92.65a3.33,3.33,0,0,0,1-2.37,3.36,3.36,0,0,0-1-2.37,3.36,3.36,0,0,0-4.74,0l-2.74,2.75V83.21l7.48-7.5A3.35,3.35,0,0,0,135.29,71l-2.74,2.74V71.23a3.36,3.36,0,0,0-3.36-3.35Z"/><path class="cls-1" d="M185,255.21a41.08,41.08,0,0,1-4.81-.28,42.06,42.06,0,0,1-19.75-76V69.35a24.55,24.55,0,1,1,49.1,0V179A42.08,42.08,0,0,1,185,255.21Zm0-203.39a17.55,17.55,0,0,0-17.54,17.53V182.71l-1.59,1a35.08,35.08,0,1,0,38.24,0l-1.58-1V69.35A17.55,17.55,0,0,0,185,51.82Zm0,0"/><path class="cls-2" d="M192.43,189.39V173.14a7.41,7.41,0,0,0-14.82,0v16.25a25.3,25.3,0,1,0,14.82,0Z"/></svg>