<svg id="ios-style" xmlns="http://www.w3.org/2000/svg" viewBox="0 0 300 300"><defs><style>.cls-1{fill:#fff;}.cls-2{fill:#969aa4;}</style></defs><path class="cls-1" d="M187.35,139.77a43.83,43.83,0,0,1,51.92,21.57,63.26,63.26,0,0,0,32.41-26.24,64,64,0,0,1-11.07,1,63.08,63.08,0,0,1-53.68-96.22,63.07,63.07,0,0,0-52,62.09c0,1,0,2,.07,2.92A62.68,62.68,0,0,1,187.35,139.77Z"/><path class="cls-2" d="M72.45,163.17c0-.32,0-.64,0-1a55.8,55.8,0,0,1,110.21-12.39,36.44,36.44,0,0,1,54.22,31.83c0,.82,0,1.63-.09,2.44a39.26,39.26,0,0,1-13.66,76.06h-140a49.07,49.07,0,0,1-10.66-97Zm0,0"/><polygon class="cls-1" points="70.26 94.97 82.05 88.53 70.26 82.09 63.82 70.31 57.38 82.09 45.59 88.53 57.38 94.97 63.82 106.76 70.26 94.97"/><polygon class="cls-1" points="44.19 132.9 51.76 128.75 44.19 124.61 40.04 117.03 35.89 124.61 28.32 128.75 35.89 132.9 40.04 140.47 44.19 132.9"/></svg>