<svg id="ios-style" xmlns="http://www.w3.org/2000/svg" viewBox="0 0 300 300"><defs><style>.cls-1{fill:#ffae02;}.cls-2{fill:#ffe001;}.cls-3{fill:#d5d6db;}</style></defs><path class="cls-1" d="M106.3,76.32a2.62,2.62,0,0,0,2.63-2.61V58a2.63,2.63,0,0,0-5.26,0V73.71A2.62,2.62,0,0,0,106.3,76.32Z"/><path class="cls-1" d="M48.51,134.11a2.62,2.62,0,0,0-2.62-2.62H30.13a2.63,2.63,0,1,0,0,5.25H45.89A2.62,2.62,0,0,0,48.51,134.11Z"/><path class="cls-1" d="M149,94a2.61,2.61,0,0,0,1.86-.77l15.06-15.07a2.62,2.62,0,0,0-3.71-3.7l-15.07,15a2.63,2.63,0,0,0,0,3.72A2.58,2.58,0,0,0,149,94Z"/><path class="cls-1" d="M65.44,175a2.64,2.64,0,0,0-3.72,0L46.66,190a2.62,2.62,0,1,0,3.71,3.71l15.07-15.06A2.64,2.64,0,0,0,65.44,175Z"/><path class="cls-1" d="M61.72,93.25a2.59,2.59,0,0,0,1.85.77,2.62,2.62,0,0,0,1.87-.77,2.64,2.64,0,0,0,0-3.72l-15.07-15a2.62,2.62,0,0,0-3.71,3.7Z"/><path class="cls-1" d="M53.11,156.68a2.64,2.64,0,0,0-3.45-1.38l-7.26,3.08a2.63,2.63,0,0,0,1,5,2.58,2.58,0,0,0,1-.21l7.26-3.07A2.65,2.65,0,0,0,53.11,156.68Z"/><path class="cls-1" d="M42,111l7.31,3a2.44,2.44,0,0,0,1,.19,2.62,2.62,0,0,0,1-5.06l-7.31-3A2.62,2.62,0,0,0,42,111Z"/><path class="cls-1" d="M80.28,79.53a2.62,2.62,0,0,0,2.42,1.6,2.73,2.73,0,0,0,1-.2,2.64,2.64,0,0,0,1.38-3.45L82,70.22a2.62,2.62,0,0,0-4.83,2Z"/><path class="cls-1" d="M128,80.53a2.4,2.4,0,0,0,1,.19,2.61,2.61,0,0,0,2.44-1.64l3-7.31a2.62,2.62,0,0,0-4.87-2l-2.95,7.31A2.61,2.61,0,0,0,128,80.53Z"/><path class="cls-1" d="M80,163.48a39.39,39.39,0,1,1,53.2-58.1,54.26,54.26,0,0,1,14.68-3.3,52.52,52.52,0,1,0-76.41,71.38,47.23,47.23,0,0,1,3.13-4.34A48.82,48.82,0,0,1,80,163.48Z"/><path class="cls-2" d="M66.9,134.11A39.25,39.25,0,0,0,80,163.48a49,49,0,0,1,17.74-10.14,54.9,54.9,0,0,1,35.46-48A39.39,39.39,0,0,0,66.9,134.11Z"/><path class="cls-3" d="M104.52,158.91c0-.28,0-.57,0-.86a49.36,49.36,0,0,1,97.48-11,32.24,32.24,0,0,1,47.95,28.15c0,.73,0,1.45-.08,2.17a34.72,34.72,0,0,1-12.08,67.27H114a43.4,43.4,0,0,1-9.43-85.77Zm0,0"/></svg>