<svg id="ios-style" xmlns="http://www.w3.org/2000/svg" viewBox="0 0 300 300"><defs><style>.cls-1{fill:#fff;}.cls-2{fill:#969aa4;}</style></defs><path class="cls-1" d="M187.6,139.7a44.15,44.15,0,0,1,52.27,21.71A63.66,63.66,0,0,0,272.5,135a63.49,63.49,0,0,1-74.66-62.52,63.19,63.19,0,0,1,9.47-33.36A63.51,63.51,0,0,0,155,101.63c0,1,0,2,.07,2.94A63.1,63.1,0,0,1,187.6,139.7Z"/><path class="cls-2" d="M71.93,163.26c0-.32,0-.65,0-1a56.18,56.18,0,0,1,111-12.47,36.69,36.69,0,0,1,54.58,32c0,.83,0,1.65-.09,2.46a39.52,39.52,0,0,1-13.75,76.57H82.66a49.4,49.4,0,0,1-10.73-97.62Zm0,0"/><polygon class="cls-1" points="69.73 94.61 81.59 88.12 69.73 81.63 63.24 69.77 56.76 81.63 44.89 88.12 56.76 94.61 63.24 106.47 69.73 94.61"/><polygon class="cls-1" points="43.48 132.78 51.1 128.61 43.48 124.44 39.3 116.81 35.13 124.44 27.5 128.61 35.13 132.78 39.3 140.41 43.48 132.78"/></svg>