<svg id="ios-style" xmlns="http://www.w3.org/2000/svg" viewBox="0 0 300 300"><defs><style>.cls-1{fill:#ffae02;}.cls-2{fill:#ffe001;}</style></defs><path class="cls-1" d="M150,27.5a4.09,4.09,0,0,0-4.09,4.09v24.5a4.09,4.09,0,0,0,8.18,0V31.59A4.09,4.09,0,0,0,150,27.5Zm0,0"/><path class="cls-1" d="M150,239.84a4.08,4.08,0,0,0-4.09,4.07v24.5a4.09,4.09,0,0,0,8.18,0v-24.5a4.08,4.08,0,0,0-4.09-4.07Zm0,0"/><path class="cls-1" d="M268.41,145.91h-24.5a4.09,4.09,0,0,0,0,8.18h24.5a4.09,4.09,0,0,0,0-8.18Zm0,0"/><path class="cls-1" d="M60.16,150a4.08,4.08,0,0,0-4.07-4.09H31.59a4.09,4.09,0,1,0,0,8.18h24.5A4.08,4.08,0,0,0,60.16,150Zm0,0"/><path class="cls-1" d="M216.41,87.67a4.1,4.1,0,0,0,2.89-1.19l23.41-23.43A4.07,4.07,0,0,0,237,57.29L213.52,80.7a4.08,4.08,0,0,0,2.89,7Zm0,0"/><path class="cls-1" d="M80.69,213.52,57.29,237a4.07,4.07,0,1,0,5.76,5.76L86.48,219.3a4.09,4.09,0,0,0-5.79-5.78Zm0,0"/><path class="cls-1" d="M219.3,213.52a4.09,4.09,0,0,0-5.78,5.78L237,242.71a4.07,4.07,0,0,0,5.76-5.76Zm0,0"/><path class="cls-1" d="M63.05,57.29a4.07,4.07,0,0,0-5.76,5.76l23.4,23.43a4.09,4.09,0,1,0,5.79-5.78Zm0,0"/><path class="cls-1" d="M232.68,114.91a4.12,4.12,0,0,0,5.37,2.15l11.28-4.79a4.08,4.08,0,0,0-3.19-7.51l-11.28,4.79a4.1,4.1,0,0,0-2.18,5.36Zm0,0"/><path class="cls-1" d="M67.32,185.09A4.11,4.11,0,0,0,62,182.94l-11.28,4.78a4.08,4.08,0,0,0,3.19,7.52l11.28-4.79a4.1,4.1,0,0,0,2.18-5.36Zm0,0"/><path class="cls-1" d="M250,186l-11.36-4.59a4.08,4.08,0,0,0-3.06,7.56l11.37,4.6a4,4,0,0,0,5.3-2.27A4.07,4.07,0,0,0,250,186Zm0,0"/><path class="cls-1" d="M50,114,61.4,118.6a3.67,3.67,0,0,0,1.51.3A4.08,4.08,0,0,0,64.44,111l-11.36-4.6A4.08,4.08,0,0,0,50,114Zm0,0"/><path class="cls-1" d="M190.45,234.86a4.08,4.08,0,1,0-7.51,3.19l4.78,11.28a4.08,4.08,0,0,0,7.52-3.19Zm0,0"/><path class="cls-1" d="M113.31,67.63A4,4,0,0,0,117.06,62l-4.79-11.28a4.08,4.08,0,0,0-7.51,3.19l4.79,11.28a4.07,4.07,0,0,0,3.76,2.49Zm0,0"/><path class="cls-1" d="M116.34,233.3a4.07,4.07,0,0,0-5.3,2.26l-4.6,11.36A4.08,4.08,0,0,0,114,250l4.59-11.37a4.05,4.05,0,0,0-2.26-5.3Zm0,0"/><path class="cls-1" d="M185.17,67A4.07,4.07,0,0,0,189,64.44l4.6-11.36A4.08,4.08,0,0,0,186,50L181.4,61.4a4.05,4.05,0,0,0,2.26,5.3,3.67,3.67,0,0,0,1.51.3Zm0,0"/><path class="cls-1" d="M231.67,150A81.67,81.67,0,1,1,150,68.33,81.68,81.68,0,0,1,231.67,150Zm0,0"/><path class="cls-2" d="M211.25,150A61.25,61.25,0,1,1,150,88.75,61.25,61.25,0,0,1,211.25,150Zm0,0"/></svg>