<svg id="ios-style" xmlns="http://www.w3.org/2000/svg" viewBox="0 0 300 300"><defs><style>.cls-1{fill:#fff;}.cls-2{fill:#969aa4;}.cls-3{fill:#5ac8fa;}</style></defs><path class="cls-1" d="M125,119.79l-20.73,75.32H132l.14,61.91,61-96.31H165.73l14-40.92Z"/><path class="cls-2" d="M243.45,115c.05-.86.09-1.72.09-2.58a38.44,38.44,0,0,0-57.2-33.58A58.88,58.88,0,0,0,70.06,91.94c0,.33,0,.68,0,1A51.78,51.78,0,0,0,81.32,195.27H97l22.7-82.43h69.75l-14,40.92h30.39l-26.32,41.51H229A41.42,41.42,0,0,0,243.45,115Z"/><path class="cls-3" d="M170.19,264.37a7.53,7.53,0,0,1-6.21-11.8l28.34-41.32a7.54,7.54,0,1,1,12.44,8.53L176.42,261.1A7.55,7.55,0,0,1,170.19,264.37Z"/><path class="cls-3" d="M86.65,266.94a7.55,7.55,0,0,1-6.17-11.87l21.64-30.78a7.54,7.54,0,0,1,12.36,8.65L92.83,263.72A7.5,7.5,0,0,1,86.65,266.94Z"/><path class="cls-3" d="M214.91,257.36a7.38,7.38,0,0,1-4.22-1.3,7.54,7.54,0,0,1-2-10.47l13.39-19.7a7.54,7.54,0,0,1,12.49,8.46l-13.39,19.7A7.51,7.51,0,0,1,214.91,257.36Z"/><path class="cls-3" d="M60.86,241.6a7.55,7.55,0,0,1-6.24-11.77L68,210.13a7.54,7.54,0,0,1,12.49,8.46l-13.39,19.7A7.54,7.54,0,0,1,60.86,241.6Z"/></svg>