<svg id="ios-style" xmlns="http://www.w3.org/2000/svg" viewBox="0 0 300 300"><defs><style>.cls-1{fill:#ffae02;}.cls-2{fill:#ede21b;}.cls-3{fill:#ffe001;}.cls-4{fill:#fff;}.cls-5{fill:#ff3a2f;}</style></defs><path class="cls-1" d="M132.36,53.8A2.23,2.23,0,0,0,130.13,56v13.4a2.24,2.24,0,0,0,4.47,0V56a2.24,2.24,0,0,0-2.24-2.23Zm0,0"/><path class="cls-1" d="M132.36,169.9a2.22,2.22,0,0,0-2.23,2.22v13.4a2.24,2.24,0,1,0,4.47,0v-13.4a2.23,2.23,0,0,0-2.24-2.22Zm0,0"/><path class="cls-1" d="M83.24,120.78A2.23,2.23,0,0,0,81,118.54H67.62a2.24,2.24,0,0,0,0,4.47H81a2.22,2.22,0,0,0,2.22-2.23Zm0,0"/><path class="cls-1" d="M94.47,155.51l-12.8,12.81a2.23,2.23,0,0,0,3.15,3.15l12.81-12.8a2.23,2.23,0,1,0-3.16-3.16Zm0,0"/><path class="cls-1" d="M84.82,70.09a2.23,2.23,0,0,0-3.15,3.15l12.8,12.81a2.24,2.24,0,1,0,3.16-3.17Zm0,0"/><path class="cls-1" d="M87.16,140a2.25,2.25,0,0,0-2.94-1.17l-6.17,2.61a2.22,2.22,0,0,0-1.17,2.92,2.21,2.21,0,0,0,2.92,1.19L86,142.9A2.25,2.25,0,0,0,87.16,140Zm0,0"/><path class="cls-1" d="M77.7,101.1l6.22,2.51a2,2,0,0,0,.83.16,2.22,2.22,0,0,0,.83-4.29L79.37,97a2.23,2.23,0,0,0-1.67,4.14Zm0,0"/><path class="cls-1" d="M154.48,167.17a2.23,2.23,0,1,0-4.11,1.75l2.62,6.17a2.23,2.23,0,0,0,4.11-1.75Zm0,0"/><path class="cls-1" d="M112.3,75.74a2.29,2.29,0,0,0,.88-.17,2.24,2.24,0,0,0,1.17-2.93l-2.61-6.17a2.23,2.23,0,0,0-4.11,1.74l2.61,6.17a2.24,2.24,0,0,0,2.06,1.36Zm0,0"/><path class="cls-1" d="M114,166.32a2.23,2.23,0,0,0-2.9,1.24l-2.52,6.21a2.24,2.24,0,0,0,1.25,2.9,2.19,2.19,0,0,0,.83.16,2.23,2.23,0,0,0,2.07-1.39l2.51-6.22a2.23,2.23,0,0,0-1.24-2.9Zm0,0"/><path class="cls-1" d="M151.59,75.39A2.22,2.22,0,0,0,153.66,74l2.52-6.21A2.23,2.23,0,0,0,152,66.12l-2.51,6.21a2.22,2.22,0,0,0,1.24,2.9,2,2,0,0,0,.82.16Zm0,0"/><path class="cls-2" d="M157.86,142.48V99.07a33.49,33.49,0,1,0,0,43.41Z"/><path class="cls-1" d="M157.86,84.13a44.66,44.66,0,1,0,0,73.29Z"/><path class="cls-3" d="M157.86,142.48V99.07a33.49,33.49,0,1,0,0,43.41Z"/><path class="cls-4" d="M191.36,258.17a43.25,43.25,0,0,1-25.25-78.38V67.08a25.24,25.24,0,1,1,50.48,0V179.79a43.26,43.26,0,0,1-25.23,78.38Zm0-209.12a18,18,0,0,0-18,18V183.63l-1.64,1.07a36.06,36.06,0,1,0,39.32,0l-1.62-1V67.08a18.06,18.06,0,0,0-18-18Zm0,0"/><path class="cls-5" d="M199,190.49V67.77a7.62,7.62,0,1,0-15.23,0V190.49a26,26,0,1,0,15.24,0Z"/></svg>