<svg id="ios-style" xmlns="http://www.w3.org/2000/svg" viewBox="0 0 300 300"><defs><style>.cls-1{fill:#fff;}.cls-2{fill:#d5d6db;}.cls-3{fill:#ffae02;}.cls-4{fill:#ffe001;}.cls-5{fill:#5ac8fa;}</style></defs><path class="cls-1" d="M148.19,144.35l-16.73,60.78h22.38l.12,49.94,49.26-77.7H181.05l11.3-33Z"/><path class="cls-2" d="M243.76,140.5c0-.68.07-1.38.07-2.08a31,31,0,0,0-46.15-27.09,47.5,47.5,0,0,0-93.81,10.55c0,.28,0,.55,0,.82A41.78,41.78,0,0,0,113,205.26h12.66l18.31-66.51h56.27l-11.29,33h24.51l-21.23,33.5h39.95a33.43,33.43,0,0,0,11.63-64.76Z"/><path class="cls-3" d="M105.2,46.36A2.36,2.36,0,0,0,107.56,44V29.86a2.36,2.36,0,0,0-4.72,0V44A2.36,2.36,0,0,0,105.2,46.36Z"/><path class="cls-3" d="M53.32,98.25A2.36,2.36,0,0,0,51,95.89H36.81a2.36,2.36,0,0,0,0,4.72H51A2.36,2.36,0,0,0,53.32,98.25Z"/><path class="cls-3" d="M143.56,62.25a2.36,2.36,0,0,0,1.67-.69L158.75,48a2.35,2.35,0,0,0-3.33-3.33L141.89,58.22a2.36,2.36,0,0,0,1.67,4Z"/><path class="cls-3" d="M68.52,134.93a2.37,2.37,0,0,0-3.34,0L51.66,148.46A2.35,2.35,0,1,0,55,151.79l13.53-13.52A2.37,2.37,0,0,0,68.52,134.93Z"/><path class="cls-3" d="M65.18,61.56a2.36,2.36,0,0,0,3.34-3.34L55,44.7A2.35,2.35,0,0,0,51.66,48Z"/><path class="cls-3" d="M57.45,118.51a2.36,2.36,0,0,0-3.1-1.24L47.84,120a2.36,2.36,0,0,0,.93,4.53,2.29,2.29,0,0,0,.91-.19l6.52-2.76A2.37,2.37,0,0,0,57.45,118.51Z"/><path class="cls-3" d="M47.47,77.46,54,80.11a2.12,2.12,0,0,0,.88.17,2.35,2.35,0,0,0,.88-4.53l-6.56-2.66a2.36,2.36,0,0,0-1.76,4.37Z"/><path class="cls-3" d="M81.84,49.24a2.36,2.36,0,1,0,4.34-1.84l-2.76-6.52a2.36,2.36,0,0,0-4.34,1.84Z"/><path class="cls-3" d="M124.64,50.14a2.12,2.12,0,0,0,.88.17,2.33,2.33,0,0,0,2.18-1.47l2.66-6.56A2.36,2.36,0,0,0,126,40.51l-2.65,6.57A2.34,2.34,0,0,0,124.64,50.14Z"/><path class="cls-3" d="M81.62,124.61a35.37,35.37,0,1,1,47.77-52.16,48.6,48.6,0,0,1,13.18-3A47.15,47.15,0,1,0,74,133.57a40.81,40.81,0,0,1,2.81-3.89A43.84,43.84,0,0,1,81.62,124.61Z"/><path class="cls-4" d="M69.83,98.25a35.28,35.28,0,0,0,11.79,26.36,44.18,44.18,0,0,1,15.94-9.1,49.28,49.28,0,0,1,31.83-43.06,35.36,35.36,0,0,0-59.56,25.8Z"/><path class="cls-5" d="M186.25,270a7.22,7.22,0,0,1-6-11.31l27.17-39.61a7.23,7.23,0,0,1,11.93,8.18l-27.17,39.6A7.22,7.22,0,0,1,186.25,270Z"/><path class="cls-5" d="M106.17,272.5a7.22,7.22,0,0,1-5.92-11.37L121,231.63a7.23,7.23,0,1,1,11.84,8.29l-20.75,29.5A7.19,7.19,0,0,1,106.17,272.5Z"/><path class="cls-5" d="M229.11,263.33a7.1,7.1,0,0,1-4-1.25,7.23,7.23,0,0,1-1.93-10L236,233.16a7.23,7.23,0,1,1,12,8.11l-12.83,18.88A7.26,7.26,0,0,1,229.11,263.33Z"/><path class="cls-5" d="M81.45,248.22a7.24,7.24,0,0,1-6-11.29L88.3,218.05a7.23,7.23,0,0,1,12,8.11L87.44,245A7.24,7.24,0,0,1,81.45,248.22Z"/></svg>