<svg id="ios-style" xmlns="http://www.w3.org/2000/svg" viewBox="0 0 300 300"><defs><style>.cls-1{fill:#ffae02;}.cls-2{fill:#ffe001;}.cls-3{fill:#d5d6db;}.cls-4{fill:#5ac8fa;}</style></defs><path class="cls-1" d="M109.85,46.8a2.4,2.4,0,0,0,2.41-2.4V29.91a2.42,2.42,0,0,0-4.83,0V44.4A2.41,2.41,0,0,0,109.85,46.8Z"/><path class="cls-1" d="M56.75,99.9a2.41,2.41,0,0,0-2.4-2.42H39.87a2.42,2.42,0,1,0,0,4.83H54.35A2.4,2.4,0,0,0,56.75,99.9Z"/><path class="cls-1" d="M149.1,63.06a2.42,2.42,0,0,0,1.71-.7l13.83-13.85a2.41,2.41,0,0,0-3.4-3.41L147.39,58.94a2.43,2.43,0,0,0,0,3.42A2.39,2.39,0,0,0,149.1,63.06Z"/><path class="cls-1" d="M72.31,137.44a2.41,2.41,0,0,0-3.42,0L55.06,151.28a2.41,2.41,0,0,0,3.4,3.41l13.85-13.84A2.41,2.41,0,0,0,72.31,137.44Z"/><path class="cls-1" d="M68.89,62.36a2.42,2.42,0,0,0,3.42-3.42L58.46,45.1a2.41,2.41,0,0,0-3.4,3.41Z"/><path class="cls-1" d="M61,120.64a2.42,2.42,0,0,0-3.17-1.28l-6.67,2.83A2.41,2.41,0,0,0,53,126.63l6.67-2.83A2.41,2.41,0,0,0,61,120.64Z"/><path class="cls-1" d="M50.77,78.63l6.71,2.71a2.24,2.24,0,0,0,.9.17,2.41,2.41,0,0,0,.9-4.64l-6.71-2.72a2.41,2.41,0,0,0-1.8,4.48Z"/><path class="cls-1" d="M85.94,49.75a2.42,2.42,0,0,0,2.22,1.47,2.48,2.48,0,0,0,1-.19,2.42,2.42,0,0,0,1.27-3.17l-2.83-6.67a2.41,2.41,0,0,0-4.44,1.89Z"/><path class="cls-1" d="M129.74,50.67a2.18,2.18,0,0,0,.9.17,2.38,2.38,0,0,0,2.23-1.51l2.73-6.71a2.42,2.42,0,0,0-4.48-1.81l-2.71,6.72A2.4,2.4,0,0,0,129.74,50.67Z"/><path class="cls-1" d="M85.72,126.88A36.2,36.2,0,1,1,134.6,73.49a50.42,50.42,0,0,1,13.49-3A48.25,48.25,0,1,0,77.88,136a44.69,44.69,0,0,1,2.88-4A43.41,43.41,0,0,1,85.72,126.88Z"/><path class="cls-2" d="M73.65,99.9a36.1,36.1,0,0,0,12.07,27A45,45,0,0,1,102,117.56,50.45,50.45,0,0,1,134.6,73.49,36.19,36.19,0,0,0,73.65,99.9Z"/><path class="cls-3" d="M108.22,122.68c0-.26,0-.52,0-.79a45.35,45.35,0,0,1,89.56-10.07,29.61,29.61,0,0,1,44,25.86c0,.67,0,1.34-.07,2a31.9,31.9,0,0,1-11.1,61.81H116.88a39.88,39.88,0,0,1-8.66-78.8Zm0,0"/><path class="cls-4" d="M92.68,258.21A6.52,6.52,0,0,1,87.35,248l26.2-37.42A6.52,6.52,0,1,1,124.22,218L98,255.43A6.5,6.5,0,0,1,92.68,258.21Z"/><path class="cls-4" d="M112.3,272.5A6.52,6.52,0,0,1,107,262.25l36.21-51.71A6.51,6.51,0,1,1,153.84,218l-36.2,51.7A6.51,6.51,0,0,1,112.3,272.5Z"/><path class="cls-4" d="M151.93,258.21A6.52,6.52,0,0,1,146.61,248l26.19-37.42A6.52,6.52,0,1,1,183.47,218l-26.19,37.41A6.52,6.52,0,0,1,151.93,258.21Z"/><path class="cls-4" d="M211.19,258.21A6.52,6.52,0,0,1,205.86,248l26.2-37.42A6.52,6.52,0,1,1,242.73,218l-26.2,37.41A6.51,6.51,0,0,1,211.19,258.21Z"/><path class="cls-4" d="M171.55,272.5a6.52,6.52,0,0,1-5.33-10.25l36.21-51.71A6.52,6.52,0,1,1,213.1,218l-36.21,51.7A6.49,6.49,0,0,1,171.55,272.5Z"/></svg>