<svg id="ios-style" xmlns="http://www.w3.org/2000/svg" viewBox="0 0 300 300"><defs><style>.cls-1{fill:#d5d6db;}.cls-2{fill:#5ac8fa;}</style></defs><path class="cls-1" d="M68.71,84c0-.35,0-.69,0-1A59.88,59.88,0,0,1,187,69.69a39.11,39.11,0,0,1,58.17,34.15c0,.88,0,1.76-.09,2.63a42.13,42.13,0,0,1-14.66,81.62H80.15A52.66,52.66,0,0,1,68.71,84Zm0,0"/><path class="cls-2" d="M49.68,259.38a8,8,0,0,1-6.52-12.55L75.23,201a8,8,0,1,1,13.06,9.15L56.22,256A7.94,7.94,0,0,1,49.68,259.38Z"/><path class="cls-2" d="M73.7,276.88a8,8,0,0,1-6.52-12.55L111.5,201a8,8,0,1,1,13.06,9.15l-44.32,63.3A8,8,0,0,1,73.7,276.88Z"/><path class="cls-2" d="M122.23,259.38a8,8,0,0,1-6.53-12.55L147.77,201a8,8,0,0,1,13.07,9.15L128.76,256A7.94,7.94,0,0,1,122.23,259.38Z"/><path class="cls-2" d="M194.77,259.38a8,8,0,0,1-6.52-12.55L220.32,201a8,8,0,1,1,13.06,9.15L201.3,256A7.94,7.94,0,0,1,194.77,259.38Z"/><path class="cls-2" d="M146.24,276.88a8,8,0,0,1-6.52-12.55L184,201a8,8,0,0,1,13.07,9.15l-44.33,63.3A8,8,0,0,1,146.24,276.88Z"/></svg>