<svg id="ios-style" xmlns="http://www.w3.org/2000/svg" viewBox="0 0 300 300"><defs><style>.cls-1{fill:#d5d6db;}.cls-2{fill:#fff;}</style></defs><path class="cls-1" d="M127.27,174.5h-5.18l-7.93,7.93a9.55,9.55,0,0,1-4.8,2.59h7.38Z"/><path class="cls-1" d="M178.56,174.5h-5.19L183.9,185h7.37a9.55,9.55,0,0,1-4.79-2.6Z"/><path class="cls-1" d="M100.63,182.4A9.4,9.4,0,0,1,98,177.16l-5.28,5.27A9.43,9.43,0,0,1,87.92,185h17.54A9.58,9.58,0,0,1,100.63,182.4Z"/><path class="cls-1" d="M243.21,105c0-.85.09-1.71.09-2.57a38.35,38.35,0,0,0-57.05-33.5,58.73,58.73,0,0,0-116,13c0,.33,0,.67,0,1A51.65,51.65,0,0,0,81.49,185H84a9.55,9.55,0,0,1-6.92-12.82,9.55,9.55,0,0,1,0-14.51,9.54,9.54,0,0,1,15.63-10.22L98,152.74a9.55,9.55,0,0,1,16.19-5.27l7.93,7.93h5.18L111.5,139.62H99.37a9.54,9.54,0,0,1-5.2-17.55,9.55,9.55,0,0,1,13.28-13.27A9.54,9.54,0,0,1,125,114v12.14l15.77,15.77v-5.19l-7.93-7.93a9.56,9.56,0,0,1,5.27-16.19l-5.27-5.28a9.55,9.55,0,0,1,10.24-15.63,9.53,9.53,0,0,1,14.49,0,9.55,9.55,0,0,1,10.23,15.64l-5.26,5.27a9.55,9.55,0,0,1,5.26,16.19l-7.92,7.93v5.18l15.76-15.76V114a9.55,9.55,0,0,1,17.56-5.2,9.55,9.55,0,0,1,13.27,13.28,9.54,9.54,0,0,1-5.19,17.55H189.14L173.37,155.4h5.19l7.93-7.93a9.53,9.53,0,0,1,16.17,5.28l5.28-5.28a9.55,9.55,0,0,1,15.65,10.23,9.55,9.55,0,0,1,0,14.5,9.67,9.67,0,0,1,.65,3.47,9.5,9.5,0,0,1-2.8,6.76,9.62,9.62,0,0,1-4.81,2.59h12.19A41.32,41.32,0,0,0,243.21,105Z"/><path class="cls-1" d="M207.92,182.41l-5.25-5.26a9.57,9.57,0,0,1-7.46,7.87h17.54A9.64,9.64,0,0,1,207.92,182.41Z"/><path class="cls-2" d="M221.44,165a4.06,4.06,0,0,0-4.06-4.06h-3.63l3.82-3.81a4.07,4.07,0,0,0,0-5.73,4.16,4.16,0,0,0-5.74,0l-9.54,9.54h-10l3.8-3.81a4.06,4.06,0,0,0,0-5.73,4.15,4.15,0,0,0-5.73,0l-9.54,9.54H160.11l26.76-26.76h14.41a4.05,4.05,0,1,0,0-8.1H195l6.49-6.5a4.06,4.06,0,0,0,0-5.73,4.16,4.16,0,0,0-5.74,0l-6.48,6.49V114a4.06,4.06,0,0,0-8.12,0V128.4l-26.75,26.75V134.44l9.54-9.54a4.06,4.06,0,0,0,0-5.74,4.16,4.16,0,0,0-5.74,0l-3.8,3.81V113l9.54-9.56a4,4,0,0,0,0-5.72,4.16,4.16,0,0,0-5.74,0l-3.8,3.8V97.89a4.06,4.06,0,0,0-8.11,0v3.62l-3.82-3.8a4.14,4.14,0,0,0-5.72,0,4,4,0,0,0,0,5.72l9.54,9.56v10l-3.81-3.81a4.15,4.15,0,0,0-5.73,0,4.06,4.06,0,0,0,0,5.74l9.54,9.54v20.71L119.51,128.4V114a4.06,4.06,0,1,0-8.11,0v6.3l-6.5-6.49a4.14,4.14,0,0,0-5.72,0,4,4,0,0,0,0,5.73l6.49,6.5h-6.3a4.05,4.05,0,1,0,0,8.1h14.41l26.75,26.76H119.81l-9.54-9.54a4.15,4.15,0,0,0-5.73,0,4,4,0,0,0,0,5.73l3.81,3.81h-10l-9.55-9.54a4.15,4.15,0,0,0-5.73,0,4.07,4.07,0,0,0,0,5.73l3.81,3.81H83.27a4.06,4.06,0,1,0,0,8.12h3.61l-3.8,3.8a4.07,4.07,0,0,0,0,5.73,4.13,4.13,0,0,0,5.73,0L98.36,169h10l-3.8,3.79a4.07,4.07,0,0,0,0,5.74,4.19,4.19,0,0,0,5.74,0l9.54-9.53h20.72l-26.75,26.74H99.37a4.06,4.06,0,0,0,0,8.12h6.29l-6.48,6.48a4.07,4.07,0,0,0,0,5.75,4.15,4.15,0,0,0,5.72,0l6.5-6.49v6.3a4.06,4.06,0,1,0,8.11,0V201.49l26.76-26.76v20.73L136.73,205a4,4,0,0,0,0,5.72,4.14,4.14,0,0,0,5.72,0l3.82-3.81v10l-9.54,9.54a4.06,4.06,0,0,0,0,5.73,4.13,4.13,0,0,0,5.73,0l3.82-3.81V232a4.06,4.06,0,0,0,8.11,0v-3.63l3.8,3.8a4.19,4.19,0,0,0,5.74,0,4.06,4.06,0,0,0,0-5.74l-9.54-9.54v-10l3.8,3.81a4.2,4.2,0,0,0,5.74,0,4,4,0,0,0,0-5.72l-9.54-9.54V174.73l26.75,26.76v14.42a4.06,4.06,0,1,0,8.12,0v-6.3l6.48,6.49a4.19,4.19,0,0,0,5.74,0,4,4,0,0,0,1.19-2.88,4,4,0,0,0-1.19-2.86L195,203.87h6.29a4.06,4.06,0,1,0,0-8.12H186.87L160.11,169h20.72l9.54,9.53a4.13,4.13,0,0,0,5.73,0,4,4,0,0,0,0-5.73l-3.8-3.8h10l9.53,9.53a4.2,4.2,0,0,0,5.75,0,4.07,4.07,0,0,0,0-5.73l-3.81-3.8h3.62A4.06,4.06,0,0,0,221.44,165Z"/><path class="cls-2" d="M80,213.84a.82.82,0,0,0-.81-.82h-.73l.77-.77a.83.83,0,0,0,0-1.15.84.84,0,0,0-1.16,0L76.13,213h-2l.77-.77a.81.81,0,0,0,0-1.15.83.83,0,0,0-1.15,0L71.81,213H67.63L73,207.63h2.9a.82.82,0,0,0,.82-.82.81.81,0,0,0-.82-.81H74.66l1.3-1.31a.82.82,0,0,0,0-1.16.85.85,0,0,0-1.15,0l-1.31,1.31v-1.27a.82.82,0,0,0-1.64,0v2.91l-5.38,5.38v-4.17l1.92-1.92a.83.83,0,0,0,.24-.58.82.82,0,0,0-1.4-.58l-.76.77v-2l1.92-1.92a.82.82,0,0,0,0-1.16.84.84,0,0,0-1.16,0l-.76.77v-.73a.82.82,0,1,0-1.64,0v.73l-.77-.77a.82.82,0,0,0-1.15,1.16l1.92,1.92v2l-.77-.77a.83.83,0,0,0-1.15,0,.84.84,0,0,0-.24.58.83.83,0,0,0,.24.58l1.92,1.92v4.17l-5.39-5.39v-2.9a.82.82,0,0,0-.82-.82.82.82,0,0,0-.81.82v1.27l-1.31-1.31a.84.84,0,0,0-1.15,0,.8.8,0,0,0-.24.58.83.83,0,0,0,.23.58L56.66,206H55.39a.81.81,0,0,0-.81.81.82.82,0,0,0,.81.82h2.9l5.4,5.39H59.51l-1.92-1.92a.84.84,0,0,0-1.16,0,.81.81,0,0,0,0,1.15l.77.77h-2l-1.92-1.92a.84.84,0,0,0-1.16,0,.82.82,0,0,0,0,1.15l.77.77h-.73a.82.82,0,0,0,0,1.64h.73l-.77.76a.83.83,0,0,0-.24.58.82.82,0,0,0,1.4.58l1.92-1.92h2l-.77.76a.83.83,0,0,0-.24.58.84.84,0,0,0,.24.58.86.86,0,0,0,1.16,0l1.92-1.92h4.17L58.3,220H55.39a.82.82,0,0,0,0,1.64h1.27L55.36,223a.76.76,0,0,0-.24.57.78.78,0,0,0,.24.58.83.83,0,0,0,1.15,0l1.31-1.3v1.26a.82.82,0,0,0,.81.82.82.82,0,0,0,.82-.82v-2.9l5.39-5.39V220l-1.92,1.92a.81.81,0,0,0,0,1.15.83.83,0,0,0,1.15,0l.77-.77v2l-1.92,1.92a.83.83,0,0,0-.24.58.8.8,0,0,0,.24.57.83.83,0,0,0,1.15,0l.77-.77v.74a.82.82,0,0,0,1.64,0v-.73l.76.76a.84.84,0,0,0,1.16,0,.8.8,0,0,0,.24-.57.83.83,0,0,0-.24-.58l-1.92-1.92v-2l.76.77a.86.86,0,0,0,1.16,0,.81.81,0,0,0,0-1.15L66.48,220v-4.18l5.38,5.39v2.9a.82.82,0,1,0,1.64,0v-1.26l1.31,1.3a.83.83,0,0,0,1.15,0A.81.81,0,0,0,76,223l-1.3-1.31h1.26a.82.82,0,1,0,0-1.64H73l-5.39-5.38h4.18l1.92,1.92a.83.83,0,0,0,1.15,0,.8.8,0,0,0,.24-.58.78.78,0,0,0-.24-.58l-.76-.76h2l1.92,1.92a.86.86,0,0,0,1.16,0,.83.83,0,0,0,.23-.58.82.82,0,0,0-.23-.58l-.77-.76h.73A.82.82,0,0,0,80,213.84Z"/><path class="cls-2" d="M123.27,251.38a.82.82,0,0,0-.82-.82h-.73l.77-.77a.83.83,0,0,0,0-1.15.84.84,0,0,0-1.16,0l-1.92,1.92h-2l.77-.77a.81.81,0,0,0,0-1.15.83.83,0,0,0-1.15,0l-1.92,1.92h-4.18l5.39-5.39h2.91a.82.82,0,0,0,.81-.82.81.81,0,0,0-.81-.81h-1.27l1.3-1.31a.81.81,0,0,0,0-1.15.83.83,0,0,0-1.15,0l-1.31,1.3v-1.27a.82.82,0,0,0-.82-.81.81.81,0,0,0-.81.81V244l-5.39,5.39v-4.18l1.92-1.92a.81.81,0,0,0,0-1.15.84.84,0,0,0-1.16,0l-.76.76v-2l1.92-1.92a.82.82,0,0,0,0-1.16.86.86,0,0,0-1.16,0l-.76.77v-.73a.82.82,0,0,0-1.64,0v.73l-.77-.77a.85.85,0,0,0-1.15,0,.82.82,0,0,0,0,1.16l1.92,1.92v2l-.76-.76a.84.84,0,0,0-1.16,0,.81.81,0,0,0,0,1.15l1.92,1.92v4.18L102.73,244v-2.91a.82.82,0,0,0-.82-.81.81.81,0,0,0-.81.81v1.27l-1.31-1.3a.83.83,0,0,0-1.15,0,.76.76,0,0,0-.24.57.78.78,0,0,0,.24.58l1.3,1.31H98.67a.81.81,0,0,0-.81.81.82.82,0,0,0,.81.82h2.91l5.39,5.39h-4.18l-1.92-1.92a.83.83,0,0,0-1.15,0,.8.8,0,0,0-.24.58.78.78,0,0,0,.24.57l.76.77h-2l-1.92-1.92a.84.84,0,0,0-1.16,0,.83.83,0,0,0,0,1.15l.77.77h-.73a.82.82,0,0,0,0,1.64h.73l-.77.76a.82.82,0,1,0,1.16,1.16l1.92-1.92h2l-.76.76a.8.8,0,0,0-.24.58.83.83,0,0,0,.23.58.86.86,0,0,0,1.16,0l1.92-1.92H107l-5.38,5.38H98.67a.82.82,0,0,0,0,1.64h1.27l-1.3,1.31a.81.81,0,0,0,0,1.15.83.83,0,0,0,1.15,0l1.31-1.3v1.27a.81.81,0,0,0,.81.81.82.82,0,0,0,.82-.81v-2.91l5.39-5.39v4.18l-1.92,1.92a.81.81,0,0,0,0,1.15.83.83,0,0,0,1.15,0l.77-.77v2l-1.92,1.92a.83.83,0,0,0-.24.58.8.8,0,0,0,.24.57.83.83,0,0,0,1.15,0l.77-.77v.73a.82.82,0,1,0,1.64,0v-.73l.76.77a.86.86,0,0,0,1.16,0,.84.84,0,0,0,.24-.58.83.83,0,0,0-.24-.58l-1.92-1.92v-2l.76.76a.85.85,0,0,0,1.16,0,.81.81,0,0,0,0-1.15l-1.92-1.92v-4.18l5.39,5.39v2.91a.81.81,0,0,0,.81.81.82.82,0,0,0,.82-.81v-1.27l1.31,1.3a.83.83,0,0,0,1.15,0,.81.81,0,0,0,0-1.15l-1.3-1.31h1.27a.82.82,0,0,0,0-1.64H116.3l-5.39-5.38h4.18l1.92,1.92a.83.83,0,0,0,1.15,0,.82.82,0,0,0,0-1.16l-.76-.76h2l1.92,1.92a.86.86,0,0,0,1.16,0,.85.85,0,0,0,0-1.16l-.77-.76h.73A.82.82,0,0,0,123.27,251.38Z"/><path class="cls-2" d="M186,262.45a.82.82,0,0,0-.82-.82h-.73l.77-.77a.81.81,0,0,0,0-1.15.84.84,0,0,0-1.16,0l-1.92,1.92h-2l.77-.77a.82.82,0,0,0,0-1.15.83.83,0,0,0-1.15,0l-1.92,1.92H173.6l5.4-5.39h2.9a.82.82,0,0,0,.82-.82.82.82,0,0,0-.82-.81h-1.27l1.31-1.31a.82.82,0,0,0,0-1.16.84.84,0,0,0-1.16,0l-1.31,1.31v-1.27a.82.82,0,0,0-.81-.82.82.82,0,0,0-.82.82v2.9l-5.39,5.39V256.3l1.92-1.92a.82.82,0,0,0,0-1.16.83.83,0,0,0-1.15,0l-.77.77v-2l1.92-1.93a.81.81,0,0,0,0-1.15.83.83,0,0,0-1.15,0l-.77.77v-.73a.82.82,0,0,0-.82-.82.82.82,0,0,0-.81.82v.73l-.77-.77a.84.84,0,0,0-1.16,0,.83.83,0,0,0,0,1.15l1.93,1.93v2l-.77-.77a.83.83,0,0,0-1.15,0,.82.82,0,0,0,0,1.16l1.92,1.92v4.17l-5.39-5.39v-2.9a.82.82,0,1,0-1.64,0v1.27l-1.31-1.31a.82.82,0,0,0-1.15,1.16l1.31,1.31h-1.27a.82.82,0,0,0-.82.81.82.82,0,0,0,.82.82h2.9l5.39,5.39h-4.17l-1.92-1.92a.84.84,0,0,0-1.16,0,.81.81,0,0,0,0,1.15l.77.77h-2l-1.92-1.92a.83.83,0,0,0-1.15,0,.81.81,0,0,0,0,1.15l.76.77h-.73a.82.82,0,0,0-.81.82.81.81,0,0,0,.81.81h.73l-.76.77a.78.78,0,0,0-.24.58.8.8,0,0,0,.24.58.84.84,0,0,0,1.15,0l1.92-1.93h2l-.77.77a.78.78,0,0,0-.24.58.76.76,0,0,0,.24.57.85.85,0,0,0,1.16,0l1.92-1.93h4.17l-5.39,5.39h-2.9a.82.82,0,0,0,0,1.64h1.27l-1.31,1.31a.8.8,0,0,0-.24.57.82.82,0,0,0,1.39.58l1.31-1.31v1.27a.82.82,0,0,0,1.64,0v-2.9l5.39-5.39v4.17l-1.93,1.93a.83.83,0,0,0,0,1.15.84.84,0,0,0,1.16,0l.77-.77v2l-1.92,1.92a.78.78,0,0,0-.24.57.82.82,0,0,0,.23.58.84.84,0,0,0,1.16,0l.77-.77V276a.81.81,0,0,0,.81.81.82.82,0,0,0,.82-.81v-.74l.77.77a.83.83,0,0,0,1.15,0,.81.81,0,0,0,0-1.15l-1.92-1.92v-2l.77.77a.85.85,0,0,0,1.15,0,.81.81,0,0,0,0-1.15l-1.92-1.93v-4.17l5.39,5.39v2.9a.82.82,0,0,0,.82.82.82.82,0,0,0,.81-.82v-1.27l1.31,1.31a.84.84,0,0,0,1.16,0,.83.83,0,0,0,.24-.58.8.8,0,0,0-.24-.57l-1.31-1.31h1.27a.82.82,0,0,0,0-1.64H179l-5.4-5.39h4.18l1.92,1.93a.81.81,0,0,0,1.39-.58.82.82,0,0,0-.23-.58l-.77-.77h2l1.92,1.93a.86.86,0,0,0,1.16,0,.84.84,0,0,0,.24-.58.83.83,0,0,0-.24-.58l-.77-.77h.73A.82.82,0,0,0,186,262.45Z"/><path class="cls-2" d="M252.65,212.1a.82.82,0,0,0-.82-.82h-.73l.77-.77a.83.83,0,0,0,0-1.15.84.84,0,0,0-1.16,0l-1.92,1.92h-2l.76-.77a.81.81,0,0,0,0-1.15.83.83,0,0,0-1.15,0l-1.92,1.92h-4.18l5.39-5.39h2.91a.82.82,0,0,0,.81-.82.81.81,0,0,0-.81-.81h-1.27l1.3-1.31a.82.82,0,0,0,0-1.16.85.85,0,0,0-1.15,0l-1.31,1.31v-1.27a.82.82,0,0,0-.82-.82.82.82,0,0,0-.81.82v2.9l-5.39,5.39V206l1.92-1.92a.82.82,0,1,0-1.16-1.16l-.76.77v-2l1.92-1.93a.81.81,0,0,0,0-1.15.84.84,0,0,0-1.16,0l-.76.77v-.73a.82.82,0,1,0-1.64,0v.73l-.77-.77a.83.83,0,0,0-1.15,0,.81.81,0,0,0,0,1.15l1.92,1.93v2l-.77-.77a.83.83,0,0,0-1.15,0,.82.82,0,0,0,0,1.16L237.5,206v4.17l-5.39-5.39v-2.9a.82.82,0,0,0-.82-.82.82.82,0,0,0-.81.82v1.27l-1.31-1.31a.84.84,0,0,0-1.15,0,.82.82,0,0,0,0,1.16l1.3,1.31h-1.27a.81.81,0,0,0-.81.81.82.82,0,0,0,.81.82H231l5.39,5.39h-4.18l-1.92-1.92a.83.83,0,0,0-1.15,0,.81.81,0,0,0,0,1.15l.76.77h-2l-1.92-1.92a.84.84,0,0,0-1.16,0,.83.83,0,0,0,0,1.15l.77.77h-.73a.82.82,0,0,0,0,1.64h.73l-.77.76a.83.83,0,0,0-.24.58.82.82,0,0,0,1.4.58l1.92-1.92h2l-.76.76a.78.78,0,0,0-.24.58.8.8,0,0,0,.24.58.85.85,0,0,0,1.15,0l1.92-1.92h4.18L231,218.3h-2.91a.82.82,0,0,0,0,1.64h1.27l-1.3,1.3a.8.8,0,0,0-.24.58.78.78,0,0,0,.24.58.83.83,0,0,0,1.15,0l1.31-1.31v1.27a.82.82,0,0,0,.81.82.82.82,0,0,0,.82-.82v-2.9l5.39-5.39v4.17l-1.92,1.93a.81.81,0,0,0,0,1.15.84.84,0,0,0,1.15,0l.77-.77v2l-1.92,1.92a.81.81,0,0,0,1.15,1.15l.77-.77v.74a.82.82,0,0,0,1.64,0v-.73l.76.76a.84.84,0,0,0,1.16,0,.81.81,0,0,0,0-1.15l-1.92-1.92v-2l.76.77a.86.86,0,0,0,1.16,0,.81.81,0,0,0,0-1.15l-1.92-1.93v-4.17l5.39,5.39v2.9a.82.82,0,0,0,.81.82.82.82,0,0,0,.82-.82v-1.27l1.31,1.31a.83.83,0,0,0,1.15,0,.78.78,0,0,0,.24-.58.8.8,0,0,0-.24-.58l-1.3-1.3h1.27a.82.82,0,0,0,0-1.64h-2.91l-5.39-5.38h4.18l1.92,1.92a.84.84,0,0,0,1.15,0,.8.8,0,0,0,.24-.58.78.78,0,0,0-.24-.58l-.76-.76h2l1.92,1.92a.86.86,0,0,0,1.16,0,.84.84,0,0,0,.24-.58.83.83,0,0,0-.24-.58l-.77-.76h.73A.82.82,0,0,0,252.65,212.1Z"/><path class="cls-2" d="M67.26,256.89a.82.82,0,0,0-.82-.81h-.73l.77-.77a.82.82,0,0,0,0-1.16.84.84,0,0,0-1.16,0l-1.92,1.93h-2l.76-.77A.82.82,0,0,0,61,254.15l-1.92,1.93H54.9l5.4-5.4h2.9a.82.82,0,0,0,.82-.81.82.82,0,0,0-.82-.82H61.93l1.31-1.31a.83.83,0,0,0,0-1.15.84.84,0,0,0-1.16,0l-1.31,1.3v-1.26a.81.81,0,0,0-.81-.82.82.82,0,0,0-.82.82v2.9l-5.39,5.39v-4.18l1.92-1.92a.81.81,0,0,0,0-1.15.83.83,0,0,0-1.15,0l-.77.76v-2l1.92-1.92a.82.82,0,0,0,0-1.16.84.84,0,0,0-1.15,0l-.77.76v-.73a.82.82,0,0,0-.82-.81.81.81,0,0,0-.81.81v.73l-.77-.76a.84.84,0,0,0-1.16,0,.83.83,0,0,0,0,1.15l1.93,1.92v2l-.77-.77a.84.84,0,0,0-1.16,0,.81.81,0,0,0,0,1.15l1.93,1.92v4.18l-5.4-5.39v-2.9a.81.81,0,0,0-.81-.82.82.82,0,0,0-.82.82v1.26l-1.31-1.3a.81.81,0,1,0-1.15,1.15l1.31,1.31H42.67a.82.82,0,0,0-.82.82.82.82,0,0,0,.82.81h2.9l5.39,5.4H46.79l-1.93-1.93a.83.83,0,0,0-1.15,0,.82.82,0,0,0,0,1.16l.77.77h-2l-1.92-1.93a.82.82,0,0,0-1.15,1.16l.76.77h-.73a.81.81,0,0,0-.81.81.82.82,0,0,0,.81.82h.73l-.76.76a.8.8,0,0,0-.24.58.78.78,0,0,0,.24.58.83.83,0,0,0,1.15,0l1.92-1.92h2l-.77.76a.8.8,0,0,0-.24.58.78.78,0,0,0,.24.58.85.85,0,0,0,1.15,0l1.93-1.92H51l-5.39,5.39h-2.9a.82.82,0,1,0,0,1.63h1.27L42.63,266a.83.83,0,0,0-.24.58.86.86,0,0,0,.24.58.85.85,0,0,0,1.15,0l1.31-1.31v1.27a.82.82,0,0,0,.82.82.82.82,0,0,0,.81-.82v-2.91l5.4-5.39V263L50.19,265a.83.83,0,0,0,0,1.15.84.84,0,0,0,1.16,0l.77-.76v2l-1.93,1.92a.82.82,0,1,0,1.16,1.16l.77-.77v.73a.82.82,0,0,0,.81.82.82.82,0,0,0,.82-.82v-.73l.77.77a.85.85,0,0,0,1.15,0,.82.82,0,0,0,0-1.16l-1.92-1.92v-2l.77.76a.83.83,0,0,0,1.15,0,.81.81,0,0,0,0-1.15L53.75,263v-4.18l5.39,5.39v2.91A.82.82,0,0,0,60,268a.82.82,0,0,0,.81-.82v-1.27l1.31,1.31a.82.82,0,0,0,1.4-.58.83.83,0,0,0-.24-.58l-1.31-1.31H63.2a.82.82,0,1,0,0-1.63H60.3l-5.4-5.39h4.18L61,259.63a.83.83,0,0,0,1.15,0,.78.78,0,0,0,.24-.58.8.8,0,0,0-.24-.58l-.76-.76h2l1.92,1.92a.86.86,0,0,0,1.16,0,.83.83,0,0,0,.24-.58.84.84,0,0,0-.24-.58l-.77-.76h.73A.82.82,0,0,0,67.26,256.89Z"/><path class="cls-2" d="M238.39,255.15a.82.82,0,0,0-.82-.82h-.73l.77-.76a.82.82,0,0,0,0-1.16.84.84,0,0,0-1.16,0l-1.92,1.92h-2l.76-.76a.82.82,0,0,0-1.15-1.16l-1.92,1.92H226l5.39-5.39h2.91a.82.82,0,0,0,.81-.82.81.81,0,0,0-.81-.81h-1.27l1.3-1.31a.81.81,0,0,0,0-1.15.83.83,0,0,0-1.15,0l-1.31,1.3v-1.27a.82.82,0,0,0-1.63,0v2.91l-5.39,5.39V249l1.92-1.92a.81.81,0,0,0,0-1.15.84.84,0,0,0-1.16,0l-.76.76v-2l1.92-1.92a.82.82,0,0,0,0-1.16.85.85,0,0,0-1.16,0l-.76.77v-.73a.82.82,0,0,0-1.64,0v.73l-.76-.77a.85.85,0,0,0-1.16,0,.82.82,0,0,0,0,1.16l1.92,1.92v2l-.76-.76a.84.84,0,0,0-1.16,0,.81.81,0,0,0,0,1.15l1.92,1.92v4.18l-5.39-5.39v-2.91a.82.82,0,0,0-1.63,0v1.27l-1.31-1.3a.83.83,0,0,0-1.15,0,.81.81,0,0,0,0,1.15l1.3,1.31h-1.27a.81.81,0,0,0-.81.81.82.82,0,0,0,.81.82h2.91l5.39,5.39h-4.18L216,252.41a.83.83,0,0,0-1.15,0,.82.82,0,0,0,0,1.16l.77.76h-2l-1.92-1.92a.82.82,0,0,0-1.16,1.16l.77.76h-.73a.82.82,0,1,0,0,1.64h.73l-.77.76a.82.82,0,1,0,1.16,1.16l1.92-1.92h2l-.76.76a.82.82,0,0,0,0,1.16.85.85,0,0,0,1.15,0l1.92-1.92h4.18l-5.39,5.39h-2.91a.81.81,0,0,0-.81.81.82.82,0,0,0,.81.82h1.27l-1.3,1.31a.81.81,0,0,0,0,1.15.83.83,0,0,0,1.15,0l1.31-1.3v1.27a.82.82,0,0,0,1.63,0v-2.91l5.39-5.39v4.18l-1.92,1.92a.81.81,0,0,0,0,1.15.84.84,0,0,0,1.16,0l.76-.76v2l-1.92,1.92a.84.84,0,0,0-.24.58.8.8,0,0,0,.24.57.84.84,0,0,0,1.16,0l.76-.77v.73a.82.82,0,0,0,1.64,0v-.73l.76.76a.85.85,0,0,0,1.16,0,.82.82,0,0,0,0-1.16l-1.92-1.92v-2l.76.76a.84.84,0,0,0,1.16,0,.81.81,0,0,0,0-1.15l-1.92-1.92v-4.18l5.39,5.39v2.91a.82.82,0,0,0,1.63,0v-1.27l1.31,1.3a.83.83,0,0,0,1.15,0,.81.81,0,0,0,0-1.15l-1.3-1.31h1.27a.82.82,0,0,0,.81-.82.81.81,0,0,0-.81-.81h-2.91L226,256h4.18l1.92,1.92a.83.83,0,0,0,1.15,0,.82.82,0,0,0,0-1.16l-.76-.76h2l1.92,1.92a.86.86,0,0,0,1.16,0,.82.82,0,0,0,0-1.16l-.77-.76h.73A.82.82,0,0,0,238.39,255.15Z"/></svg>