<svg id="ios-style" xmlns="http://www.w3.org/2000/svg" viewBox="0 0 300 300"><defs><style>.cls-1{fill:#969aa4;}.cls-2{fill:#fff;}</style></defs><path class="cls-1" d="M158.25,249.48a35.75,35.75,0,0,1-15.07-3.23c-10.1-4.73-15.78-14-15.57-25.35a7.58,7.58,0,0,1,15.16.27c-.1,5.43,2.14,9.14,6.84,11.34,6.8,3.19,16.77,1.94,22.23-2.77,3.87-3.34,4.9-7.8,3.15-13.62-3.69-12.24-15.5-16.86-24.75-18.58-20.83-3.89-47.67,3.71-57.43,16.26a7.58,7.58,0,1,1-12-9.31c13.23-17,45.61-26.81,72.18-21.87,18.94,3.53,31.89,13.88,36.49,29.13,3.45,11.48.63,22.22-7.76,29.46C175.5,246.62,166.85,249.48,158.25,249.48Z"/><path class="cls-1" d="M190.8,150.35c16.52-.25,29.29-7.7,35.06-20.44a32.47,32.47,0,0,0-4.59-34.32c-8.63-10.11-22.6-13.46-38.33-9.17a7.59,7.59,0,0,0,4,14.64c10-2.72,18.07-1.17,22.8,4.38A17.43,17.43,0,0,1,212,123.66c-3.29,7.28-10.91,11.37-21.46,11.53-9,.12-18.38-1.36-28.14-3.32a76.38,76.38,0,0,1-5.37,14.39C168.25,148.57,179.64,150.53,190.8,150.35Z"/><path class="cls-1" d="M275.19,178.69a38.62,38.62,0,0,0-29.92-26.28c-12.41-2.44-24.37,1.14-34.93,4.29-4,1.18-7.67,2.3-11.33,3.1-11.38,2.52-22.39.27-34.06-2.1-4.18-.85-8.5-1.73-12.95-2.42l-.15,0A76.89,76.89,0,0,1,140,169c3.14.34,6.38.78,9.69,1.29,4.1.63,8.24,1.47,12.24,2.29,12.71,2.59,25.84,5.26,40.37,2.05,4.19-.92,8.36-2.17,12.39-3.38,9.74-2.91,18.94-5.65,27.67-3.94,9,1.77,15.7,7.61,18.4,16,2.86,8.94.52,18.55-6.24,25.71a17.49,17.49,0,0,1-16.21,5.48c-8.29-1.39-16.32-7.78-20-15.89a7.58,7.58,0,0,0-13.82,6.25c5.74,12.72,18,22.37,31.28,24.6a35.7,35.7,0,0,0,5.87.5,32.34,32.34,0,0,0,23.88-10.53A41.17,41.17,0,0,0,275.19,178.69Z"/><path class="cls-2" d="M154,116.07a3.84,3.84,0,0,0-3.83-3.83h-3.11l3.35-3.34a3.83,3.83,0,0,0,0-5.41,3.94,3.94,0,0,0-5.42,0l-8.75,8.75h-8.93l3.34-3.34a3.83,3.83,0,0,0,0-5.41,3.92,3.92,0,0,0-5.4,0l-8.75,8.75H97.71L122.15,87.8h13.23a3.83,3.83,0,1,0,0-7.65h-5.57l5.81-5.81a3.83,3.83,0,0,0,0-5.41,3.92,3.92,0,0,0-5.42,0l-5.81,5.81V69.17a3.83,3.83,0,1,0-7.66,0V82.39L92.31,106.82V88l8.75-8.75a3.84,3.84,0,0,0,0-5.42,3.92,3.92,0,0,0-5.42,0L92.31,77.2V68.28l8.75-8.76a3.83,3.83,0,0,0,0-5.41,3.93,3.93,0,0,0-5.41,0l-3.33,3.34v-3.1a3.83,3.83,0,0,0-7.66,0v3.1L81.3,54.11a3.92,3.92,0,0,0-5.41,0,3.84,3.84,0,0,0,0,5.4l8.76,8.76v8.93L81.3,73.86a3.92,3.92,0,0,0-5.41,0,3.84,3.84,0,0,0,0,5.42L84.65,88v18.8L60.2,82.39V69.17a3.82,3.82,0,1,0-7.64,0v5.57l-5.82-5.81a3.91,3.91,0,0,0-5.4,0,3.77,3.77,0,0,0-1.13,2.7,3.81,3.81,0,0,0,1.13,2.71l5.8,5.81H41.57a3.83,3.83,0,1,0,0,7.65H54.8l24.43,24.44H60.43l-8.75-8.75a3.93,3.93,0,0,0-5.41,0,3.77,3.77,0,0,0-1.13,2.7,3.81,3.81,0,0,0,1.13,2.71l3.34,3.34H40.69l-8.77-8.75a3.91,3.91,0,0,0-5.4,0,3.83,3.83,0,0,0,0,5.41l3.34,3.34h-3.1a3.83,3.83,0,1,0,0,7.66h3.09l-3.33,3.34a3.83,3.83,0,0,0,0,5.41,3.9,3.9,0,0,0,5.4,0l8.77-8.75h8.92l-3.34,3.34a3.81,3.81,0,0,0,0,5.41,4,4,0,0,0,5.42,0l8.75-8.75h18.8L54.8,144.33H41.57a3.83,3.83,0,1,0,0,7.66h5.57l-5.8,5.81a3.77,3.77,0,0,0-1.13,2.7,3.81,3.81,0,0,0,1.13,2.72,3.91,3.91,0,0,0,5.4,0l5.82-5.81V163a3.82,3.82,0,1,0,7.64,0V149.75L84.65,125.3v18.81l-8.76,8.76a3.84,3.84,0,0,0,0,5.4,3.92,3.92,0,0,0,5.41,0l3.35-3.34v8.93l-8.76,8.75a3.83,3.83,0,0,0,0,5.41,3.91,3.91,0,0,0,5.41,0l3.35-3.35v3.11a3.83,3.83,0,0,0,7.66,0v-3.11L95.63,178a3.94,3.94,0,0,0,5.43,0,3.84,3.84,0,0,0,0-5.42l-8.75-8.75v-8.92l3.33,3.33a4,4,0,0,0,5.42,0,3.84,3.84,0,0,0,0-5.4l-8.75-8.76v-18.8l24.42,24.44V163a3.83,3.83,0,0,0,7.66,0v-5.57l5.81,5.81a4,4,0,0,0,5.42,0,3.83,3.83,0,0,0,0-5.41L129.81,152h5.57a3.83,3.83,0,1,0,0-7.66H122.15L97.71,119.9h18.81l8.75,8.75a3.9,3.9,0,0,0,5.4,0,3.8,3.8,0,0,0,0-5.41l-3.33-3.34h8.92l8.75,8.75a4,4,0,0,0,5.42,0,3.83,3.83,0,0,0,0-5.41l-3.34-3.34h3.1A3.84,3.84,0,0,0,154,116.07Z"/></svg>