<svg id="ios-style" xmlns="http://www.w3.org/2000/svg" viewBox="0 0 300 300"><defs><style>.cls-1{fill:#ffae02;}.cls-2{fill:#ffe001;}.cls-3{fill:#d5d6db;}</style></defs><path class="cls-1" d="M140.92,57.52a3.75,3.75,0,0,0,3.76-3.74V31.26a3.76,3.76,0,0,0-7.52,0V53.78A3.75,3.75,0,0,0,140.92,57.52Z"/><path class="cls-1" d="M223.5,140.1a3.75,3.75,0,0,0,3.74,3.76h22.52a3.76,3.76,0,1,0,0-7.52H227.24A3.75,3.75,0,0,0,223.5,140.1Z"/><path class="cls-1" d="M58.34,140.1a3.75,3.75,0,0,0-3.73-3.76H32.08a3.76,3.76,0,1,0,0,7.52H54.61A3.75,3.75,0,0,0,58.34,140.1Z"/><path class="cls-1" d="M202,82.81a3.76,3.76,0,0,0,2.65-1.1l21.52-21.53a3.74,3.74,0,1,0-5.29-5.3L199.31,76.4A3.76,3.76,0,0,0,202,82.81Z"/><path class="cls-1" d="M82.53,198.49a3.75,3.75,0,0,0-5.31,0L55.7,220a3.75,3.75,0,1,0,5.3,5.3L82.53,203.8A3.75,3.75,0,0,0,82.53,198.49Z"/><path class="cls-1" d="M77.22,81.71a3.75,3.75,0,1,0,5.31-5.31L61,54.88a3.75,3.75,0,0,0-5.3,5.3Z"/><path class="cls-1" d="M216.92,107.85a3.76,3.76,0,0,0,3.47,2.26,3.56,3.56,0,0,0,1.46-.29l10.38-4.4a3.75,3.75,0,0,0-2.94-6.9l-10.37,4.4A3.77,3.77,0,0,0,216.92,107.85Z"/><path class="cls-1" d="M64.92,172.35a3.78,3.78,0,0,0-4.93-2l-10.37,4.41A3.75,3.75,0,0,0,51.1,182a3.59,3.59,0,0,0,1.45-.3l10.37-4.39A3.78,3.78,0,0,0,64.92,172.35Z"/><path class="cls-1" d="M49,107l10.45,4.22a3.41,3.41,0,0,0,1.39.27,3.74,3.74,0,0,0,1.41-7.22l-10.44-4.23A3.75,3.75,0,0,0,49,107Z"/><path class="cls-1" d="M103.74,62.1a3.75,3.75,0,0,0,3.46,2.29,3.85,3.85,0,0,0,1.47-.29,3.78,3.78,0,0,0,2-4.93L106.24,48.8a3.75,3.75,0,0,0-6.9,2.93Z"/><path class="cls-1" d="M171.86,63.53a3.44,3.44,0,0,0,1.39.27,3.72,3.72,0,0,0,3.48-2.34L181,51a3.76,3.76,0,0,0-7-2.8l-4.21,10.45A3.71,3.71,0,0,0,171.86,63.53Z"/><path class="cls-1" d="M84.62,140.1a56.3,56.3,0,0,1,112.54-2.57,51.62,51.62,0,0,1,18.77,5.07c0-.83.06-1.66.06-2.5A75.07,75.07,0,1,0,98,201.69a36.06,36.06,0,0,1,7.13-18.11A56.18,56.18,0,0,1,84.62,140.1Z"/><path class="cls-2" d="M140.92,83.8a56.3,56.3,0,0,0-35.77,99.78,36.23,36.23,0,0,1,39.41-13,51.82,51.82,0,0,1,48.63-33.25c1.33,0,2.66.07,4,.17A56.29,56.29,0,0,0,140.92,83.8Z"/><path class="cls-3" d="M240.26,193.17a40.14,40.14,0,0,1-8.72,79.33H117a32.11,32.11,0,0,1-11.17-62.22c0-.66-.08-1.33-.08-2a29.8,29.8,0,0,1,44.35-26,45.64,45.64,0,0,1,90.15,10.14c0,.26,0,.52,0,.78Zm0,0"/></svg>