<svg id="ios-style" xmlns="http://www.w3.org/2000/svg" viewBox="0 0 300 300"><defs><style>.cls-1{fill:#fff;}.cls-2{fill:#969aa4;}.cls-3{fill:#5ac8fa;}</style></defs><path class="cls-1" d="M177.51,107.19a34.94,34.94,0,0,1,41.41,17.21,50.5,50.5,0,0,0,25.85-20.93,51.21,51.21,0,0,1-8.82.78A50.31,50.31,0,0,1,193.13,27.5,50.33,50.33,0,0,0,151.64,77c0,.78,0,1.56.06,2.33A50,50,0,0,1,177.51,107.19Z"/><path class="cls-2" d="M85.86,125.86c0-.26,0-.52,0-.78a44.51,44.51,0,0,1,87.91-9.88A29.07,29.07,0,0,1,217,140.58c0,.66,0,1.31-.07,2A31.31,31.31,0,0,1,206,203.2H94.36a39.14,39.14,0,0,1-8.5-77.34Zm0,0"/><path class="cls-3" d="M67.93,258.36a6.45,6.45,0,0,1-5.27-10.14l25.91-37a6.44,6.44,0,0,1,10.56,7.39l-25.92,37A6.43,6.43,0,0,1,67.93,258.36Z"/><path class="cls-3" d="M87.34,272.5a6.45,6.45,0,0,1-5.28-10.14l35.82-51.15a6.44,6.44,0,0,1,10.56,7.39L92.62,269.75A6.43,6.43,0,0,1,87.34,272.5Z"/><path class="cls-3" d="M126.55,258.36a6.45,6.45,0,0,1-5.27-10.14l25.91-37a6.44,6.44,0,0,1,10.56,7.39l-25.92,37A6.43,6.43,0,0,1,126.55,258.36Z"/><path class="cls-3" d="M185.16,258.36a6.45,6.45,0,0,1-5.27-10.14l25.92-37a6.44,6.44,0,1,1,10.55,7.39l-25.91,37A6.45,6.45,0,0,1,185.16,258.36Z"/><path class="cls-3" d="M146,272.5a6.45,6.45,0,0,1-5.27-10.14l35.82-51.15a6.44,6.44,0,1,1,10.55,7.39l-35.81,51.15A6.43,6.43,0,0,1,146,272.5Z"/></svg>