<svg id="ios-style" xmlns="http://www.w3.org/2000/svg" viewBox="0 0 300 300"><defs><style>.cls-1{fill:#d5d6db;}.cls-2{fill:#969aa4;}.cls-3{fill:#fff;}</style></defs><path class="cls-1" d="M128.57,193.29h-3.8L119,199.1a7.09,7.09,0,0,1-3.52,1.91h5.42Z"/><path class="cls-1" d="M166.17,193.29h-3.8l7.72,7.72h5.4a7,7,0,0,1-3.51-1.92Z"/><path class="cls-1" d="M109.05,199.08a6.9,6.9,0,0,1-2-3.84l-3.87,3.86A6.89,6.89,0,0,1,99.73,201h12.85A7,7,0,0,1,109.05,199.08Z"/><path class="cls-2" d="M213.57,142.32c0-.63.07-1.26.07-1.89a28.12,28.12,0,0,0-41.83-24.55,43.05,43.05,0,0,0-85,9.56c0,.25,0,.5,0,.74A37.87,37.87,0,0,0,95,201h1.81a7,7,0,0,1-5.07-9.41,7,7,0,0,1,0-10.63,7,7,0,0,1,11.45-7.5l3.87,3.87A7,7,0,0,1,119,173.47l5.81,5.82h3.8L117,167.72h-8.9a7,7,0,0,1-3.8-12.87,7,7,0,0,1,9.73-9.73,7,7,0,0,1,12.87,3.81v8.9l11.56,11.56v-3.8l-5.81-5.82a7,7,0,0,1,0-9.9,6.92,6.92,0,0,1,3.86-2L132.65,144a7,7,0,0,1,5-11.94,6.88,6.88,0,0,1,2.55.48,7,7,0,0,1,10.63,0,6.84,6.84,0,0,1,2.55-.48,6.93,6.93,0,0,1,4.94,2,7,7,0,0,1,0,9.9l-3.86,3.87a7,7,0,0,1,3.86,11.87l-5.81,5.81v3.79L164,157.83v-8.9a7,7,0,0,1,12.87-3.81,7,7,0,0,1,9.74,9.73,7,7,0,0,1-3.81,12.87h-8.89l-11.57,11.57h3.8l5.82-5.82a7,7,0,0,1,11.85,3.88l3.88-3.88a7,7,0,0,1,11.46,7.5,7,7,0,0,1,0,10.63,7,7,0,0,1-1.58,7.5,7.09,7.09,0,0,1-3.52,1.91H203a30.29,30.29,0,0,0,10.54-58.69Z"/><path class="cls-1" d="M187.7,199.09l-3.85-3.85a7,7,0,0,1-2,3.86,6.92,6.92,0,0,1-3.5,1.91h12.86A7.13,7.13,0,0,1,187.7,199.09Z"/><path class="cls-3" d="M197.61,186.29a3,3,0,0,0-3-3H192l2.79-2.79a3,3,0,0,0,0-4.2,3.06,3.06,0,0,0-4.21,0l-7,7h-7.33l2.79-2.79a3,3,0,0,0,0-4.2,3,3,0,0,0-4.2,0l-7,7H152.65l19.61-19.62h10.57a3,3,0,1,0,0-5.93h-4.62L183,153a3,3,0,0,0,0-4.2,3.06,3.06,0,0,0-4.21,0L174,153.55v-4.62a3,3,0,0,0-5.95,0v10.56L148.45,179.1V163.92l7-7a3,3,0,0,0,0-4.21,3.06,3.06,0,0,0-4.21,0l-2.78,2.79v-7.32l7-7a3,3,0,0,0,0-4.2,3.06,3.06,0,0,0-4.21,0l-2.78,2.78v-2.64a3,3,0,0,0-5.95,0v2.65L139.7,137a3,3,0,0,0-4.19,0,3,3,0,0,0,0,4.2l7,7v7.32l-2.79-2.79a3,3,0,0,0-4.2,0,3,3,0,0,0,0,4.21l7,7V179.1l-19.62-19.61V148.93a3,3,0,1,0-5.94,0v4.62l-4.76-4.76a3,3,0,0,0-4.2,0,3,3,0,0,0,0,4.2l4.75,4.77h-4.62a3,3,0,1,0,0,5.93h10.57l19.61,19.62H123.11l-7-7a3,3,0,0,0-4.2,0,2.92,2.92,0,0,0-.87,2.1,3,3,0,0,0,.87,2.1l2.79,2.79h-7.32l-7-7a3,3,0,0,0-4.2,0,3,3,0,0,0,0,4.2L99,183.31H96.31a3,3,0,0,0,0,5.95H99l-2.78,2.79a3,3,0,0,0,0,4.2,3,3,0,0,0,4.2,0l7-7h7.32l-2.79,2.79a3,3,0,0,0,0,4.2,3.08,3.08,0,0,0,4.21,0l7-7h15.18l-19.61,19.61H108.11a3,3,0,0,0,0,5.95h4.62L108,219.58a2.94,2.94,0,0,0-.87,2.1,3,3,0,0,0,.87,2.11,3.05,3.05,0,0,0,4.2,0l4.76-4.76v4.62a3,3,0,0,0,5.94,0V213.08l19.62-19.62v15.2l-7,7a3,3,0,0,0,0,4.19,3,3,0,0,0,4.19,0l2.8-2.79v7.32l-7,7a2.94,2.94,0,0,0-.87,2.1,3,3,0,0,0,.86,2.1,3,3,0,0,0,4.2,0l2.8-2.79v2.66a3,3,0,1,0,5.95,0v-2.66l2.78,2.79a3.08,3.08,0,0,0,4.21,0,3,3,0,0,0,0-4.2l-7-7v-7.32l2.79,2.79a3.06,3.06,0,0,0,4.2,0,3,3,0,0,0,0-4.19l-7-7v-15.2l19.61,19.62v10.57a3,3,0,0,0,5.95,0V219l4.75,4.76a3.08,3.08,0,0,0,4.21,0,3,3,0,0,0,.87-2.11,2.94,2.94,0,0,0-.87-2.1l-4.76-4.76h4.62a3,3,0,1,0,0-5.95H172.26l-19.61-19.61h15.19l7,7a3,3,0,0,0,4.2,0,3,3,0,0,0,0-4.2l-2.78-2.79h7.32l7,7a3.08,3.08,0,0,0,4.21,0,3,3,0,0,0,0-4.2L192,189.26h2.65A3,3,0,0,0,197.61,186.29Z"/><path class="cls-3" d="M175.54,107.24A35,35,0,0,1,217,124.45a50.55,50.55,0,0,0,25.86-21,50.33,50.33,0,0,1-51.67-76,50.35,50.35,0,0,0-41.51,49.56c0,.78,0,1.55.06,2.32A50,50,0,0,1,175.54,107.24Z"/><path class="cls-3" d="M132.13,251.55a.63.63,0,0,0-.63-.64h-.57l.59-.6a.63.63,0,0,0,0-.9.65.65,0,0,0-.9,0l-1.49,1.5h-1.57l.6-.6a.64.64,0,0,0-.9-.9l-1.5,1.5h-3.25l4.2-4.2H129a.64.64,0,0,0,.64-.64.64.64,0,0,0-.64-.63h-1l1-1a.64.64,0,1,0-.9-.9l-1,1v-1a.64.64,0,0,0-.64-.64.64.64,0,0,0-.63.64v2.26l-4.2,4.2v-3.25l1.5-1.5a.65.65,0,0,0,0-.9.65.65,0,0,0-.9,0l-.6.6v-1.57l1.5-1.5a.64.64,0,0,0-.9-.9l-.6.6V241a.64.64,0,0,0-.64-.64.64.64,0,0,0-.63.64v.57l-.6-.6a.65.65,0,0,0-.9,0,.63.63,0,0,0,0,.9l1.5,1.5V245l-.6-.6a.65.65,0,0,0-.9,0,.65.65,0,0,0,0,.9l1.5,1.5V250l-4.2-4.2v-2.26a.64.64,0,0,0-.64-.64.64.64,0,0,0-.63.64v1l-1-1a.65.65,0,0,0-.9,0,.63.63,0,0,0,0,.9l1,1h-1a.64.64,0,0,0-.64.63.64.64,0,0,0,.64.64h2.26l4.2,4.2h-3.25l-1.5-1.5a.65.65,0,0,0-.9,0,.63.63,0,0,0,0,.9l.6.6h-1.57l-1.5-1.5a.64.64,0,0,0-.9.9l.6.6h-.57a.64.64,0,0,0,0,1.27H111l-.6.6a.65.65,0,0,0,0,.9.65.65,0,0,0,.9,0l1.5-1.5h1.57l-.6.6a.63.63,0,0,0,0,.9.67.67,0,0,0,.9,0l1.5-1.5h3.25l-4.2,4.2H113a.64.64,0,0,0-.64.63.64.64,0,0,0,.64.64h1l-1,1a.63.63,0,0,0,0,.9.65.65,0,0,0,.9,0l1-1v1a.64.64,0,0,0,.63.64.64.64,0,0,0,.64-.64v-2.26l4.2-4.2v3.25l-1.5,1.5a.63.63,0,0,0,0,.9.66.66,0,0,0,.9,0l.6-.6v1.57l-1.5,1.49a.65.65,0,0,0,0,.9.63.63,0,0,0,.9,0l.6-.59v.57a.63.63,0,0,0,.63.63.64.64,0,0,0,.64-.63v-.57l.6.59a.65.65,0,0,0,.9,0,.65.65,0,0,0,0-.9l-1.5-1.49v-1.57l.6.6a.67.67,0,0,0,.9,0,.65.65,0,0,0,0-.9l-1.5-1.5v-3.25l4.2,4.2v2.26a.64.64,0,0,0,.63.64.64.64,0,0,0,.64-.64v-1l1,1a.65.65,0,0,0,.9,0,.65.65,0,0,0,0-.9l-1-1h1a.64.64,0,0,0,.64-.64.64.64,0,0,0-.64-.63h-2.26l-4.2-4.2h3.25l1.5,1.5a.65.65,0,0,0,.9,0,.65.65,0,0,0,0-.9l-.6-.6h1.57l1.49,1.5a.67.67,0,0,0,.9,0,.63.63,0,0,0,0-.9l-.59-.6h.57A.63.63,0,0,0,132.13,251.55Z"/><path class="cls-3" d="M175.71,261.34a.63.63,0,0,0-.64-.63h-.57l.6-.6a.63.63,0,0,0,0-.9.65.65,0,0,0-.9,0l-1.49,1.5h-1.57l.59-.6a.63.63,0,1,0-.89-.9l-1.5,1.5h-3.25l4.2-4.2h2.26a.64.64,0,0,0,0-1.28h-1l1-1a.62.62,0,0,0,0-.89.65.65,0,0,0-.9,0l-1,1v-1a.64.64,0,1,0-1.28,0v2.26l-4.19,4.19v-3.25l1.49-1.49a.63.63,0,0,0,0-.9.65.65,0,0,0-.9,0l-.59.59v-1.56l1.49-1.5a.63.63,0,0,0,0-.9.65.65,0,0,0-.9,0l-.59.6v-.57a.64.64,0,0,0-.64-.64.64.64,0,0,0-.63.64v.57l-.6-.6a.65.65,0,0,0-.9,0,.63.63,0,0,0,0,.9l1.5,1.5v1.57l-.6-.6a.65.65,0,0,0-.9,0,.63.63,0,0,0,0,.9l1.5,1.49v3.25l-4.2-4.19v-2.26a.64.64,0,0,0-.64-.64.63.63,0,0,0-.63.64v1l-1-1a.65.65,0,0,0-.9,0,.64.64,0,0,0-.19.45.65.65,0,0,0,.19.45l1,1h-1a.64.64,0,1,0,0,1.28h2.25l4.21,4.2h-3.26l-1.49-1.5a.65.65,0,0,0-.9,0,.63.63,0,0,0,0,.9l.6.6H156.4l-1.5-1.5a.65.65,0,0,0-.9,0,.63.63,0,0,0,0,.9l.6.6H154a.64.64,0,0,0-.64.63.64.64,0,0,0,.64.64h.57l-.6.59a.63.63,0,0,0-.18.46.63.63,0,0,0,1.08.45l1.5-1.5H158l-.59.59a.64.64,0,0,0-.19.46.63.63,0,0,0,.19.44.66.66,0,0,0,.9,0l1.49-1.5H163l-4.19,4.19h-2.26a.64.64,0,1,0,0,1.28h1l-1,1a.62.62,0,0,0-.19.45.64.64,0,0,0,.19.45.65.65,0,0,0,.9,0l1-1v1a.63.63,0,0,0,.63.63.64.64,0,0,0,.64-.63v-2.26l4.2-4.2v3.25l-1.5,1.5a.62.62,0,0,0,0,.89.65.65,0,0,0,.9,0l.6-.59v1.57l-1.5,1.49a.63.63,0,0,0,0,.9.65.65,0,0,0,.9,0l.6-.6v.57a.64.64,0,0,0,.63.64.64.64,0,0,0,.64-.64v-.57l.59.6a.65.65,0,0,0,.9,0,.63.63,0,0,0,0-.9l-1.49-1.49v-1.57l.6.59a.63.63,0,1,0,.89-.9l-1.49-1.49v-3.25l4.19,4.2v2.26a.64.64,0,0,0,1.28,0v-1l1,1a.65.65,0,0,0,.9,0,.63.63,0,0,0,.18-.45.61.61,0,0,0-.18-.45l-1-1h1a.64.64,0,0,0,0-1.28h-2.26l-4.2-4.19h3.25l1.49,1.5a.65.65,0,0,0,.9,0,.63.63,0,0,0,.19-.45.6.6,0,0,0-.19-.46l-.59-.59h1.57l1.49,1.5a.64.64,0,0,0,1.09-.45.64.64,0,0,0-.19-.46l-.6-.59h.57A.64.64,0,0,0,175.71,261.34Z"/><path class="cls-3" d="M88.55,232a.64.64,0,0,0-.63-.64h-.57l.6-.6a.64.64,0,1,0-.9-.9l-1.5,1.5H84l.6-.6a.63.63,0,0,0,0-.9.65.65,0,0,0-.9,0l-1.5,1.5H78.93l4.2-4.2h2.26a.64.64,0,0,0,.64-.64.64.64,0,0,0-.64-.63h-1l1-1a.63.63,0,0,0,0-.9.65.65,0,0,0-.9,0l-1,1v-1a.64.64,0,1,0-1.27,0v2.26l-4.2,4.2v-3.25l1.5-1.5a.63.63,0,0,0,0-.9.65.65,0,0,0-.9,0l-.6.6v-1.57l1.5-1.5a.63.63,0,0,0,0-.9.66.66,0,0,0-.9,0L78,222v-.56a.64.64,0,1,0-1.27,0V222l-.6-.59a.65.65,0,0,0-.9,0,.64.64,0,0,0,0,.89l1.5,1.5v1.57l-.6-.6a.65.65,0,0,0-.9,0,.65.65,0,0,0,0,.9l1.5,1.5v3.25l-4.2-4.2V224a.64.64,0,1,0-1.27,0v1l-1-1a.65.65,0,0,0-.9,0,.65.65,0,0,0,0,.9l1,1h-1a.64.64,0,0,0-.64.63.64.64,0,0,0,.64.64h2.26l4.2,4.2H72.61l-1.5-1.5a.65.65,0,0,0-.9,0,.65.65,0,0,0,0,.9l.6.6H69.24l-1.5-1.5a.64.64,0,1,0-.9.9l.6.6h-.56a.64.64,0,0,0-.64.64.64.64,0,0,0,.64.63h.56l-.6.6a.65.65,0,0,0,0,.9.65.65,0,0,0,.9,0l1.5-1.5h1.57l-.6.6a.65.65,0,0,0,0,.9.65.65,0,0,0,.9,0l1.5-1.5h3.25l-4.2,4.2H69.4a.64.64,0,0,0-.64.64.64.64,0,0,0,.64.63h1l-1,1a.63.63,0,0,0-.18.45.59.59,0,0,0,.18.45.65.65,0,0,0,.9,0l1-1v1a.64.64,0,1,0,1.27,0v-2.26l4.2-4.2v3.25l-1.5,1.5a.64.64,0,1,0,.9.9l.6-.6v1.57l-1.5,1.5a.63.63,0,0,0-.18.45.59.59,0,0,0,.18.44.64.64,0,0,0,.9,0l.6-.6v.57a.64.64,0,0,0,1.27,0v-.57l.6.59a.66.66,0,0,0,.9,0,.63.63,0,0,0,0-.9L78,240.1v-1.57l.6.6a.67.67,0,0,0,.9,0,.63.63,0,0,0,0-.9l-1.5-1.5v-3.25l4.2,4.2v2.26a.64.64,0,1,0,1.27,0v-1l1,1a.65.65,0,0,0,.9,0,.63.63,0,0,0,0-.9l-1-1h1a.64.64,0,0,0,.64-.63.64.64,0,0,0-.64-.64H83.13l-4.2-4.2h3.25l1.5,1.5a.65.65,0,0,0,.9,0,.65.65,0,0,0,0-.9l-.6-.6h1.57l1.5,1.5a.65.65,0,0,0,.9,0,.65.65,0,0,0,0-.9l-.6-.6h.57A.63.63,0,0,0,88.55,232Z"/><path class="cls-3" d="M219.29,241.74a.64.64,0,0,0-.64-.63h-.57l.6-.6a.63.63,0,0,0,0-.9.65.65,0,0,0-.9,0l-1.5,1.5h-1.56l.59-.6a.63.63,0,0,0,0-.9.65.65,0,0,0-.9,0l-1.49,1.5h-3.25l4.2-4.2h2.25a.64.64,0,0,0,.64-.64.64.64,0,0,0-.64-.63h-1l1-1a.63.63,0,0,0,0-.9.65.65,0,0,0-.9,0l-1,1v-1a.64.64,0,0,0-.63-.64.64.64,0,0,0-.64.64V236l-4.19,4.2V237l1.49-1.5a.63.63,0,0,0,0-.9.65.65,0,0,0-.9,0l-.59.6v-1.57l1.49-1.5a.63.63,0,0,0,0-.9.66.66,0,0,0-.9,0l-.59.6v-.57a.64.64,0,0,0-1.28,0v.57l-.59-.6a.66.66,0,0,0-.9,0,.63.63,0,0,0,0,.9l1.49,1.5v1.57l-.59-.6a.65.65,0,0,0-.9,0,.63.63,0,0,0,0,.9l1.49,1.5v3.25l-4.2-4.2v-2.26a.64.64,0,0,0-.63-.64.64.64,0,0,0-.64.64v1l-1-1a.64.64,0,0,0-.89,0,.63.63,0,0,0,0,.9l1,1h-1a.63.63,0,0,0-.63.63.64.64,0,0,0,.63.64h2.26l4.2,4.2h-3.25l-1.49-1.5a.65.65,0,0,0-.9,0,.63.63,0,0,0,0,.9l.59.6H200l-1.5-1.5a.65.65,0,0,0-.9,0,.63.63,0,0,0,0,.9l.6.6h-.57a.64.64,0,1,0,0,1.27h.57l-.6.6a.63.63,0,0,0,0,.9.65.65,0,0,0,.9,0l1.5-1.5h1.56l-.59.6a.63.63,0,0,0,0,.9.67.67,0,0,0,.9,0l1.49-1.5h3.25l-4.2,4.2h-2.26a.64.64,0,0,0,0,1.27h1l-1,1a.63.63,0,0,0,0,.9.64.64,0,0,0,.89,0l1-1v1a.64.64,0,0,0,.64.64.64.64,0,0,0,.63-.64v-2.26l4.2-4.2v3.25L206,248a.63.63,0,0,0,0,.9.65.65,0,0,0,.9,0l.59-.6v1.57L206,251.39a.67.67,0,0,0-.19.45.62.62,0,0,0,.19.45.64.64,0,0,0,.9,0l.59-.59v.56a.64.64,0,1,0,1.28,0v-.56l.59.59a.65.65,0,0,0,.9,0,.62.62,0,0,0,.19-.45.67.67,0,0,0-.19-.45l-1.49-1.49v-1.57l.59.6a.67.67,0,0,0,.9,0,.63.63,0,0,0,0-.9l-1.49-1.5v-3.25l4.19,4.2v2.26a.64.64,0,0,0,.64.64.64.64,0,0,0,.63-.64v-1l1,1a.65.65,0,0,0,.9,0,.63.63,0,0,0,0-.9l-1-1h1a.64.64,0,1,0,0-1.27h-2.25l-4.2-4.2h3.25l1.49,1.5a.65.65,0,0,0,.9,0,.63.63,0,0,0,0-.9l-.59-.6h1.56l1.5,1.5a.67.67,0,0,0,.9,0,.63.63,0,0,0,0-.9l-.6-.6h.57A.64.64,0,0,0,219.29,241.74Z"/></svg>