<svg id="ios-style" xmlns="http://www.w3.org/2000/svg" viewBox="0 0 300 300"><defs><style>.cls-1{fill:#fff;}.cls-2{fill:#969aa4;}.cls-3{fill:#5ac8fa;}</style></defs><path class="cls-1" d="M126.06,150.71l-15.89,57.76h21.26l.11,47.47,46.82-73.85H157.29L168,150.71Z"/><path class="cls-2" d="M216.88,147.06c.05-.66.08-1.32.08-2a29.49,29.49,0,0,0-43.86-25.75,45.14,45.14,0,0,0-89.16,10c0,.26,0,.52,0,.78a39.7,39.7,0,0,0,8.62,78.45h12l17.4-63.2h53.47l-10.73,31.37H188l-20.18,31.83h38a31.76,31.76,0,0,0,11-61.53Z"/><path class="cls-3" d="M162.23,270.17a6.88,6.88,0,0,1-5.66-10.76l25.82-37.64a6.87,6.87,0,1,1,11.33,7.77L167.9,267.18A6.86,6.86,0,0,1,162.23,270.17Z"/><path class="cls-3" d="M86.12,272.5a6.87,6.87,0,0,1-5.62-10.81l19.72-28a6.87,6.87,0,1,1,11.26,7.88l-19.72,28A6.87,6.87,0,0,1,86.12,272.5Z"/><path class="cls-3" d="M203,263.78a6.87,6.87,0,0,1-5.68-10.73l12.19-17.94a6.87,6.87,0,0,1,11.38,7.71l-12.2,17.94A6.87,6.87,0,0,1,203,263.78Z"/><path class="cls-3" d="M62.63,249.42A6.87,6.87,0,0,1,57,238.69l12.2-17.94a6.87,6.87,0,0,1,11.37,7.71L68.33,246.4A6.88,6.88,0,0,1,62.63,249.42Z"/><path class="cls-1" d="M177.43,110.07a36.2,36.2,0,0,1,42.91,17.82,52.34,52.34,0,0,0,26.79-21.69,52.12,52.12,0,0,1-53.51-78.7,52.14,52.14,0,0,0-43,51.32c0,.81,0,1.61.06,2.41A51.75,51.75,0,0,1,177.43,110.07Z"/></svg>