<?xml version="1.0" encoding="utf-8"?>
<!-- Generator: Adobe Illustrator 16.0.0, SVG Export Plug-In . SVG Version: 6.00 Build 0)  -->
<!DOCTYPE svg PUBLIC "-//W3C//DTD SVG 1.1//EN" "http://www.w3.org/Graphics/SVG/1.1/DTD/svg11.dtd">
<svg version="1.1" id="Layer_1" xmlns="http://www.w3.org/2000/svg" xmlns:xlink="http://www.w3.org/1999/xlink" x="0px" y="0px"
	 width="792px" height="141.788px" viewBox="0 0 792 141.788" enable-background="new 0 0 792 141.788" xml:space="preserve">
<g>
	<defs>
		<rect id="SVGID_1_" width="792" height="141.788"/>
	</defs>
	<clipPath id="SVGID_2_">
		<use xlink:href="#SVGID_1_"  overflow="visible"/>
	</clipPath>
	<path clip-path="url(#SVGID_2_)" fill="#FFFFFF" d="M146.547,91.31h3.5c3.478,0,6.363-0.403,8.701-1.141
		c2.302-0.782,4.319-2.017,6.229-3.582c3.809-3.608,5.792-8.118,5.792-13.625c0-5.6-1.983-10.206-5.755-13.718
		c-3.371-3.157-8.295-4.7-14.967-4.7h-3.5V91.31z M138.833,98.62V47.328h10.74c5.162,0,9.258,0.428,12.201,1.448
		c3.24,1.021,6.183,2.684,8.769,5.15c5.34,4.725,7.953,11.11,7.953,19.036c0,7.857-2.778,14.169-8.298,18.989
		c-2.729,2.562-5.648,4.2-8.686,5.269c-2.859,0.831-6.871,1.4-12.08,1.4H138.833z"/>
	<path clip-path="url(#SVGID_2_)" fill="#FFFFFF" d="M222.393,70.755h2.445c7.286,0,10.978-2.659,10.978-8.353
		c0-5.247-3.548-7.858-10.74-7.858h-2.683V70.755z M231.971,76.761l15.878,21.859h-9.471l-14.573-21.007h-1.412V98.62h-7.797V47.328
		h9.09c6.776,0,11.654,1.14,14.692,3.704c3.322,2.895,4.985,6.621,4.985,11.251c0,3.607-1.058,6.764-3.17,9.423
		C238.142,74.267,235.388,75.976,231.971,76.761"/>
	<polygon clip-path="url(#SVGID_2_)" fill="#FFFFFF" points="284.328,47.328 284.328,98.62 312.583,98.62 312.583,91.309 
		292.054,91.309 292.054,74.197 312.016,74.197 312.016,66.886 292.054,66.886 292.054,54.544 312.583,54.544 312.583,47.328 	"/>
	<polygon clip-path="url(#SVGID_2_)" fill="#FFFFFF" points="351.534,43.84 351.534,98.62 359.271,98.62 359.271,62.661 
		396.607,101.634 396.607,47.328 388.939,47.328 388.939,82.932 	"/>
	<polygon clip-path="url(#SVGID_2_)" fill="#FFFFFF" points="514.829,47.328 514.829,98.62 537.663,98.62 537.663,91.309 
		522.614,91.309 522.614,47.328 	"/>
	<rect x="576.113" y="47.328" clip-path="url(#SVGID_2_)" fill="#FFFFFF" width="7.763" height="51.292"/>
	<polygon clip-path="url(#SVGID_2_)" fill="#FFFFFF" points="622.539,43.84 622.539,98.62 630.37,98.62 630.37,62.661 
		667.731,101.634 667.731,47.328 659.944,47.328 659.944,82.932 	"/>
	<polygon clip-path="url(#SVGID_2_)" fill="#FFFFFF" points="704.02,47.328 704.02,98.62 732.337,98.62 732.337,91.309 
		711.759,91.309 711.759,74.197 731.72,74.197 731.72,66.886 711.759,66.886 711.759,54.544 732.337,54.544 732.337,47.328 	"/>
	<polygon clip-path="url(#SVGID_2_)" fill="#FFFFFF" points="53.804,98.62 62.17,98.62 79.093,61.427 95.185,98.62 103.682,98.62 
		79.2,44.005 	"/>
	<polygon clip-path="url(#SVGID_2_)" fill="#FFFFFF" points="429.243,98.62 437.572,98.62 454.495,61.427 470.636,98.62 
		479.109,98.62 454.639,44.005 	"/>
</g>
</svg>
