<?xml version="1.0" encoding="utf-8"?>
<!-- Generator: Adobe Illustrator 26.0.1, SVG Export Plug-In . SVG Version: 6.00 Build 0)  -->
<svg version="1.1" id="Layer_1" xmlns="http://www.w3.org/2000/svg" xmlns:xlink="http://www.w3.org/1999/xlink" x="0px" y="0px"
	 viewBox="0 0 1024 1024" style="enable-background:new 0 0 1024 1024;" xml:space="preserve">
<style type="text/css">
	.st0{fill:#FCFDFE;}
	.st1{fill:#4B9EFB;}
	.st2{fill:#4C9FFB;}
	.st3{fill:#4B9FFB;}
</style>
<g>
	<path class="st0" d="M320,0.1c1.3,0,2.7,0,4,0c0,22.9,0,45.8,0,68.6c62.3,0,124,0,186,0c0-23.1,0-45.9,0-68.6c1.3,0,2.7,0,4,0
		c0,22.9,0,45.8,0,68.6c62.3,0,124,0,186,0c0-23.1,0-45.9,0-68.6c1.3,0,2.7,0,4,0c0,22.9,0,45.8,0,68.6c83,0,165.3,0,247.9,0
		c0-23.1,0-45.9,0-68.6c1.3,0,2.7,0,4,0c0,21.4,0,42.7,0,64.2c0.8-0.2,1.2-0.1,1.3-0.3c21.2-21.3,42.4-42.6,63.6-63.9
		c2.5-0.5,3.5,0.5,3,3c-21.7,21.6-43.4,43.3-65,64.9c-0.1,0.1,0,0.6,0.1,1c21.6,0,43.3,0,64.9,0c0,1.3,0,2.7,0,4
		c-22.6,0-45.1,0-67.6,0c0,82.7,0,164.6,0,246.9c22.8,0,45.2,0,67.6,0c0,1.3,0,2.7,0,4c-22.6,0-45.1,0-67.6,0c0,62.3,0,124,0,186
		c22.8,0,45.2,0,67.6,0c0,1.3,0,2.7,0,4c-22.6,0-45.1,0-67.6,0c0,62.3,0,124,0,186c22.8,0,45.2,0,67.6,0c0,1.3,0,2.7,0,4
		c-22.6,0-45.1,0-67.6,0c0,83,0,165.3,0,247.9c22.8,0,45.2,0,67.6,0c0,1.3,0,2.7,0,4c-21.4,0-42.7,0-64.2,0c0.2,0.8,0.1,1.2,0.3,1.3
		c21.3,21.2,42.6,42.4,63.9,63.6c0.5,2.5-0.5,3.5-3,3c-21.6-21.3-43.2-42.5-65-64c0,21.3,0,42.6,0,64c-1.3,0-2.7,0-4,0
		c0-22.6,0-45.1,0-67.6c-83,0-165.3,0-247.9,0c0,22.8,0,45.2,0,67.6c-1.3,0-2.7,0-4,0c0-22.6,0-45.1,0-67.6c-62.3,0-124,0-186,0
		c0,22.8,0,45.2,0,67.6c-1.3,0-2.7,0-4,0c0-22.6,0-45.1,0-67.6c-62.3,0-124,0-186,0c0,22.8,0,45.2,0,67.6c-1.3,0-2.7,0-4,0
		c0-22.6,0-45.1,0-67.6c-82.7,0-164.6,0-246.9,0c0,22.8,0,45.2,0,67.6c-1.3,0-2.7,0-4,0c0-21.7,0-43.4,0-65
		c-22.2,21.8-44.1,43.4-66,65c-2.5,0.5-3.5-0.5-3-3c21.3-21.6,42.5-43.2,64-65c-21.3,0-42.6,0-64,0c0-1.3,0-2.7,0-4
		c22.9,0,45.8,0,68.6,0c0-83,0-165.3,0-247.9c-23.1,0-45.9,0-68.6,0c0-1.3,0-2.7,0-4c22.9,0,45.8,0,68.6,0c0-62.3,0-124,0-186
		c-23.1,0-45.9,0-68.6,0c0-1.3,0-2.7,0-4c22.9,0,45.8,0,68.6,0c0-62.3,0-124,0-186c-23.1,0-45.9,0-68.6,0c0-1.3,0-2.7,0-4
		c22.9,0,45.8,0,68.6,0c0-82.7,0-164.6,0-246.9c-23.1,0-45.9,0-68.6,0c0-1.3,0-2.7,0-4c21.7,0,43.4,0,65,0
		C43.3,46.9,21.7,25,0.1,3.1c-0.5-2.5,0.5-3.5,3-3c21.6,21.7,43.3,43.4,64.9,65c0.1,0.1,0.6,0,1-0.1c0-21.6,0-43.3,0-64.9
		c1.3,0,2.7,0,4,0c0,22.9,0,45.8,0,68.6c82.7,0,164.6,0,246.9,0C320,45.7,320,22.9,320,0.1z M514.4,785.1c0,53.2,0,105.8,0,159.4
		c16-1.2,31.6-2,47.2-3.5c46.8-4.6,91.2-17.9,133.8-37.6c3.6-1.7,4.7-3.6,4.7-7.5c-0.1-60-0.1-119.9-0.1-179.9c0-1.6,0-3.2,0-5.9
		C647,758.8,585.4,783.5,514.4,785.1z M785.1,514.2c-1.7,71.3-26.4,132.8-74.8,185.5c2,0.1,3,0.2,3.9,0.2c61,0,121.9,0,182.9,0.1
		c3.2,0,4.6-1.1,5.9-3.9c11.6-24.7,20.9-50.3,27.7-76.8c8-30.7,11.7-62.1,13-93.7c0.2-3.8,0-7.5,0-11.4
		C890.6,514.2,838.1,514.2,785.1,514.2z M509.8,785.1c-71.3-1.7-132.8-26.4-185.7-75c0,2.4,0,3.5,0,4.6c0,60.6,0,121.3-0.1,181.9
		c0,3.2,1.1,4.8,3.9,5.9c20.5,7.8,40.7,16.4,61.4,23.4c29.3,9.9,59.8,14.4,90.5,16.7c9.9,0.7,19.8,0.1,29.9,0.1
		C509.8,890.6,509.8,838.1,509.8,785.1z M785.1,509.6c53.1,0,105.8,0,159.6,0c-1.6-18.5-2.7-36.6-4.8-54.6
		c-5.1-44.7-18.6-87-37.6-127.6c-1.3-2.8-3-3.4-5.8-3.4c-60.6,0.1-121.3,0-181.9,0.1c-1.2,0-2.4,0.3-4.1,0.5
		C758.9,377.2,783.4,438.6,785.1,509.6z M514.1,239c34.6,0.5,67.7,6.9,99.6,19.6c31.9,12.8,60.3,31.2,86.3,55.3c0-3.2,0-5,0-6.8
		c0-59.1-0.1-118.3,0.1-177.4c0-4.5-1.3-6.7-5.4-8.6c-53.5-25-109.8-38-168.7-40c-3.9-0.1-7.8,0-11.9,0
		C514.1,134,514.1,186.1,514.1,239z M238.9,514.4c-52.8,0-105.2,0-158.4,0c1.2,16,2.1,31.6,3.6,47.2c4.5,46.8,17.9,91.2,37.5,133.8
		c1.7,3.6,3.5,4.7,7.5,4.7c59.6-0.1,119.3-0.1,178.9-0.1c1.6,0,3.2,0,6,0C265.2,647,240.5,585.4,238.9,514.4z M509.6,238.9
		c0-52.8,0-105.1,0-158.4c-15.7,1.2-31,2.1-46.2,3.5c-47.5,4.6-92.5,18.3-135.6,38.4c-2.8,1.3-3.9,2.8-3.9,6
		c0.1,60.3,0.1,120.6,0.1,180.9c0,1.2,0.3,2.4,0.5,4.1C377.1,265.2,438.6,240.6,509.6,238.9z M239,509.9
		c0.5-34.7,6.9-67.8,19.7-99.6c12.8-31.9,31.2-60.2,54.9-85.8c-1.3-0.3-1.6-0.4-2-0.4c-61.3,0-122.6,0-183.9-0.1c-3,0-4.1,1.3-5,3.7
		c-7.8,20.3-16.6,40.3-23.4,60.9c-12.4,37.6-17,76.5-18.1,115.9c0,1.7,0,3.5,0,5.4C134,509.9,186.2,509.9,239,509.9z M827.5,200.1
		c0.6,0.7,1.2,1.5,1.9,2.2c31.1,32,57.3,67.5,77.2,107.4c4.1,8.2,8.6,11.4,17.6,10.5c9-0.9,18.2-0.2,27.3-0.2
		c0-81.8,0-162.9,0-243.9C910.3,117.4,869.1,158.6,827.5,200.1z M200.7,828.4c-41.5,41.5-82.7,82.7-123.2,123.2
		c79.8,0,161,0,242.5,0c0-11.7-0.2-23,0.1-34.3c0.1-3.9-1.2-5.8-4.7-7.5c-31.3-15.5-60.5-34.4-87.1-57
		C218.7,844.6,209.4,836,200.7,828.4z M947.3,951.7c-41-41-82.1-82.1-123.4-123.4c0,0-0.6,0.4-1,0.9c-32.2,31.4-68,57.7-108.3,77.7
		c-8.6,4.3-11.9,8.9-10.9,18.3c0.9,8.7,0.2,17.5,0.2,26.4C785.7,951.7,866.7,951.7,947.3,951.7z M828.6,824.4
		c40.9,40.9,82,82,122.9,122.9c0-80.6,0-161.8,0-243.3c-11.7,0-23,0.2-34.3-0.1c-3.6-0.1-5.2,1.2-6.7,4.3
		c-13.7,27.7-29.8,53.9-49.2,77.9C850.6,799.3,839.3,811.9,828.6,824.4z M200.9,196.8C200.7,196.9,200.9,196.9,200.9,196.8
		c34.6-33.6,73.3-61.3,116.4-82.7c1.3-0.7,2.5-3,2.6-4.6c0.2-11.2,0.1-22.3,0.1-33.5c0-0.9-0.4-1.8-0.5-2.7c-81,0-161.7,0-242,0
		C118.4,114.3,159.5,155.3,200.9,196.8z M196.3,201.1C155.1,159.9,114,118.8,73.5,78.3c0,79.7,0,160.6,0,241.8
		c11.8,0,23.3-0.1,34.8,0.1c3.5,0.1,5.2-1.1,6.8-4.2c15.6-31.5,34.5-60.8,57.2-87.6C180.3,218.8,188.7,209.6,196.3,201.1z
		 M823.3,195.7c41.1-41.1,82-82,122.3-122.3c-79.6,0-160.4,0-241.6,0c0,11.3,0.2,22.3-0.1,33.2c-0.1,4.2,1.1,6.4,5,8.3
		c31.7,15.5,61.1,34.6,88,57.4C806.1,180.2,815,188.4,823.3,195.7z M73.4,704c0,81.4,0,162.2,0,242.6
		c40.8-40.8,81.7-81.7,122.8-122.8c-0.2-0.3-0.8-1.2-1.4-1.9c-33-34.1-60.1-72.4-81.1-115c-0.6-1.3-2.6-2.7-3.9-2.8
		C97.8,703.9,85.9,704,73.4,704z M514.4,518.3c0,57.7,0,115.5,0,173.7c48.1-1,88.7-18.4,122.9-50.8
		C595.9,599.8,555.1,559,514.4,518.3z M637.2,382.6c-34.2-32.2-74.9-49.7-122.9-50.6c0,58.4,0,116.2,0,173.5
		C555,464.8,595.9,423.9,637.2,382.6z M691.6,509.8c3.5-37.4-25.1-105.9-50.2-122.3c-41,41-81.9,81.9-122.3,122.3
		C575.8,509.8,633.5,509.8,691.6,509.8z M382.6,386.9c-32.3,34.2-49.7,74.9-50.5,122.9c58.4,0,116.2,0,173.4,0
		C464.8,469,423.9,428.1,382.6,386.9z M332.3,514.2c-2.6,39.5,26.3,108,50.1,122.1c41.1-41.1,81.9-81.9,122.1-122.1
		C448.1,514.2,390.4,514.2,332.3,514.2z M640.7,636.9c26.3-18.1,57.6-93.8,50.5-122.5c-57.8,0-115.6,0-173,0
		C559,555.2,599.9,596,640.7,636.9z M509.6,505.8c0-57.7,0-115.6,0-173.8c-48.1,1-88.7,18.4-122.9,50.8
		C428.1,424.2,468.9,465,509.6,505.8z M509.8,518.7c-40.7,40.7-81.5,81.6-122.5,122.5c21.4,27.4,90.7,55.9,122.5,50
		C509.8,633.6,509.8,575.8,509.8,518.7z M815.5,819.7c-37.4-37.4-74.4-74.4-111.3-111.3c0,63,0,126.5,0,190.6
		C745.9,878.3,782.8,851.7,815.5,819.7z M819.3,815.7c32.4-32.8,59-69.8,79.6-111.4c-64.2,0-127.7,0-191.1,0
		C745,741.4,782,778.3,819.3,815.7z M209,819.1c32.4,32,69.1,58.7,110.7,79.3c0-64.1,0-127.4,0-190C282.9,745.1,246.1,782,209,819.1
		z M708.3,319.6c62.9,0,126.2,0,190.1,0C877.5,278,851,241.2,819,209C781.9,246.1,745,282.9,708.3,319.6z M204.7,814.7
		c37.1-37.1,74-74,110.5-110.5c-62.3,0-125.4,0-189.2,0C146.7,745.8,173,782.6,204.7,814.7z M815.3,205.2
		c-32.8-32.2-69.5-58.6-110.9-79.2c0,63.7,0,127,0,190C741.3,279.2,778,242.5,815.3,205.2z M210,204.9c37,37,73.8,73.8,109.6,109.6
		c0-61.5,0-124.4,0-188C278.2,147.3,241.8,173.6,210,204.9z M127.3,319.8c63,0,125.9,0,188,0c-36.4-36.4-73.2-73.2-110-110
		C182.1,229.9,131.4,301.1,127.3,319.8z M688.6,704.3c-59,0-116.6,0-174.3,0c0,23,0,45.7,0,68.7C581,771.9,638.3,748.8,688.6,704.3z
		 M509.6,772.6c0-23,0-45.7,0-68.2c-57.9,0-115.5,0-173.5,0C384.5,750.1,451.7,773.6,509.6,772.6z M704.1,688.8
		c44.7-50.6,67.9-108,68.8-174.5c-23.3,0-46,0-68.8,0C704.1,572.2,704.1,629.7,704.1,688.8z M336.1,319.7c58.3,0,116,0,173.5,0
		c0-23,0-45.7,0-68.4C448.9,250.6,382.3,275.7,336.1,319.7z M319.8,335.3C275.1,385.8,252,443.2,251,509.6c23.4,0,46.1,0,68.7,0
		C319.8,451.7,319.8,394.2,319.8,335.3z M704.3,335.4c0,59,0,116.6,0,174.3c23,0,45.7,0,68.7,0C771.9,443,748.8,385.7,704.3,335.4z
		 M319.8,514.4c-23.1,0-45.8,0-68.8,0c1.1,66.6,24.2,124,68.8,174.3C319.8,629.8,319.8,572.3,319.8,514.4z M688.8,319.8
		c-50.6-44.7-108-67.9-174.5-68.7c0,23.4,0,45.9,0,68.7C572.1,319.8,629.6,319.8,688.8,319.8z M694.2,698.5
		c-16.2-16.2-32.3-32.3-48.6-48.6c-25.4,24.4-55.8,41-91.7,49.5C571.1,701.4,691.4,700.3,694.2,698.5z M699.5,469
		c2.1-33.7,0.9-136.7-1.2-139.3c-16,16.1-32,32.3-48.3,48.7C674.2,403.7,690.9,434,699.5,469z M329.8,698.3c2.4,2,126.4,3.2,140,1
		c-17.8-4-34-10.3-49.5-18.6c-15.6-8.4-29.6-19.1-41.9-30.7C362,666.3,345.8,682.3,329.8,698.3z M698.3,694.3
		c2-2.4,3.2-126.8,1-139.8c-8.4,35.5-25.1,65.8-49.4,91.1C666.3,662,682.3,678.2,698.3,694.3z M374.4,645.9
		c-24.8-25.8-41.4-56.2-50-91.1c-0.3,45.4-0.4,90.7-0.3,136c0,1.3,0.9,2.7,1.4,3.9C342,678.3,358,662.3,374.4,645.9z M469.5,324.7
		c-0.6-0.4-0.7-0.5-0.8-0.5c-45.1,0-90.3-0.1-135.4-0.1c-1.4,0-2.8,0.9-3.6,1.1c16.4,16.4,32.4,32.4,48.8,48.8
		C403.9,349.6,434.3,333,469.5,324.7z M555,324.5c34.9,8.5,65.3,25.3,90.6,49.6c16.4-16.3,32.5-32.4,48.6-48.4
		C691.7,323.6,592.3,322.4,555,324.5z M373.5,378.9c-16.4-16.4-32.6-32.6-48.8-48.8c0,45.8,0,92.3,0,139.1
		C333,434.1,349.8,403.7,373.5,378.9z M73.4,324.2c0,41.4,0,82.5,0,123.5c6.7-42.8,19.1-83.9,37.5-123.5
		C98.1,324.2,86,324.2,73.4,324.2z M914.1,324.2c18.5,39.9,30.9,80.9,37.5,123.7c0-41.2,0-82.3,0-123.7
		C939.1,324.2,927,324.2,914.1,324.2z M448,73.5c-41.2,0-82.4,0-123.8,0c0,12.5,0,24.6,0,37.4C363.9,92.5,405.1,80,448,73.5z
		 M447.7,951.8c-42.7-6.8-83.9-19.3-123.3-37.6c0,13,0,25.2,0,37.6C365.8,951.8,406.8,951.8,447.7,951.8z M951.7,577.1
		c-6.7,42.5-19,83.2-37,122.5c12.7,0,24.8,0,37,0C951.7,658.6,951.7,617.9,951.7,577.1z M73.5,577.1c0,40.9,0,81.7,0,122.5
		c12.4,0,24.4,0,36.9,0C92.2,660.2,80,619.6,73.5,577.1z M577.1,73.3c42.6,6.7,83.3,19,122.6,37.1c0-12.8,0-24.8,0-37.1
		C658.6,73.3,617.8,73.3,577.1,73.3z M577.1,951.5c40.9,0,81.7,0,122.7,0c0-12.3,0-24.3,0-37C660.4,932.7,619.7,945,577.1,951.5z"/>
	<path class="st1" d="M951.9,0.1c0,22.8,0,45.5,0,68.6c-82.7,0-164.9,0-247.9,0c0-22.9,0-45.8,0-68.6C786.6,0.1,869.2,0.1,951.9,0.1
		z"/>
	<path class="st1" d="M0.1,704c22.8,0,45.5,0,68.6,0c0,82.7,0,164.9,0,247.9c-22.9,0-45.8,0-68.6,0C0.1,869.2,0.1,786.6,0.1,704z"/>
	<path class="st1" d="M0.1,73.1c22.8,0,45.5,0,68.6,0c0,82.3,0,164.3,0,246.9c-22.9,0-45.8,0-68.6,0C0.1,237.7,0.1,155.4,0.1,73.1z"
		/>
	<path class="st1" d="M320,0.1c0,22.8,0,45.5,0,68.6c-82.3,0-164.3,0-246.9,0c0-22.9,0-45.8,0-68.6C155.4,0.1,237.7,0.1,320,0.1z"/>
	<path class="st1" d="M1023.9,951.9c-22.4,0-44.9,0-67.6,0c0-82.7,0-164.9,0-247.9c22.5,0,45.1,0,67.6,0
		C1023.9,786.6,1023.9,869.2,1023.9,951.9z"/>
	<path class="st1" d="M704,1023.9c0-22.4,0-44.9,0-67.6c82.7,0,164.9,0,247.9,0c0,22.5,0,45.1,0,67.6
		C869.2,1023.9,786.6,1023.9,704,1023.9z"/>
	<path class="st1" d="M73.1,1023.9c0-22.4,0-44.9,0-67.6c82.3,0,164.3,0,246.9,0c0,22.5,0,45.1,0,67.6
		C237.7,1023.9,155.4,1023.9,73.1,1023.9z"/>
	<path class="st1" d="M1023.9,320c-22.4,0-44.9,0-67.6,0c0-82.3,0-164.3,0-246.9c22.5,0,45.1,0,67.6,0
		C1023.9,155.4,1023.9,237.7,1023.9,320z"/>
	<path class="st1" d="M700,0.1c0,22.8,0,45.5,0,68.6c-62,0-123.6,0-186,0c0-22.9,0-45.8,0-68.6C576,0.1,638,0.1,700,0.1z"/>
	<path class="st1" d="M0.1,324c22.8,0,45.5,0,68.6,0c0,62,0,123.6,0,186c-22.9,0-45.8,0-68.6,0C0.1,448,0.1,386,0.1,324z"/>
	<path class="st1" d="M510,0.1c0,22.8,0,45.5,0,68.6c-62,0-123.6,0-186,0c0-22.9,0-45.8,0-68.6C386,0.1,448,0.1,510,0.1z"/>
	<path class="st1" d="M0.1,514c22.8,0,45.5,0,68.6,0c0,62,0,123.6,0,186c-22.9,0-45.8,0-68.6,0C0.1,638,0.1,576,0.1,514z"/>
	<path class="st1" d="M324,1023.9c0-22.4,0-44.9,0-67.6c62,0,123.6,0,186,0c0,22.5,0,45.1,0,67.6C448,1023.9,386,1023.9,324,1023.9z
		"/>
	<path class="st1" d="M514,1023.9c0-22.4,0-44.9,0-67.6c62,0,123.6,0,186,0c0,22.5,0,45.1,0,67.6C638,1023.9,576,1023.9,514,1023.9z
		"/>
	<path class="st1" d="M1023.9,700c-22.4,0-44.9,0-67.6,0c0-62,0-123.6,0-186c22.5,0,45.1,0,67.6,0C1023.9,576,1023.9,638,1023.9,700
		z"/>
	<path class="st1" d="M1023.9,510c-22.4,0-44.9,0-67.6,0c0-62,0-123.6,0-186c22.5,0,45.1,0,67.6,0C1023.9,386,1023.9,448,1023.9,510
		z"/>
	<path class="st2" d="M1023.9,69.1c-21.6,0-43.3,0-64.9,0c0-0.5-0.2-0.9-0.1-1c21.7-21.7,43.3-43.3,65-64.9
		C1023.9,25.1,1023.9,47.1,1023.9,69.1z"/>
	<path class="st2" d="M0.1,3.1c21.6,21.9,43.2,43.8,65,66c-21.6,0-43.3,0-65,0C0.1,47.1,0.1,25.1,0.1,3.1z"/>
	<path class="st2" d="M69.1,0.1c0,21.6,0,43.3,0,64.9c-0.5,0-0.9,0.2-1,0.1C46.4,43.5,24.8,21.8,3.1,0.1C25.1,0.1,47.1,0.1,69.1,0.1
		z"/>
	<path class="st2" d="M3.1,1023.9c21.9-21.6,43.8-43.2,66-65c0,21.5,0,43.3,0,65C47.1,1023.9,25.1,1023.9,3.1,1023.9z"/>
	<path class="st2" d="M0.1,955.9c21.4,0,42.7,0,64,0c-21.5,21.8-42.7,43.4-64,65C0.1,999.2,0.1,977.6,0.1,955.9z"/>
	<path class="st2" d="M1020.9,0.1c-21.2,21.3-42.4,42.6-63.6,63.9c-0.2,0.2-0.6,0.1-1.3,0.3c0-21.4,0-42.8,0-64.2
		C977.6,0.1,999.2,0.1,1020.9,0.1z"/>
	<path class="st2" d="M1023.9,1020.9c-21.3-21.2-42.6-42.4-63.9-63.6c-0.2-0.2-0.1-0.6-0.3-1.3c21.4,0,42.8,0,64.2,0
		C1023.9,977.6,1023.9,999.2,1023.9,1020.9z"/>
	<path class="st2" d="M955.9,1023.9c0-21.4,0-42.7,0-64c21.8,21.5,43.4,42.7,65,64C999.2,1023.9,977.6,1023.9,955.9,1023.9z"/>
	<path class="st3" d="M514.4,785.1c71-1.7,132.6-26.3,185.5-75c0,2.8,0,4.3,0,5.9c0,60,0,119.9,0.1,179.9c0,3.9-1.1,5.8-4.7,7.5
		c-42.6,19.7-87,33-133.8,37.6c-15.5,1.5-31.1,2.4-47.2,3.5C514.4,891,514.4,838.3,514.4,785.1z"/>
	<path class="st3" d="M785.1,514.2c52.9,0,105.5,0,158.7,0c0,3.8,0.1,7.6,0,11.4c-1.3,31.7-5,63-13,93.7
		c-6.9,26.4-16.1,52-27.7,76.8c-1.3,2.8-2.8,3.9-5.9,3.9c-61-0.1-121.9-0.1-182.9-0.1c-0.9,0-1.9-0.1-3.9-0.2
		C758.8,647.1,783.4,585.5,785.1,514.2z"/>
	<path class="st3" d="M509.8,785.1c0,52.9,0,105.5,0,157.7c-10.1,0-20.1,0.6-29.9-0.1c-30.8-2.3-61.2-6.8-90.5-16.7
		c-20.8-7-41-15.6-61.4-23.4c-2.8-1.1-3.9-2.7-3.9-5.9c0.1-60.6,0.1-121.3,0.1-181.9c0-1.1,0-2.2,0-4.6
		C376.9,758.8,438.5,783.4,509.8,785.1z"/>
	<path class="st3" d="M785.1,509.6c-1.7-71-26.3-132.4-74.6-185.1c1.7-0.2,2.9-0.5,4.1-0.5c60.6,0,121.3,0,181.9-0.1
		c2.8,0,4.5,0.6,5.8,3.4c19,40.6,32.5,82.9,37.6,127.6c2.1,18,3.2,36.1,4.8,54.6C890.9,509.6,838.2,509.6,785.1,509.6z"/>
	<path class="st3" d="M514.1,239c0-52.9,0-105,0-157.7c4,0,7.9-0.1,11.9,0c58.9,1.9,115.2,15,168.7,40c4.1,1.9,5.4,4.1,5.4,8.6
		c-0.2,59.1-0.1,118.3-0.1,177.4c0,1.8,0,3.6,0,6.8c-26-24.1-54.4-42.5-86.3-55.3C581.9,245.9,548.8,239.5,514.1,239z"/>
	<path class="st3" d="M238.9,514.4c1.7,71.1,26.3,132.6,75,185.6c-2.8,0-4.4,0-6,0c-59.6,0-119.3,0-178.9,0.1
		c-3.9,0-5.8-1.1-7.5-4.7c-19.7-42.6-33-87-37.5-133.8c-1.5-15.5-2.4-31.1-3.6-47.2C133.7,514.4,186.1,514.4,238.9,514.4z"/>
	<path class="st3" d="M509.6,238.9c-71,1.7-132.5,26.3-185.1,74.6c-0.2-1.7-0.5-2.9-0.5-4.1c0-60.3,0-120.6-0.1-180.9
		c0-3.2,1.1-4.7,3.9-6C371,102.3,415.9,88.6,463.4,84c15.2-1.5,30.5-2.4,46.2-3.5C509.6,133.7,509.6,186.1,509.6,238.9z"/>
	<path class="st3" d="M239,509.9c-52.8,0-104.9,0-157.8,0c0-1.9,0-3.6,0-5.4c1.1-39.4,5.7-78.4,18.1-115.9
		c6.8-20.6,15.5-40.6,23.4-60.9c0.9-2.3,2.1-3.7,5-3.7c61.3,0.1,122.6,0.1,183.9,0.1c0.3,0,0.6,0.1,2,0.4
		c-23.6,25.5-42.1,53.9-54.9,85.8C245.9,442.1,239.5,475.2,239,509.9z"/>
	<path class="st3" d="M827.5,200.1c41.6-41.6,82.8-82.7,124-124c0,81,0,162.1,0,243.9c-9.1,0-18.3-0.7-27.3,0.2
		c-9.1,0.9-13.5-2.3-17.6-10.5c-19.9-39.9-46.1-75.5-77.2-107.4C828.7,201.6,828.1,200.8,827.5,200.1z"/>
	<path class="st3" d="M200.7,828.4c8.7,7.7,18,16.2,27.6,24.4c26.7,22.6,55.8,41.5,87.1,57c3.5,1.7,4.8,3.6,4.7,7.5
		c-0.3,11.3-0.1,22.6-0.1,34.3c-81.5,0-162.7,0-242.5,0C118,911.1,159.2,869.9,200.7,828.4z"/>
	<path class="st3" d="M947.3,951.7c-80.5,0-161.6,0-243.3,0c0-8.9,0.7-17.8-0.2-26.4c-1-9.4,2.2-14.1,10.9-18.3
		c40.3-20,76.1-46.4,108.3-77.7c0.5-0.5,1-0.8,1-0.9C865.2,869.6,906.3,910.7,947.3,951.7z"/>
	<path class="st3" d="M828.6,824.4c10.7-12.5,22-25.1,32.7-38.3c19.4-24,35.5-50.3,49.2-77.9c1.5-3.1,3.2-4.4,6.7-4.3
		c11.3,0.3,22.6,0.1,34.3,0.1c0,81.5,0,162.8,0,243.3C910.7,906.5,869.5,865.3,828.6,824.4z"/>
	<path class="st3" d="M200.9,196.8c-41.4-41.4-82.5-82.5-123.4-123.4c80.2,0,161,0,242,0c0.2,0.8,0.5,1.7,0.5,2.7
		c0,11.2,0.1,22.3-0.1,33.5c0,1.6-1.2,3.9-2.6,4.6C274.2,135.5,235.5,163.2,200.9,196.8C200.9,196.9,200.7,196.9,200.9,196.8z"/>
	<path class="st3" d="M196.3,201.1c-7.6,8.5-16,17.7-24,27.2c-22.7,26.8-41.7,56.1-57.2,87.6c-1.5,3.1-3.3,4.3-6.8,4.2
		c-11.5-0.2-23-0.1-34.8-0.1c0-81.2,0-162.1,0-241.8C114,118.8,155.1,159.9,196.3,201.1z"/>
	<path class="st3" d="M823.3,195.7c-8.3-7.3-17.2-15.5-26.5-23.4c-26.9-22.8-56.3-41.9-88-57.4c-3.9-1.9-5.1-4.1-5-8.3
		c0.3-11,0.1-21.9,0.1-33.2c81.2,0,162.1,0,241.6,0C905.3,113.7,864.4,154.7,823.3,195.7z"/>
	<path class="st3" d="M73.4,704c12.5,0,24.5-0.1,36.4,0.1c1.4,0,3.3,1.5,3.9,2.8c21,42.6,48,80.9,81.1,115c0.7,0.7,1.2,1.5,1.4,1.9
		c-41.1,41.1-82,82-122.8,122.8C73.4,866.2,73.4,785.4,73.4,704z"/>
	<path class="st3" d="M514.4,518.3c40.7,40.7,81.5,81.5,122.9,122.9c-34.2,32.4-74.9,49.8-122.9,50.8
		C514.4,633.8,514.4,576,514.4,518.3z"/>
	<path class="st3" d="M637.2,382.6c-41.3,41.3-82.2,82.2-122.9,122.9c0-57.2,0-115.1,0-173.5C562.3,332.9,602.9,350.4,637.2,382.6z"
		/>
	<path class="st3" d="M691.6,509.8c-58.1,0-115.8,0-172.5,0c40.4-40.4,81.2-81.2,122.3-122.3C666.4,403.9,695.1,472.4,691.6,509.8z"
		/>
	<path class="st3" d="M382.6,386.9c41.3,41.3,82.2,82.2,122.9,122.9c-57.2,0-115,0-173.4,0C332.9,461.7,350.3,421.1,382.6,386.9z"/>
	<path class="st3" d="M332.3,514.2c58.1,0,115.8,0,172.2,0c-40.1,40.1-81,81-122.1,122.1C358.6,622.2,329.8,553.7,332.3,514.2z"/>
	<path class="st3" d="M640.7,636.9C599.9,596,559,555.2,518.2,514.4c57.4,0,115.2,0,173,0C698.3,543.1,667.1,618.8,640.7,636.9z"/>
	<path class="st3" d="M509.6,505.8c-40.7-40.7-81.6-81.6-122.9-122.9c34.2-32.4,74.9-49.8,122.9-50.8
		C509.6,390.2,509.6,448.1,509.6,505.8z"/>
	<path class="st3" d="M509.8,518.7c0,57.1,0,114.8,0,172.5c-31.8,5.9-101.1-22.7-122.5-50C428.2,600.3,469.1,559.4,509.8,518.7z"/>
	<path class="st3" d="M815.5,819.7c-32.7,32.1-69.6,58.7-111.3,79.4c0-64.1,0-127.7,0-190.6C741.1,745.3,778.1,782.3,815.5,819.7z"
		/>
	<path class="st3" d="M819.3,815.7C782,778.3,745,741.4,707.9,704.3c63.4,0,126.9,0,191.1,0C878.4,745.9,851.7,782.9,819.3,815.7z"
		/>
	<path class="st3" d="M209,819.1c37.1-37.1,74-74,110.7-110.7c0,62.6,0,125.9,0,190C278.1,877.7,241.4,851.1,209,819.1z"/>
	<path class="st3" d="M708.3,319.6C745,282.9,781.9,246.1,819,209c32,32.3,58.6,69,79.5,110.7C834.5,319.6,771.2,319.6,708.3,319.6z
		"/>
	<path class="st2" d="M204.7,814.7c-31.7-32.1-58-68.9-78.7-110.5c63.8,0,126.9,0,189.2,0C278.7,740.7,241.8,777.6,204.7,814.7z"/>
	<path class="st2" d="M815.3,205.2c-37.3,37.2-74,74-110.9,110.8c0-63,0-126.3,0-190C745.8,146.6,782.5,173,815.3,205.2z"/>
	<path class="st3" d="M210,204.9c31.8-31.3,68.2-57.7,109.6-78.4c0,63.6,0,126.5,0,188C283.8,278.7,247,242,210,204.9z"/>
	<path class="st2" d="M127.3,319.8c4.1-18.6,54.8-89.9,78-110c36.8,36.8,73.5,73.5,110,110C253.2,319.8,190.3,319.8,127.3,319.8z"/>
	<path class="st3" d="M688.6,704.3C638.3,748.8,581,771.9,514.4,773c0-23,0-45.7,0-68.7C572.1,704.3,629.7,704.3,688.6,704.3z"/>
	<path class="st3" d="M509.6,772.6c-57.9,1-125.1-22.5-173.5-68.2c58,0,115.6,0,173.5,0C509.6,726.9,509.6,749.6,509.6,772.6z"/>
	<path class="st3" d="M704.1,688.8c0-59.1,0-116.6,0-174.5c22.9,0,45.6,0,68.8,0C772,580.8,748.9,638.2,704.1,688.8z"/>
	<path class="st3" d="M336.1,319.7c46.3-44,112.8-69.1,173.5-68.4c0,22.7,0,45.4,0,68.4C452,319.7,394.4,319.7,336.1,319.7z"/>
	<path class="st3" d="M319.8,335.3c0,58.9,0,116.4,0,174.3c-22.7,0-45.3,0-68.7,0C252,443.2,275.1,385.8,319.8,335.3z"/>
	<path class="st3" d="M704.3,335.4c44.6,50.3,67.7,107.7,68.7,174.3c-23.1,0-45.7,0-68.7,0C704.3,451.9,704.3,394.3,704.3,335.4z"/>
	<path class="st3" d="M319.8,514.4c0,57.9,0,115.4,0,174.3C275.2,638.4,252.1,581,251,514.4C274,514.4,296.7,514.4,319.8,514.4z"/>
	<path class="st3" d="M688.8,319.8c-59.1,0-116.7,0-174.5,0c0-22.8,0-45.4,0-68.7C580.7,251.9,638.2,275.1,688.8,319.8z"/>
	<path class="st2" d="M694.2,698.5c-2.8,1.8-123.1,2.8-140.3,0.9c35.9-8.5,66.3-25.2,91.7-49.5C661.9,666.3,678,682.3,694.2,698.5z"
		/>
	<path class="st2" d="M699.5,469c-8.5-35-25.3-65.3-49.5-90.5c16.3-16.5,32.3-32.6,48.3-48.7C700.4,332.3,701.6,435.3,699.5,469z"/>
	<path class="st2" d="M329.8,698.3c16.1-16,32.2-32,48.6-48.4c12.3,11.6,26.3,22.3,41.9,30.7c15.4,8.3,31.6,14.6,49.5,18.6
		C456.2,701.5,332.2,700.3,329.8,698.3z"/>
	<path class="st2" d="M698.3,694.3c-16-16.1-32-32.2-48.4-48.7c24.3-25.3,41-55.7,49.4-91.1C701.5,567.4,700.3,691.9,698.3,694.3z"
		/>
	<path class="st2" d="M374.4,645.9c-16.4,16.4-32.4,32.4-48.9,48.9c-0.5-1.2-1.4-2.6-1.4-3.9c-0.1-45.3-0.1-90.6,0.3-136
		C333,589.6,349.6,620,374.4,645.9z"/>
	<path class="st2" d="M469.5,324.7c-35.2,8.3-65.6,24.9-91,49.3c-16.3-16.3-32.4-32.4-48.8-48.8c0.8-0.3,2.2-1.1,3.6-1.1
		c45.1,0,90.3,0,135.4,0.1C468.8,324.2,468.9,324.3,469.5,324.7z"/>
	<path class="st2" d="M555,324.5c37.3-2.1,136.7-0.9,139.2,1.2c-16.1,16-32.2,32.1-48.6,48.4C620.3,349.8,589.9,333,555,324.5z"/>
	<path class="st2" d="M373.5,378.9c-23.7,24.8-40.5,55.1-48.8,90.3c0-46.8,0-93.2,0-139.1C341,346.3,357.1,362.5,373.5,378.9z"/>
	<path class="st2" d="M73.4,324.2c12.6,0,24.7,0,37.5,0c-18.4,39.6-30.8,80.7-37.5,123.5C73.4,406.7,73.4,365.7,73.4,324.2z"/>
	<path class="st2" d="M914.1,324.2c12.9,0,25,0,37.5,0c0,41.4,0,82.5,0,123.7C945,405.2,932.6,364.1,914.1,324.2z"/>
	<path class="st2" d="M448,73.5c-42.9,6.6-84.1,19-123.8,37.4c0-12.8,0-24.9,0-37.4C365.5,73.5,406.8,73.5,448,73.5z"/>
	<path class="st2" d="M447.7,951.8c-41,0-81.9,0-123.3,0c0-12.3,0-24.6,0-37.6C363.9,932.5,405,945,447.7,951.8z"/>
	<path class="st2" d="M951.7,577.1c0,40.7,0,81.5,0,122.5c-12.3,0-24.3,0-37,0C932.7,660.4,945,619.7,951.7,577.1z"/>
	<path class="st2" d="M73.5,577.1c6.5,42.5,18.7,83.1,36.9,122.5c-12.5,0-24.5,0-36.9,0C73.5,658.8,73.5,617.9,73.5,577.1z"/>
	<path class="st2" d="M577.1,73.3c40.7,0,81.5,0,122.6,0c0,12.3,0,24.3,0,37.1C660.4,92.3,619.7,80,577.1,73.3z"/>
	<path class="st2" d="M577.1,951.5c42.6-6.5,83.3-18.8,122.7-37c0,12.7,0,24.7,0,37C658.8,951.5,618,951.5,577.1,951.5z"/>
</g>
</svg>
