<?xml version="1.0" encoding="utf-8"?>
<!-- Generator: Adobe Illustrator 24.3.0, SVG Export Plug-In . SVG Version: 6.00 Build 0)  -->
<svg version="1.1" id="Layer_1" xmlns="http://www.w3.org/2000/svg" xmlns:xlink="http://www.w3.org/1999/xlink" x="0px" y="0px"
	 viewBox="0 0 325.4 151.3" style="enable-background:new 0 0 325.4 151.3;" xml:space="preserve">
<style type="text/css">
	.st0{fill:#FFFFFF;}
	.st1{font-family:'AGaramondPro-Semibold';}
	.st2{font-size:51px;}
	.st3{fill:#7E9AC3;}
	.st4{fill:#4E6DA0;}
	.st5{clip-path:url(#SVGID_2_);}
	.st6{fill:url(#SVGID_3_);}
	.st7{clip-path:url(#SVGID_5_);}
	.st8{fill:url(#SVGID_6_);}
	.st9{clip-path:url(#SVGID_8_);}
	.st10{fill:url(#SVGID_9_);}
	.st11{fill:#1F417E;}
	.st12{letter-spacing:-1;}
</style>
<text transform="matrix(1 0 0 1 67.4084 136.32)" class="st0 st1 st2">B</text>
<text transform="matrix(1 0 0 1 98.6484 136.32)" class="st0 st1 st2">a</text>
<text transform="matrix(1 0 0 1 120.4484 136.32)" class="st0 st1 st2">n</text>
<text transform="matrix(1 0 0 1 147.7084 136.32)" class="st0 st1 st2">k</text>
<polygon class="st3" points="307.5,134.3 191.1,134.3 187.1,138.3 311.5,138.3 "/>
<polygon class="st4" points="191.1,134.3 191.1,18 187.1,14 187.1,138.3 "/>
<g>
	<g>
		<defs>
			<rect id="SVGID_1_" x="191.1" y="18" width="116.4" height="116.4"/>
		</defs>
		<clipPath id="SVGID_2_">
			<use xlink:href="#SVGID_1_"  style="overflow:visible;"/>
		</clipPath>
		<g class="st5">
			
				<linearGradient id="SVGID_3_" gradientUnits="userSpaceOnUse" x1="-1962.9938" y1="-1153.1014" x2="-1962.3337" y2="-1153.1014" gradientTransform="matrix(171.0491 171.0491 -171.0491 171.0491 138730.875 533031.6875)">
				<stop  offset="0" style="stop-color:#15204B"/>
				<stop  offset="6.000000e-02" style="stop-color:#142553"/>
				<stop  offset="0.16" style="stop-color:#123468"/>
				<stop  offset="0.27" style="stop-color:#0E4B8B"/>
				<stop  offset="0.28" style="stop-color:#0E4C8C"/>
				<stop  offset="0.52" style="stop-color:#0788CA"/>
				<stop  offset="0.73" style="stop-color:#0E4C8C"/>
				<stop  offset="0.76" style="stop-color:#0F4481"/>
				<stop  offset="0.86" style="stop-color:#123163"/>
				<stop  offset="0.94" style="stop-color:#142451"/>
				<stop  offset="1" style="stop-color:#15204B"/>
			</linearGradient>
			<polygon class="st6" points="132.9,76.2 249.3,-40.2 365.7,76.2 249.3,192.6 			"/>
		</g>
	</g>
</g>
<polygon class="st3" points="307.5,18 191.1,18 187.1,14 311.3,14 "/>
<g>
	<g>
		<defs>
			<path id="SVGID_4_" d="M252.8,24.5c-5.1,1.5-9.4,5.1-11.7,9.9c-0.6,1.5-1,3.1-1,4.8v10.1c0,1-0.6,1.9-1.5,2.3
				c-0.5,0.3-1,0.5-1.5,0.8l-1.4,0.5l-44.6,17.4v64h29.4v-6l21.5-8.6l1.7-0.7c1.4-0.7,2.8-1.5,4.1-2.5c4.2-2.6,6.8-7.1,7-12V93.8
				l56.7-23.4L311.3,1L252.8,24.5z"/>
		</defs>
		<clipPath id="SVGID_5_">
			<use xlink:href="#SVGID_4_"  style="overflow:visible;"/>
		</clipPath>
		<g class="st7">
			
				<linearGradient id="SVGID_6_" gradientUnits="userSpaceOnUse" x1="-1960.4502" y1="-1144.9888" x2="-1959.7601" y2="-1144.9888" gradientTransform="matrix(189.22 0 0 189.22 371141.1875 216722.4688)">
				<stop  offset="0" style="stop-color:#C9CACC"/>
				<stop  offset="0.23" style="stop-color:#EDEDEE"/>
				<stop  offset="0.37" style="stop-color:#DEDFE0"/>
				<stop  offset="0.43" style="stop-color:#E2E3E4"/>
				<stop  offset="0.49" style="stop-color:#A5A7A9"/>
				<stop  offset="0.56" style="stop-color:#FFFFFF"/>
				<stop  offset="0.62" style="stop-color:#DEDFE0"/>
				<stop  offset="0.7" style="stop-color:#EDEDEE"/>
				<stop  offset="0.77" style="stop-color:#F8F8F9"/>
				<stop  offset="1" style="stop-color:#D2D3D4"/>
			</linearGradient>
			<rect x="191.1" y="1" class="st8" width="120.4" height="133.4"/>
		</g>
	</g>
</g>
<g>
	<g>
		<defs>
			<path id="SVGID_7_" d="M213.1,90.6c10.2-3.9,20.2-7.9,30.4-12.2c1.4-0.7,2.5-1.7,3.4-3v9c-0.2,2.7-2,4.9-4.5,5.8
				c-9.4,4.3-19.3,8-29.3,11.7L213.1,90.6L213.1,90.6z M256.1,30.9c-6,2.3-8,4.8-8,9.4v9.9c0,6.5-9.3,9.3-9.3,9.3L191.1,78v56.4
				h21.8v-11.3l26.2-10.6c0,0,8.1-2.8,8.1-9.2v-9.8c0.1-3.8,2.7-7,6.4-8l50.9-20.6V44.2l-49.3,19.6C249,66.3,248,69,248,69v-9.3
				c0-0.8-0.3-4.2,8.5-7.8l48.1-19.3V11.2L256.1,30.9z"/>
		</defs>
		<clipPath id="SVGID_8_">
			<use xlink:href="#SVGID_7_"  style="overflow:visible;"/>
		</clipPath>
		<g class="st9">
			
				<linearGradient id="SVGID_9_" gradientUnits="userSpaceOnUse" x1="-1959.0079" y1="-1144.3933" x2="-1958.318" y2="-1144.3933" gradientTransform="matrix(167.32 0 0 167.32 327968.4688 191552.7969)">
				<stop  offset="0" style="stop-color:#9D1B30"/>
				<stop  offset="0.18" style="stop-color:#D21F44"/>
				<stop  offset="0.37" style="stop-color:#D21F44"/>
				<stop  offset="0.43" style="stop-color:#D21F44"/>
				<stop  offset="0.49" style="stop-color:#8B1727"/>
				<stop  offset="0.56" style="stop-color:#EE3553"/>
				<stop  offset="0.63" style="stop-color:#C41F3F"/>
				<stop  offset="0.88" style="stop-color:#D21F44"/>
				<stop  offset="0.98" style="stop-color:#C41F3F"/>
				<stop  offset="1" style="stop-color:#C41F3F"/>
			</linearGradient>
			<rect x="191.1" y="11.4" class="st10" width="113.4" height="123"/>
		</g>
	</g>
</g>
<polygon class="st4" points="307.5,72.1 307.5,134.3 311.5,138.3 311.5,70.4 "/>
<path class="st11" d="M311.5,71.6v-1.2l-56.6,23.4v11c-0.4,4.7-2.9,9-6.9,11.5c-1.2,0.9-2.5,1.7-3.9,2.4l-23.6,9.6v6h1.1V129
	l21.2-8.6l1.7-0.8c1.5-0.7,2.9-1.6,4.2-2.5c4.3-2.7,7.1-7.3,7.4-12.4V94.5L311.5,71.6z"/>
<path class="st0" d="M311.5,0l-58.9,23.7c-5.3,1.6-9.6,5.3-12,10.2c-0.6,1.6-1,3.3-1,5V49c0,0.8-0.5,1.5-1.2,1.8
	c-0.4,0.3-0.9,0.5-1.4,0.7l-45.9,18.1v1.2l44.8-17.7l1.4-0.5c0.6-0.2,1.1-0.5,1.6-0.8c1-0.5,1.7-1.6,1.7-2.8V39c0-1.6,0.4-3.1,1-4.6
	c2.3-4.7,6.5-8.2,11.6-9.6l58.4-23.6L311.5,0z"/>
<text transform="matrix(1 0 0 1 11.8584 91.41)" class="st0 st1 st2">C</text>
<text transform="matrix(1 0 0 1 46.0483 91.41)" class="st0 st1 st2 st12">i</text>
<text transform="matrix(1 0 0 1 57.7284 91.41)" class="st0 st1 st2">t</text>
<text transform="matrix(1 0 0 1 73.9884 91.41)" class="st0 st1 st2">i</text>
<text transform="matrix(1 0 0 1 87.2184 91.41)" class="st0 st1 st2">z</text>
<text transform="matrix(1 0 0 1 106.9084 91.41)" class="st0 st1 st2">e</text>
<text transform="matrix(1 0 0 1 126.4584 91.41)" class="st0 st1 st2">n</text>
<text transform="matrix(1 0 0 1 152.8684 91.41)" class="st0 st1 st2">s</text>
<text transform="matrix(1 0 0 1 82.2884 50.18)" class="st0 st1 st2 st12">F</text>
<text transform="matrix(1 0 0 1 107.5084 50.18)" class="st0 st1 st2">i</text>
<text transform="matrix(1 0 0 1 120.6284 50.18)" class="st0 st1 st2">r</text>
<text transform="matrix(1 0 0 1 137.5583 50.18)" class="st0 st1 st2">s</text>
<text transform="matrix(1 0 0 1 154.1384 50.18)" class="st0 st1 st2">t</text>
</svg>
